<mxfile host="Electron" modified="2024-04-04T18:28:52.785Z" agent="Mozilla/5.0 (Windows NT 10.0; Win64; x64) AppleWebKit/537.36 (KHTML, like Gecko) draw.io/24.0.4 Chrome/120.0.6099.109 Electron/28.1.0 Safari/537.36" etag="Z1E8rPeSCmtEtb2sk4LR" version="24.0.4" type="device">
  <diagram name="Страница — 1" id="Zo6nlHttkHQbLygUnlrj">
    <mxGraphModel dx="1434" dy="836" grid="1" gridSize="10" guides="1" tooltips="1" connect="1" arrows="1" fold="1" page="1" pageScale="1" pageWidth="827" pageHeight="1169" math="0" shadow="0">
      <root>
        <mxCell id="0" />
        <mxCell id="1" parent="0" />
        <mxCell id="ntyYOldUJLg7yIdI68dH-8" value="" style="whiteSpace=wrap;html=1;aspect=fixed;dashed=1;" vertex="1" parent="1">
          <mxGeometry x="253.5" y="170" width="257" height="257" as="geometry" />
        </mxCell>
        <mxCell id="ntyYOldUJLg7yIdI68dH-13" style="edgeStyle=orthogonalEdgeStyle;rounded=0;orthogonalLoop=1;jettySize=auto;html=1;entryX=0;entryY=0.5;entryDx=0;entryDy=0;" edge="1" parent="1" source="ntyYOldUJLg7yIdI68dH-1" target="ntyYOldUJLg7yIdI68dH-8">
          <mxGeometry relative="1" as="geometry" />
        </mxCell>
        <mxCell id="ntyYOldUJLg7yIdI68dH-14" value="Могу посмотреть" style="edgeLabel;html=1;align=center;verticalAlign=middle;resizable=0;points=[];" vertex="1" connectable="0" parent="ntyYOldUJLg7yIdI68dH-13">
          <mxGeometry x="-0.4691" relative="1" as="geometry">
            <mxPoint as="offset" />
          </mxGeometry>
        </mxCell>
        <mxCell id="ntyYOldUJLg7yIdI68dH-1" value="Сторона А" style="shape=umlActor;verticalLabelPosition=bottom;verticalAlign=top;html=1;outlineConnect=0;" vertex="1" parent="1">
          <mxGeometry x="80" y="320" width="30" height="60" as="geometry" />
        </mxCell>
        <mxCell id="ntyYOldUJLg7yIdI68dH-12" style="edgeStyle=orthogonalEdgeStyle;rounded=0;orthogonalLoop=1;jettySize=auto;html=1;entryX=1;entryY=0.5;entryDx=0;entryDy=0;" edge="1" parent="1" source="ntyYOldUJLg7yIdI68dH-4" target="ntyYOldUJLg7yIdI68dH-8">
          <mxGeometry relative="1" as="geometry" />
        </mxCell>
        <mxCell id="ntyYOldUJLg7yIdI68dH-15" value="Могу посмотреть" style="edgeLabel;html=1;align=center;verticalAlign=middle;resizable=0;points=[];" vertex="1" connectable="0" parent="ntyYOldUJLg7yIdI68dH-12">
          <mxGeometry x="-0.5369" y="-3" relative="1" as="geometry">
            <mxPoint as="offset" />
          </mxGeometry>
        </mxCell>
        <mxCell id="ntyYOldUJLg7yIdI68dH-4" value="Сторона Б" style="shape=umlActor;verticalLabelPosition=bottom;verticalAlign=top;html=1;outlineConnect=0;" vertex="1" parent="1">
          <mxGeometry x="690" y="325" width="30" height="60" as="geometry" />
        </mxCell>
        <mxCell id="ntyYOldUJLg7yIdI68dH-6" value="Смарт-контракт" style="whiteSpace=wrap;html=1;shape=mxgraph.basic.document" vertex="1" parent="1">
          <mxGeometry x="354" y="320" width="56" height="70" as="geometry" />
        </mxCell>
        <mxCell id="ntyYOldUJLg7yIdI68dH-7" value="Данные" style="shape=datastore;whiteSpace=wrap;html=1;" vertex="1" parent="1">
          <mxGeometry x="350" y="190" width="60" height="60" as="geometry" />
        </mxCell>
        <mxCell id="ntyYOldUJLg7yIdI68dH-16" value="" style="whiteSpace=wrap;html=1;aspect=fixed;dashed=1;" vertex="1" parent="1">
          <mxGeometry x="282" y="485" width="200" height="200" as="geometry" />
        </mxCell>
        <mxCell id="ntyYOldUJLg7yIdI68dH-34" style="edgeStyle=orthogonalEdgeStyle;rounded=0;orthogonalLoop=1;jettySize=auto;html=1;entryX=0;entryY=0.5;entryDx=0;entryDy=0;" edge="1" parent="1" source="ntyYOldUJLg7yIdI68dH-19" target="ntyYOldUJLg7yIdI68dH-16">
          <mxGeometry relative="1" as="geometry">
            <Array as="points">
              <mxPoint x="95" y="585" />
            </Array>
          </mxGeometry>
        </mxCell>
        <mxCell id="ntyYOldUJLg7yIdI68dH-36" value="Не могу посмотреть" style="edgeLabel;html=1;align=center;verticalAlign=middle;resizable=0;points=[];" vertex="1" connectable="0" parent="ntyYOldUJLg7yIdI68dH-34">
          <mxGeometry x="0.6134" y="1" relative="1" as="geometry">
            <mxPoint as="offset" />
          </mxGeometry>
        </mxCell>
        <mxCell id="ntyYOldUJLg7yIdI68dH-19" value="Сторона А" style="shape=umlActor;verticalLabelPosition=bottom;verticalAlign=top;html=1;outlineConnect=0;" vertex="1" parent="1">
          <mxGeometry x="80" y="740" width="30" height="60" as="geometry" />
        </mxCell>
        <mxCell id="ntyYOldUJLg7yIdI68dH-32" style="edgeStyle=orthogonalEdgeStyle;rounded=0;orthogonalLoop=1;jettySize=auto;html=1;entryX=1;entryY=0.5;entryDx=0;entryDy=0;exitX=0.5;exitY=0;exitDx=0;exitDy=0;exitPerimeter=0;" edge="1" parent="1" source="ntyYOldUJLg7yIdI68dH-22" target="ntyYOldUJLg7yIdI68dH-16">
          <mxGeometry relative="1" as="geometry">
            <Array as="points">
              <mxPoint x="705" y="585" />
            </Array>
          </mxGeometry>
        </mxCell>
        <mxCell id="ntyYOldUJLg7yIdI68dH-33" value="Не могу посмотреть" style="edgeLabel;html=1;align=center;verticalAlign=middle;resizable=0;points=[];" vertex="1" connectable="0" parent="ntyYOldUJLg7yIdI68dH-32">
          <mxGeometry x="0.6183" y="-1" relative="1" as="geometry">
            <mxPoint as="offset" />
          </mxGeometry>
        </mxCell>
        <mxCell id="ntyYOldUJLg7yIdI68dH-22" value="Сторона Б" style="shape=umlActor;verticalLabelPosition=bottom;verticalAlign=top;html=1;outlineConnect=0;" vertex="1" parent="1">
          <mxGeometry x="690" y="740" width="30" height="60" as="geometry" />
        </mxCell>
        <mxCell id="ntyYOldUJLg7yIdI68dH-23" value="Алгоритмы" style="whiteSpace=wrap;html=1;shape=mxgraph.basic.document" vertex="1" parent="1">
          <mxGeometry x="344" y="590" width="76" height="70" as="geometry" />
        </mxCell>
        <mxCell id="ntyYOldUJLg7yIdI68dH-24" value="Данные" style="shape=datastore;whiteSpace=wrap;html=1;" vertex="1" parent="1">
          <mxGeometry x="350" y="490" width="60" height="60" as="geometry" />
        </mxCell>
        <mxCell id="ntyYOldUJLg7yIdI68dH-30" style="edgeStyle=orthogonalEdgeStyle;rounded=0;orthogonalLoop=1;jettySize=auto;html=1;entryX=0.5;entryY=1;entryDx=0;entryDy=0;" edge="1" parent="1" source="ntyYOldUJLg7yIdI68dH-27" target="ntyYOldUJLg7yIdI68dH-16">
          <mxGeometry relative="1" as="geometry" />
        </mxCell>
        <mxCell id="ntyYOldUJLg7yIdI68dH-27" value="Сервер" style="fontColor=#0066CC;verticalAlign=top;verticalLabelPosition=bottom;labelPosition=center;align=center;html=1;outlineConnect=0;fillColor=#CCCCCC;strokeColor=#6881B3;gradientColor=none;gradientDirection=north;strokeWidth=2;shape=mxgraph.networks.server;" vertex="1" parent="1">
          <mxGeometry x="347" y="735" width="70" height="70" as="geometry" />
        </mxCell>
        <mxCell id="ntyYOldUJLg7yIdI68dH-28" style="edgeStyle=orthogonalEdgeStyle;rounded=0;orthogonalLoop=1;jettySize=auto;html=1;entryX=1;entryY=0.5;entryDx=0;entryDy=0;entryPerimeter=0;" edge="1" parent="1" source="ntyYOldUJLg7yIdI68dH-22" target="ntyYOldUJLg7yIdI68dH-27">
          <mxGeometry relative="1" as="geometry" />
        </mxCell>
        <mxCell id="ntyYOldUJLg7yIdI68dH-29" style="edgeStyle=orthogonalEdgeStyle;rounded=0;orthogonalLoop=1;jettySize=auto;html=1;entryX=0;entryY=0.5;entryDx=0;entryDy=0;entryPerimeter=0;" edge="1" parent="1" source="ntyYOldUJLg7yIdI68dH-19" target="ntyYOldUJLg7yIdI68dH-27">
          <mxGeometry relative="1" as="geometry" />
        </mxCell>
        <mxCell id="ntyYOldUJLg7yIdI68dH-38" value="Предприниматель" style="shape=umlActor;verticalLabelPosition=bottom;verticalAlign=top;html=1;outlineConnect=0;" vertex="1" parent="1">
          <mxGeometry x="80" y="1020" width="30" height="60" as="geometry" />
        </mxCell>
        <mxCell id="ntyYOldUJLg7yIdI68dH-45" style="edgeStyle=orthogonalEdgeStyle;rounded=0;orthogonalLoop=1;jettySize=auto;html=1;entryX=0;entryY=0.5;entryDx=0;entryDy=0;fillColor=#647687;strokeColor=#314354;strokeWidth=2;" edge="1" parent="1" source="ntyYOldUJLg7yIdI68dH-39" target="ntyYOldUJLg7yIdI68dH-41">
          <mxGeometry relative="1" as="geometry" />
        </mxCell>
        <mxCell id="ntyYOldUJLg7yIdI68dH-47" value="Инвестировать в проект" style="edgeLabel;html=1;align=center;verticalAlign=middle;resizable=0;points=[];" vertex="1" connectable="0" parent="ntyYOldUJLg7yIdI68dH-45">
          <mxGeometry x="-0.8154" y="2" relative="1" as="geometry">
            <mxPoint x="74" y="2" as="offset" />
          </mxGeometry>
        </mxCell>
        <mxCell id="ntyYOldUJLg7yIdI68dH-57" style="edgeStyle=orthogonalEdgeStyle;rounded=0;orthogonalLoop=1;jettySize=auto;html=1;entryX=0.5;entryY=1;entryDx=0;entryDy=0;strokeWidth=2;fillColor=#647687;strokeColor=#314354;" edge="1" parent="1" source="ntyYOldUJLg7yIdI68dH-39" target="ntyYOldUJLg7yIdI68dH-41">
          <mxGeometry relative="1" as="geometry">
            <Array as="points">
              <mxPoint x="95" y="1470" />
              <mxPoint x="522" y="1470" />
            </Array>
          </mxGeometry>
        </mxCell>
        <mxCell id="ntyYOldUJLg7yIdI68dH-58" value="Отказ от инвестиции" style="edgeLabel;html=1;align=center;verticalAlign=middle;resizable=0;points=[];" vertex="1" connectable="0" parent="ntyYOldUJLg7yIdI68dH-57">
          <mxGeometry x="-0.2731" y="-3" relative="1" as="geometry">
            <mxPoint as="offset" />
          </mxGeometry>
        </mxCell>
        <mxCell id="ntyYOldUJLg7yIdI68dH-39" value="Инвестор" style="shape=umlActor;verticalLabelPosition=bottom;verticalAlign=top;html=1;outlineConnect=0;" vertex="1" parent="1">
          <mxGeometry x="80" y="1370" width="30" height="60" as="geometry" />
        </mxCell>
        <mxCell id="ntyYOldUJLg7yIdI68dH-40" value="Проекты" style="rhombus;whiteSpace=wrap;html=1;" vertex="1" parent="1">
          <mxGeometry x="482" y="1000" width="78" height="100" as="geometry" />
        </mxCell>
        <mxCell id="ntyYOldUJLg7yIdI68dH-41" value="Инвестиции" style="rhombus;whiteSpace=wrap;html=1;" vertex="1" parent="1">
          <mxGeometry x="482" y="1350" width="80" height="100" as="geometry" />
        </mxCell>
        <mxCell id="ntyYOldUJLg7yIdI68dH-42" value="Выплаты" style="rhombus;whiteSpace=wrap;html=1;" vertex="1" parent="1">
          <mxGeometry x="482" y="1160" width="80" height="100" as="geometry" />
        </mxCell>
        <mxCell id="ntyYOldUJLg7yIdI68dH-50" value="" style="endArrow=classic;html=1;rounded=0;exitX=0.5;exitY=0;exitDx=0;exitDy=0;exitPerimeter=0;entryX=0;entryY=1;entryDx=0;entryDy=0;fillColor=#e3c800;strokeColor=#B09500;strokeWidth=2;" edge="1" parent="1" source="ntyYOldUJLg7yIdI68dH-39" target="ntyYOldUJLg7yIdI68dH-40">
          <mxGeometry width="50" height="50" relative="1" as="geometry">
            <mxPoint x="140" y="1310" as="sourcePoint" />
            <mxPoint x="190" y="1260" as="targetPoint" />
          </mxGeometry>
        </mxCell>
        <mxCell id="ntyYOldUJLg7yIdI68dH-51" value="Посмотреть проекты" style="edgeLabel;html=1;align=center;verticalAlign=middle;resizable=0;points=[];" vertex="1" connectable="0" parent="ntyYOldUJLg7yIdI68dH-50">
          <mxGeometry x="-0.2113" y="-3" relative="1" as="geometry">
            <mxPoint x="-67" y="44" as="offset" />
          </mxGeometry>
        </mxCell>
        <mxCell id="ntyYOldUJLg7yIdI68dH-53" value="" style="edgeStyle=orthogonalEdgeStyle;rounded=0;orthogonalLoop=1;jettySize=auto;html=1;entryX=0;entryY=0.5;entryDx=0;entryDy=0;fillColor=#e3c800;strokeColor=#B09500;strokeWidth=2;" edge="1" parent="1" source="ntyYOldUJLg7yIdI68dH-38" target="ntyYOldUJLg7yIdI68dH-40">
          <mxGeometry relative="1" as="geometry">
            <mxPoint x="110" y="1050" as="sourcePoint" />
            <mxPoint x="482" y="1050" as="targetPoint" />
          </mxGeometry>
        </mxCell>
        <mxCell id="ntyYOldUJLg7yIdI68dH-54" value="Открыть проект" style="edgeLabel;html=1;align=center;verticalAlign=middle;resizable=0;points=[];" vertex="1" connectable="0" parent="ntyYOldUJLg7yIdI68dH-53">
          <mxGeometry x="-0.4624" y="-1" relative="1" as="geometry">
            <mxPoint x="80" y="-1" as="offset" />
          </mxGeometry>
        </mxCell>
        <mxCell id="ntyYOldUJLg7yIdI68dH-52" value="" style="shape=image;verticalLabelPosition=bottom;labelBackgroundColor=default;verticalAlign=top;aspect=fixed;imageAspect=0;image=data:image/jpeg,/9j/4AAQSkZJRgABAQEAYABgAAD//gA7Q1JFQVRPUjogZ2QtanBlZyB2MS4wICh1c2luZyBJSkcgSlBFRyB2NjIpLCBxdWFsaXR5ID0gODUK/9sAQwAFAwQEBAMFBAQEBQUFBgcMCAcHBwcPCwsJDBEPEhIRDxERExYcFxMUGhURERghGBodHR8fHxMXIiQiHiQcHh8e/9sAQwEFBQUHBgcOCAgOHhQRFB4eHh4eHh4eHh4eHh4eHh4eHh4eHh4eHh4eHh4eHh4eHh4eHh4eHh4eHh4eHh4eHh4e/8AAEQgDhASwAwEiAAIRAQMRAf/EAB8AAAEFAQEBAQEBAAAAAAAAAAABAgMEBQYHCAkKC//EALUQAAIBAwMCBAMFBQQEAAABfQECAwAEEQUSITFBBhNRYQcicRQygZGhCCNCscEVUtHwJDNicoIJChYXGBkaJSYnKCkqNDU2Nzg5OkNERUZHSElKU1RVVldYWVpjZGVmZ2hpanN0dXZ3eHl6g4SFhoeIiYqSk5SVlpeYmZqio6Slpqeoqaqys7S1tre4ubrCw8TFxsfIycrS09TV1tfY2drh4uPk5ebn6Onq8fLz9PX29/j5+v/EAB8BAAMBAQEBAQEBAQEAAAAAAAABAgMEBQYHCAkKC//EALURAAIBAgQEAwQHBQQEAAECdwABAgMRBAUhMQYSQVEHYXETIjKBCBRCkaGxwQkjM1LwFWJy0QoWJDThJfEXGBkaJicoKSo1Njc4OTpDREVGR0hJSlNUVVZXWFlaY2RlZmdoaWpzdHV2d3h5eoKDhIWGh4iJipKTlJWWl5iZmqKjpKWmp6ipqrKztLW2t7i5usLDxMXGx8jJytLT1NXW19jZ2uLj5OXm5+jp6vLz9PX29/j5+v/aAAwDAQACEQMRAD8A+y6KKKACiiigAooooAKKKKACiiigAooooAKKKKACiiigAooooAKKKKACiiigAooooAKKKKACiiigAooooAKKKKACiiigAooooAKKKKACiiigAooooAKKKKACiiigAooooAKKKKACiiigAooooAKKKKACiiigAooooAKKKKACiiigAooooAKKKKACiiigAooooAKKKKACiiigAooooAKKKKACiiigAooooAKKKKACiiigAooooAKKKKACiiigAooooAKKKKACiiigAooooAKKKKACiiigAooooAKKKKACiiigAooooAKKKKACiiigAooooAKKKKACiiigAooooAKKKKACiiigAooooAKKKKACiiigAooooAKKKKACiiigAooooAKKKKACiiigAooooAKKKKACiiigAooooAKKKKACiiigAooooAKKKKACiiigAooooAKKKKACiiigAooooAKKKKACiiigAooooAKKKKACiiigAooooAKKKKACiiigAooooAKKKKACiiigAooooAKKKKACiiigAooooAKKKKACiiigAooooAKKKKACiiigAooooAKKKKACiiigAooooAKKKKACiiigAooooAKKKKACiiigAooooAKKKKACiiigAooooAKKKKACiiigAooooAKKKKACiiigAooooAKKKKACiiigAooooAKKKKACiiigAooooAKKKKACiiigAooooAKKKKACiiigAooooAKKKKACiiigAooooAKKKKACiiigAooooAKKKKACiiigAooooAKKKKACiiigAooooAKKKKACiiigAooooAKKKKACiiigAooooAKKKKACiiigAooooAKKKKACiiigAooooAKKKKACiiigAooooAKKKKACiiigAooooAKKKKACiiigAooooAKKKKACiiigAooooAKKKKACiiigAooooAKKKKACiiigAooooAKKKKACiiigAooooAKKKKACiiigAooooAKKKKACiiigAooooAKKKKACiiigAooooAKKKKACiiigAooooAKKKKACiiigAooooAKKKKACiiigAooooAKKKKACiiigAooooAKKKKACiiigAooooAKKKKACiiigAooooAKKKKACiiigAooooAKKKKACiiigAooooAKKKKACiiigAooooAKKKKACiiigAooooAKKKKACiiigAooooAKKKKACiiigAooooAKKKKACiiigAooooAKKKKACiiigAooooAKKKKACiiigAooooAKKKKACiiigAooooAKKKKACiiigAooooAKKKKACiiigAooooAKKKKACiiigAooooAKKKKACiiigAooooAKKKKACiiigAooooAKKKKACiiigAooooAKKKKACiiigAooooAKKr3F5BBkM+W/ujk1m3OpzPkQgRj16mqUWxOSRrTTxQrukdVHvWfPqoHEKZ92/wrLYs2XdiT3JNcJ4v+LHgrw3cGzm1I39/wBrOwTz5SfoOB+Jq+WMVeRHM5OyPTYNWbOJUBHqtaFvdQTj5JAT6HrXifh740eC9Tu0sr+S90C7c4SLVIDCH+jdD+dej28sU0SzQSrJGwyro2QR7EUJQmrxY25RdpHV0VhW+oXEWATvX0br+daVvfwS4BOxvRqhwaGpJluijNFSUFFFFABRRRQAUUUUAFFFFABRRRQAUUUUAFFFFABRRRQAUUUUAFFFFABRRRQAUUUUAFFFFABRRRQAUUUUAFFFFABRRRQAUUUUAFFFFABRRRQAUUUUAFFFFABRRRQAUUUUAFFFFABRRRQAUUUUAFFFFABRRRQAUUUUAFFFFABRRRQAUUUUAFFFFABRRRQAUUUUAFFFFABRRRQAUUUUAFFFFABRRRQAUUUUAFFFFABRRRQAUUUUAFFFFABRRRQAUUUUAFFFFABRRRQAUUUUAFFFFABRRRQAUUUUAFFFFABRRRQAUUUUAFFFFABRRRQAUUUUAFFFFABRRRQAUUUUAFFFFABRRRQAUUUUAFFFFABRRSOyopLMFHqTQAtBOBk9Kz7nU4kyIhvPr0FZtzdzzn53O30HAq1BslyRrXOowRcKfMb0H+NZtzf3E2QG2L6LXPeJfEmh+G7Fr3XNUtbCADIMsgBb6DqfwryvWfjBrGt7rfwF4fcwngapqYMUOPVE+81KrVo4ePNUlZeY6cKlV2grnsWoXtpp9q91fXUNtAgy0kzhVH1Jry7xB8atNaZ7HwTpVz4mu1O0zJ+7tYz/ALUh6/hXB3Hhy71y6F7401u78QTg5WGQ+Xap/uxDj866C2t4beFYbeKOKJRhURQqj6AV87i+JYR93Dxv5v8AyPXw+TSetV28kY+rr4z8Xkt4u8RyW9o3/MM0omKLHoz/AHmq3ouiaVo0Hk6ZYQWqn7xRfmb6t1P41pAUuK+ZxOOxGKd6sr+XQ9qhhaVBe5ErX1jaX9s1tfW0NzC3BSVAwP4GsjTtF1bw3MbjwV4gu9J5ybOUma0f22HlfqDXQgU4LUYfF1sM70pNFVqFOsrTVy7o3xgvtLKwePPD0lmg4/tLT8zWx92X7yfjXp/h/X9F8QWS3mi6na30DDIaGQNj6jqPxryQqGBBGQeCDWDc+FbJL06lotxc6FqOc/adPk8vcf8AaX7rflX0uE4l+ziI/Nf5Hi4jJutJ/Jn0lb3U0PCNx6HpWjb6nG2BMuw+vavnvSPiJ438N4i8R6YniSxXreaevl3Cj1aI8N+Br0fwb488LeLY/wDiT6rE1wv37WX93Oh9Ch5zX0dDE0MUuanK549WjVoO01Y9KR1ddyMGHqKdXOxSyRHKOV+lX7fUugmXP+0P8K0cGtiVI06KjhmilXMbhqkqCgooooAKKKKACiiigAooooAKKKKACiiigAooooAKKKKACiiigAooooAKKKKACiiigAooooAKKKKACiiigAooooAKKKKACiiigAooooAKKKKACiiigAooooAKKKKACiiigAooooAKKKKACiiigAooooAKKKKACiiigAooooAKKKKACiiigAooooAKKKKACiiigAooooAKKKKACiiigAooooAKKKKACiiigAooooAKKKKACiiigAooooAKKKKACiiigAooooAKKKKACiiigAooooAKKKKACiiigAooooAKKKKACiiigAooooAKKKKACiiigAooooAKKKKACiiigAooqG4uYYBmRwD6d6AJqZLLHEu6Rwo96y7jVXbiFdo9T1rNmldyWdye5JNaKm+pDn2NW51UciBM/wC03+FZs08srbpHLV5/4x+K/hLw5MbBLp9Y1Xothpy+dLn0OOF/GvPNY8UfEXxdlHuI/CGmN/yxtW827ce8nRPwrnxONw+EV6krfma0cNWxDtBHrHjT4geFPCMf/E71aKOdv9XaxfvJpD6BF5rzHWfiN488TFovDWmx+GdObpeX6h7lx6rGOF/GsrQvDGkaRI1xBbeddvzJd3DGWZz7u3P5YraxXzOM4kqT92grLu9z2sPk0I61XfyOdsfCWnrff2nq01zrepk5N1fv5hB/2V+6o+grogKUCnqpJAAJJ6CvnKtapWlzVHdnsQpwpxtFWQwCnAV0Gj+E9Uv8O8X2WE/xyjB/Ada7HSPCelWG15Y/tco/ilHy59l6fzr08JkmKxOtuVd3/luceIzKhR0vd+RwGk6HqepkG1tXKf8APRvlX8zXW6X4Hto8NqNw0zd0j+Vfz6/yra1nxJo+kJsubqMMOkUfLfkOlcLrnxJu5cx6XbJbr2kk+Zvy6CvpsJkGFoaz95+e33f5ni181r1NI+6vL/M6nUfBOnTKWs3ktn9M7lP581yuq+GdV07LvB50Q/5aRfMPxHUVX0j4j6rbuFv44ruPPJ+6w/EV3eheMdE1Xai3At5j/wAs5Tj8j0NXisjwlfWK5X5f5EUMzr0t3deZ5rijFeq6p4f0rUwXkgWOQ/8ALWLg/j2Nclq3g3ULbL2bC7j9AMP+Xf8ACvm8XkWJoaxXMvL/ACPZw+aUauj91+Zy+KyNb8N6RrEizXdrtuk5S5hYxzIfUOOa25YpIpCksbRuOqsMEU2vIjKdKV4uzR3yjGcbPVFDSfEPxC8K7UtryLxTpqdIL0iO6Uf7Mg4b8a7zwl8VvC2uXC6fdTS6Lqh4NlqCeUxP+yx+VvwNclVLVtK07Vbc2+pWUF1H2EiAkH1B6g+4r3sJxDXp+7WXMvxPLr5TTnrTdn+B7ukmCGRvoQau2+pSLgSgOPXoa+btLTxb4VYN4V1+Se0X/mGamTLFj0R/vJ+tdn4f+MWl+fHZeMNNuPDV2x2iWb57WQ/7MoGPzr6bC5lhsXpGWvZ7ni18HXofEtO57fBdQzfcbn0PWpq5Wyu7a8gS4s7iK4hcZWSJwykeoIq/b308XBPmL6Ma7HT7HOp9zboqpb38EvBOxvRqtggjIqGmi73CiiikAUUUUAFFFFABRRRQAUUUUAFFFFABRRRQAUUUUAFFFFABRRRQAUUUUAFFFFABRRRQAUUUUAFFFFABRRRQAUUUUAFFFFABRRRQAUUUUAFFFFABRRRQAUUUUAFFFFABRRRQAUUUUAFFFFABRRRQAUUUUAFFFFABRRRQAUUUUAFFFFABRRRQAUUUUAFFFFABRRRQAUUUUAFFFFABRRRQAUUUUAFFFFABRRRQAUUUUAFFFFABRRRQAUUUUAFFFFABRRRQAUUUUAFFFFABRRRQAUUUUAFFFFABRRRQAUUUUAFFFFABRRRQAUUUUAFFBIAyTVO51GCLIU+Y3oOlNJvYTaRcqtc3sEHDPub0Xmsi6vp5sjdtU9lrK1bUtP0mze91O9t7O3QZaSaQIo/E1oqfcnn7G1calNLkJ+7X261nXMscUbzTyrHGo3O7tgAepJryLXfjOt672ngDRZtckHym+nBhtEPruOC30FcbqWka74pmFx441+fUFzuXT7UmG0T2IHL/AImuDF5rhcJpJ3fZbnTQwFfEapad2eg+J/jNoFndSaZ4ZtbnxNqanBSzH7mM/wC3IeB+FcNq83jrxeT/AMJPrv8AZmnv/wAwzSmKAj0eX7x/CtKwsrSwtUtbK2it4E+7HEoVR+AqyBXy+M4hxFbSn7q/E93D5TSp6z95/gZuiaJpWiwGHTLGG2U/eKjLN9WPJP1NaOOacFq1YWF3fTCK0t5Jn/2R0+p7V4aU6surb+bPS92nHskVAKlghlmkEUMbSO3RVGSa7PSPAzHbJqk+3/plEcn6Fv8ACuqt7bStFtSyJBaxgfM7HBP1J617uD4er1feq+6vxPLxGb0qelP3n+BxOkeCr64xJfOtrH/d6uf6Cux0rQ9K0pN0Num8DmWQ5b8+34Vz2ufEGwtt0emRm7k/vnKoP6muC1zxJqurMRdXTCP/AJ5J8qj8K+owmV4XC6wjd93qzxMRjq1fST07I9M13xto+m7o4nN3MP4YugPua4LXvG2sairRxzfZIT/BFwT9T1rlJZgOM8+lEdrd3B+Vdi+p/wAK9A4xtxcclnYknqSapSTSyHEMZb37Vu2+iKOZMu3vV6HTAo+7TsFzlEe5X/WR5+nNWbe5Unrg10p0wf3ar3OjRyclMH1HWiwrlvQfFer6XtWC6aSIf8spPmX/AOtXe6J4/wBNuwsd+jWkv948ofx6ivJ5dOuoOYzvUdjwajScq22RSjehpbDPf7i00vWLYNNHDcxsPldTz+DDmuY1fwO4DSaXcBx/zylOD+B/xrzrSdXvtNk8yxuniPcA/KfqK7fQ/iMPli1e329vNiH8x/hXHisvw+KX7yOvfqdNDF1qHwPTt0MG+sruxm8q7t5IX9GHX6etV69Ytb7S9atCIpYLuFuqnnH1B6Viat4MtJsyafK1u5/gb5kP9RXzOL4dqw96g+Zduv8Al+R7WHzeEtKit+RwVR3MEFzA0NxDHNEwwyOoYH8DWpqmjajprH7VbME7SL8yn8RWfXgVKc6UuWaaZ6sJxqK8XdHP2uhX2hXBu/BmtXOhyk5a3B821kPvG3T8MV1Wk/FvUdHxB480KSCMcHU9OBmtz7sv3k/KqtBr08JneJw+jfMvP/M4sRltGtqlZ+R6voOuaPr9gt9ouo219bn+OFw2Pr6fjWvb3VxCfkc49DyK+cbrwrZC/Op6PcXOh6iORc2D+Xk/7S/db8RW9pHxE8a+HdsPiTSo/EFgnBvdPXbcKPV4ifm/4DX02EzvDYjST5X5/wCZ4tfLK1HVaryPoG31ON+JQYz69qvIyuu5SCPUV5v4Q8c+FvFcW7RdWhlmH37d/kmQ+hRua6WCaSJsxuVr1XBPVHCpNbnSUVm2+p9BMn/Al/wq/FNHKMxuGHsahxaKTuPooopDCiiigAooooAKKKKACiiigAooooAKKKKACiiigAooooAKKKKACiiigAooooAKKKKACiiigAooooAKKKKACiiigAooooAKKKKACiiigAooooAKKKKACiiigAooooAKKKKACiiigAooooAKKKKACiiigAooooAKKKKACiiigAooooAKKKKACiiigAooooAKKKKACiiigAooooAKKKKACiiigAooooAKKKKACiiigAooooAKKKKACiiigAooooAKKKKACiiigAooooAKKKKACiiigAooooAKKKKACimSyxxLukcKPes641XqsC5/2m/wpqLewm0jTd1RdzMFHqTVC41OJMiEbz69BWVPPLK26Ry1cl42+IPhTwhH/wATnVI0uG+5axDzJnPoEHNaKCWrI5m9jsZ7qec/O52+g6Vz/inxRoHhiya917VbWwiHTzZAGb2UdT+FeQ6x8RfH3ifMfh2wj8Maa3Au71RJdOPVY+i/jWJp/hPT477+09SluNZ1MnLXd+/mtn/ZB4X8BXkYvPcLh/dh7z8v8zvw+V162stF5nTaz8W/EGvEweBdAa3tm4Gq6opRMf3kj6tXLv4YfVbwah4v1a78R3YO4C5OIIz/ALMQ+UD65rowKUCvl8ZnWKxOl+Vdl/me7h8toUdbXfmMijSKNY40VEUYCqMAfhTwKcBWxo/hzU9Sw8cPlQn/AJaScD8O5rzaNCpXly002zsqVYUlebsjHArQ0rR9Q1J8Wls7rnlyMKPxrutH8H6babZLrN3KP73CD8P8av6xr+j6JEEuriOMqPlhjGW/ACvpMJw3OXvYiVvJb/f/AMOePiM5itKSv5sx9G8EW0O2TUpTcP8A880+VR+PU/pXQXV5pGh2f72S2s4R0UYXP0HU153r3xFvbktFpUItY+nmPy5/oK4u9vJ7qUzXUzyyHqztk19NhsHQwqtSjb8/vPErYmrXd5u56Dr3xHHzRaPbZ6jzpR/Jf8a4fU9W1DUpTLfXckx9CeB9BWahklO2GNnPsK0LTR5pMNcMQP7q/wCNdO5gUjIWOxAWb0AqxbabdXBBkPlKe3U10enaXHGMJGFFa9vYgDgU7Cuc9ZaLDHgiPLf3jya1IdPAxha24bMelWUtQO1UIxY7L/ZqdLH2rZjth6VMtvx0oAwvsQ9KY9kP7tb7QD0pjQD0oA5mexBH3ay7rSUkzvQEfSuze2BzxVaW1yDxQB59daLLESbeQj/ZbpVCQzQNtnjZPft+dehz2Y9KzrqwVlIKAg+oqbDucnZ3s1vIJbW4khkHRkbBrs9B+Id/bbYtUiF3GP8AlovyuP6GuavdCXJaEmI+3T8qyZ4bu0P72Msg/iXkUrNDue76N4h0bWI9ttcxs5HMMnDfketQat4T0u+y8C/ZJT3jHy/98/4V4bDcDIdGwR0IOCK6vQfHWsabtjmkF5AP4ZfvD6NWNfD0sRHlqxujSnWqUneDsa+r+GdU07c5i+0Qj/lpEM4HuOorFx616HoHjfRdUCxtN9luDx5c3GT7Hoav6poOl6mC8kISQ9JYuCf6GvncXw4n72Hl8n/mezh84e1VfNHltFdLq3hDULXL2hF1EOy8OPw7/hXOSxvG5jkRkdeCrDBFfNYjCVsM7VY2PYo16dZXg7mJrXhvSdVlFxPbmG8X7l3bsYpkPs68/nmrekeJfiD4V2r9oj8Waav/ACyuSIrtF9A/R/xxV6itsLmWIwvwS07PYzr4KjX+Ja9zsPCHxS8K+IJxYvcvpOqD71jqC+TJn2zw34V26OykMjEH1BrwnWdH0zWLcQalZQ3KD7u8cr7g9R+FVdKfxp4TI/4RjXTf2K/8w3VSZFx6JL95fxzX0+E4io1PdrLlf4Hi18pqQ1pu6/E+j7bU5UwJl3j1HBrSguYZh8jjPoeDXiXh34w6NLPHp/iqzuPDWoMQo+0jMEh/2ZRx+eK9JtbmK4hSe3mSWJxlXRgQR7EV7kXCrHmg7ryPMkpQdpI6qisW3v5o8BjvX0NaFvfQS4G7Yx7NScGgUky1RRRUlBRRRQAUUUUAFFFFABRRRQAUUUUAFFFFABRRRQAUUUUAFFFFABRRRQAUUUUAFFFFABRRRQAUUUUAFFFFABRRRQAUUUUAFFFFABRRRQAUUUUAFFFFABRRRQAUUUUAFFFFABRRRQAUUUUAFFFFABRRRQAUUUUAFFFFABRRRQAUUUUAFFFFABRRRQAUUUUAFFFFABRRRQAUUUUAFFFFABRRRQAUUUUAFFFFABRRRQAUUUUAFFFFABRRRQAUUUUAFFFFABRRRQAUUUUAFFVrq9t7cfO+W/ujk1l3OqTS/LEPLX261Sg2JySNie5hhH7xwD6d6zLnVHbKwLtH949azJpUjjeaeUIijLO7YAHqSa8z8UfGXw9Y3UmmeHLa58TamvBishmKM/7ch4AqpclNc03oSuabtFHp8kjOS0jknuSa4Pxn8VvCfhuc2K3TatqvIWx09fOlJ9DjhfxrzHWLnx14vLf8JJrn9lae/wDzDdKbbkejy9T9BxVjRND0rRYPJ0yxhtgfvMoyz+7MeSfqa8LGcRUKXu0VzP8AA9TD5PUnrU0X4jtZ8UfETxduR508I6Y3/LK2PmXjD0L9E/CqmheGdI0iRp7a2827fl7qdjJMx93PP5VtAcU4LXy2LzPE4v8AiS07LY9zD4Kjh/hWvcaBTgKlt4JZ5RFDG8kjdFUZJrqdH8E3txtkv5Bax/3By5/oKyw2Cr4p2pRv+X3mlbE0qKvN2OTRGZgqgknoAOTXQ6P4S1O+w8y/ZIj3kHzH6L/jXdado+laPEXhhRCo+aaQ5b8z0rA8Q/ELRtNLRWha+uBxiM/IPq3+FfT4ThuEfexEr+S/zPExGcyelJW82bGkeGNK00B/K8+Uf8tJcHH0HQVX1/xjoekBo3uBcTjP7qH5iPqegryzX/Gut6vuSS5NvAf+WUPyj8T1Nc20wznPJr6OlRp0Y8tONkePUqzqS5pu7Oy134ga3qLtHa7dPt+gEZy5Hu3+FcrJOWYvI5ZiclmOSaLWzu7ojYmxT/E1ben6BEpDSgyt/tdPyrS1zNsxreO4uT+5iJX+8eBWvYaCXIa4Yuf7o4FdFa6eqgAKAK1LazAHSqsK5kWmmpGAqoFA7AYrRhsfatOK2GelXoLcelMRnW1lt7VeitwO1XUgGeBUyw0AVY4B6VKkPtVlUAp4UUgK6w0/yhUF7qVpa8PIGb+6vJqqt1qt3zbWywp2MnU0XAvmKmNDVP8AtK8szjULQ7P+ekfIq9bXltdrmCVW9u9FwIGiFRPCMcCtBl5phQd6AMiW3z2qpLbZ7VuvFnoKrywe1MDm7i068VnXFiDn5a6uWCqc1sPSgDhdQ0SJyXRSj+q8Vi3Nhe2xJx5qjuOv5V6PPaA9qoXFkD/DSaC558JsnDcEdjW9oHizWdHKrb3bSQj/AJZS/Mv/ANarWo6PDLkvGM9iODWFeaRcQfNCd6+h4NTaxSPVvD/xF0q9KxakpsZTxuJ3Rn8e341091ZaVrFuryJDcIR8siHJx7MK+cWkKNskUo3oRWno2varpMgk069kh9VzlT9QamcYzXLJXRUZOLvF6nqereCpk3Pps/mj/nlJw359DXLXlpc2kpiuoJIXHZ1xWv4d+KEL7YdbtTG3TzoeV/EdR+Fd3b3Oka7Zbont72Ajno2P6g14OL4eoVfeovlf4Hq4fNqsNKmq/E8mNJXeat4Kt5d0mmzeS3Xy5Mlfz6iuR1TSb/TX23duyDs/VT+NfM4vLMThfjjp3W39ep7VDG0a+kXr2Mu8tba7t2t7q3inhcYaORAyn8DWJY6Lqvh2c3PgzXbnSTnJs5SZrR/bYT8v1FdFSYrnw+KrYeXNSlY1q0KdZWmrlvRvi9c6cy23jvQpdOGcf2jZ5mtW92/iT8a9P0XWNK1uxS90jUba+t2GRJBIGH446V5G6qylWUMpGCD3rn5fC8NrenUfDt7deH9QJyZbJ9qOf9qP7p/IV9JhOJPs4iPzX+R4+IybrSfyZ9I295PBwr5X+63IrSt9ShfAlHlt+lfPmkfEzxZ4exF4t0cazZr11DS1/eAerwn/ANlr0rwh4x8NeLLXz9C1WC6IHzxA4kT2ZTyK+jo16OJjzU5Jnj1KVSi7TVj0ZWVhlSCPUUtc3DPLCcxuV9uxrRt9VU4WdcH+8vSrdNrYlSRp0UyKWOVd0bhh7U+oKCiiigAooooAKKKKACiiigAooooAKKKKACiiigAooooAKKKKACiiigAooooAKKKKACiiigAooooAKKKKACiiigAooooAKKKKACiiigAooooAKKKKACiiigAooooAKKKKACiiigAooooAKKKKACiiigAooooAKKKKACiiigAooooAKKKKACiiigAooooAKKKKACiiigAooooAKKKKACiiigAooooAKKKKACiiigAooooAKKKKACiikZlUEswAHcmgBaCQOSaoXOpxJkRDzD69qzLm7nn++52/3RwKtQbJckjWudQgiyFPmN6Csy5v7ibI3bF9FrmvFPiLSPDlp9s1nVLWxgHeaQAn2A6k/SvM9X+Leua3m38C+H2WBuP7V1MGOL6pHjc316VNWrRw8eapJL1HTp1KrtBXPW9V1LT9Ls3vNSvYLS3QZaSZwqj8TXl2vfGWC7lez8A6PNr8wODeSAw2iH13tgt+FcXJ4Xl1e9Go+MNWuvEV1ncEnO22jPosQ4x9c10MMMcMaxQxrHGowqquAB7AV87jOJIr3cPG/m/8j2MPkzetV28kYGp6Z4g8VSifxvr015HnI06zJhtV9iB8z/ia2NOsLTTrZbWxtYraBfuxxqFH6VbC04JXzGIxdfEyvVlc9qjh6VFWgrEYWlC81paXo9/qL7bW2d17uRhR+NdfpHgm3i2yajMZ36+WnCj8ep/SujCZXicVrCOnd7f16GVfHUaHxPXscPY2N1eyiK0t5Jn9FH9a67R/A7NiTVJ9o/55RHn8T/hXS3t7o3h+zzcTWtjCOijC5+gHJNcF4i+Kgw0Oh2vt5839F/xr6jCcPYej71V8z/A8PEZvVqaU/dX4noMcOlaFaFwILOID5nYgZ+pPJrjfEXxNsLYtFo8JvJRx5j5WMf1NeWavrGpatOZtRvZbhuwZvlX6DoKpKzO21FZ29AMmvdjGMFyxVkeXJuTvI29d8S6xrTk394xTtEnyoPwrGMnzYAyfQVes9IuLggzHy19Bya6HTNFhhwUjG7uTyTVWbJOdtNKvbjBZfKU+vX8q39O0KGLDbCz/AN5uTXRWtioUZWr8NoOOKqwrmZZ2AHatKC0A7Vfgtcdqux2w9KYihBbYPSr0UHtVmKDHarKRD0oArRwe1WY4sCpkjAokZIwWdgoHcnFIAVcUpwBk8Csi612Iv5FhE11L0+ToPxqJdN1O/O+/umhjP/LKOi4Fm91i2gfyoc3E3ZE5/WoUg1fUT+/YWkJ/hX7xFaNpY2tmu2CFVPdscmramkBTsdJs7QApHufuzcmrvSlptMBWwwwQCPSsm90S3nfzYC1vL1DR8c1q0UMDn2m1jTeLiEXkA/jX7wFXbHVLG8wI5Qr90bgitJ+etZeo6PZXmWaPy5OzpwaANDaMVFIgrDZdb0kfIxv7cdj94CrVhrtjdkRyMbeb+5JxzSAtPHzVeSEelaG3cMg5FRvHTAy5IfaqstuD2rYePPaoJIvai4GHNag9qz7qyBBGK6V4s54qtNb57UAcVf6VHKpWSMMPcVg3ugyRgtbSEf7LdPzr0Wa1BzxVKezBB4osO55jMJ7d9k8bIfXsfxqbT9QurGcXFlcyW8o/iRsV2t3pqOCGQMPQjg1zupaAgJa3JiPpjK1LQzqfDvxTvbYrDrVstzGOPOiG1/xHQ16TofiPQ9ftyLK8in3D5oXGG/FTXzjdW11bZ82Ilf7y8ioIbh4pFlhlaNwchkbBH4ilcZ9E6t4Q028DSWpNpL/s8oT9P8K5DVvDuqablpIPNiHSSP5h+PcVzXhr4na3pm2K/wAalAOD5hxIB7N3/GvT/Dfjvw9roWOK6W2uCP8AUzkKfwPQ15OLyXC4nVLlfl/kd9DMq1HRu68zz6kxXqGq+HNL1EFzCIZT/wAtIhjP1HQ1yWreEtSs8vbgXcQ7oPm/L/CvmcXkmJw+qXMvL/I9uhmVGro3Z+ZzZFYes+F9K1K6F6YpLS/U5S8tH8qZT67h1/HNdA6MrFWUqw6gjBFMxXlQnOlLmg7M7pRjNWkroo6R4u+IXhYiO4EPi3TV4+YiG9QfX7r/AM69A8IfEzwn4llFpBfGx1Effsb1DDMp9g3X8K4wis3WtC0rWYhHqNlFOV+5IRiRD6qw5H4GvfwnEVan7tZcy79Tyq+UU5a03b8j3qN3jO+Nyp9RWhbaq4wsy7h6jrXzjpN7468J4/sLWv7asF6afqjEso9El6j6Gu28M/F7w/e3Kaf4hguPDWpMcCK+4ic/7Ev3WFfTYbMMNi17kte3U8WvhK1B+8tO57Vb3MM4/duCfTvU1ctBKksaywyK6EZV0bIP0Iq7b6lPEcP+8X36/nXU6fYwUjcoqtbX0E2AG2t6NxVms2rF3CiiigAooooAKKKKACiiigAooooAKKKKACiiigAooooAKKKKACiiigAooooAKKKKACiiigAooooAKKKKACiiigAooooAKKKKACiiigAooooAKKKKACiiigAooooAKKKKACiiigAooooAKKKKACiiigAooooAKKKKACiiigAooooAKKKKACiiigAooooAKKKKACiiigAooooAKKKKACiiigAooooAKKKiuLiGAZkkA9u9AEtMlljiXdI4Ue5rKutVdsrAu0f3m61nySO5LyOWPqTWipvqS5Grc6qoyIFz/tGs2eeWZsyOW/lXC+MPih4U8OSmze8bUdTP3LGxXzpSfcDgfjXn2seKviD4r3Ro8fhLTG/hhIlvHX3b7qH6VhiMZh8Ir1JW/M0o4etXdoI9R8ZeOvDHhKLdreqRRSn7lunzzOfQIOa821j4i+N/EoMXhnTU8Oae3H22/UPcMPVIug/4FWVofhjSdKmNzDA094/37u4YyzMfdj0/CttUr5nF8SVJ+7h1bze57OHyaEdarv5HOWXhSx+2/wBp6tNca3qZ5N1fv5hB/wBlfur+AroQvtUoSnpGWIABJPQCvnatWpWlzVHdnrwhCkrQVkQ7Kdtro9J8Kale7XlT7LEf4pByR7DrXX6T4a0vT8P5f2iUfxyjOPoOgr08JkmJxGrXKu7/AMjjxGZUaWid35HCaT4d1PUtrRQeXEf+Wknyj/E12Gk+D9PtCJLrN3KP73CD8O/40nibx14e0FWjmu1uLkD/AFEB3N+J6D8a8r8T/FDW9ULQ6eBp1uf+eZzIR7t2/Cvp8JkmFw+rXM/P/I8SvmVetonZeR6/r3iLQvD0GL27iiIHywxjLn6KK818SfFS/ud0GiQCziPHmyANIfoOg/WvNZJ5JZDJNI0jsclmOSfxqe0tbq6OIYmI/vHgV69zzyW+vbm9nNxeXEk8rdXdsmo4UmnfZDGzn26Vt6f4dDENcMZD6DgV0djpaRKAqAAdgKEgOXstBlfDXL9f4V/xrotP0qKFQqRhfpW3b2IwOK0ILMDtVCMq3sQMfLWlbWntV+K0HpVyG3A7UCKkNv7Vbit/arSQgDpU6RincRFFCB2qdYxTwuKjurq3tYy88yRr7mi4yZUxSTSwwRl5ZFRR3JxWBNr1xdyGDSbV5T08xhhRTo9CmumE+q3TTN/zzU4UUrhYludeM7mDSrd7iTpvxhRTYNHvL5hJqt0SOvlRnAFbFrBDbRCOGJUX0AxUynmgBlpZ21pGEt4VjHsOTU9JRmmIa1C0p5oUUAOppp1I1FwG9qM0lFIAprUtIaAGH3qhqOk2d+P30Q3dmHBFaQ5ppGKAOZNprWlEtYzfaoB/yyk6ge1WbDxJZzyeRdo1pP0KyDj863Dg1S1HTLO/QrcQq3occj8aALShXUMpBB6EGmvGDXNtper6U5fSroyxf88ZefyqxZeJYvMEGpQtaTdPmHymgLGq8PtUUkOR0q3HLFMgeJ1dT0IOaGGaAMqWDtiqz2/tWzJGDUDxe1FwsYNxbDHSs65tAe1dNNB7VTlt+vFDYzkrqxGCNtc9qWgQyksimN/Vf8K9BuLXOeKoTWee1IZ5deaVeW2Ts81B3Xr+VUA+G7gg16jc2AweKwdS0SCckvHhv7w4NJodyt4Z8f8AiHQysaXRurYdYZ/mGPY9RXqXhf4oaBquyG9ZtOuTxiXmMn2b/GvFL/Q7q3JMR81fToay3DIxV1KsOxGDRdjPqq/0zS9WiDzRRyhhlZUPP4EVyureC7mLMmnyidevlvw3+Brxjw74r1zQJA2nX8ix5yYnO6M/ga9T8L/F3TrrZDrtubKQ4Bmjy0ZPqR1H61w4rLsNivjjr3Wj/r1OmhjK1D4Xp2My6tp7aUxTxPE4/hYYNQlfavWY30jXbESRvbX1u3RlIbH49qwNW8FI2ZNNnKn/AJ5Scj8D/jXzWL4erU/eovmX4ns0M2pz0qaP8DhCtVdQsbS/tmtr22iuIW6pIgYfrW1qGmXthJsu7d4/QkcH6HpVMrXgypzpys1Zo9SM4zV1qjnNO03XvDEnneC9emsI85NhdEzWrewB+ZfwNdbo3xgSzZLXx1o02jSZ2/bYP31o5/3hyv4iqbLUckauhR1DKRggjIIr1sJnmJw+knzLz3+84a+WUausdH5f5Hr2l6jp+qWaXmm3kF3bv92SFwyn8RWlbXtxDgBty+jc183jwyNOvDqHhjUbrw/eE5JtT+5c/wC1EflI+mK6TSfih4k0PEPjHQ/t1qvB1LS1LYHq8XUfUcV9PhM6wuJ91vlfZni18ur0dbXXke/W+pQyYEn7tvfpV1WDDKnINefeFvFfh7xPai40PVra8XuqNh09ip5Fb8M80B/duQPTtXpuCeqOLmtudHRWbbaopwJ12n1HStCKRJF3I4YexrNpopNMdRRRSGFFFFABRRRQAUUUUAFFFFABRRRQAUUUUAFFFFABRRRQAUUUUAFFFFABRRRQAUUUUAFFFFABRRRQAUUUUAFFFFABRRRQAUUUUAFFFFABRRRQAUUUUAFFFFABRRRQAUUUUAFFFFABRRRQAUUUUAFFFFABRRRQAUUUUAFFFFABRRRQAUUUUAFFFFABRRRQAUUUUAFFBIHU4qnc6hBFwp3t6Dp+dNJvYTdi5Ve4vIIOGbLf3RyayLnUJ5sgNsX0WszUL6z061e7v7qG2gQZaSVwqj8TVqn3Jcuxr3GpTSZWP92vt1qhNKqK0s0gVQMszHAH1JryzXPjBbXEj2fgjSZtenB2m6fMVoh9S5+9+Fcbqdj4h8Uv5vjPXZbmEnI06yJhth7HHzP+JFcWKzTC4TSTu+y3Omhga+I1S07s7/xP8XvD2n3L6doMNx4j1NeDDYjMaH/bk+6orh9XvfHPi3I13Wf7G09/+YfpjYYj0eXqfoKu6dYWen2q21jbRW8K9EjUKKtqtfMYviDEVvdpe6vxPbw+U0qes/ef4GXomhaVo0Jj02yit8/ecDLufVmPJ/E1pqlSKtWrGyubuUR20Dyv6KM4rxEp1ZdW38z0rxhHsiqEqWCCSaQRxRtI7dFUZJrsNI8Fu2JNSm2D/nnGcn8TXTRQ6Volo0gEFpCo+eR2x+ZNe5hOH69XWr7q/E8vEZrThpDV/gcfpPg68uMPeuLaP+71c/h2rrtO0bS9Kj3xQorKMtLIct+Z6Vwfi34xaJpu+DRkOpXA43nKxA/Xqfwrx/xV488QeInYX98whPSCL5Ix+A6/jX0uFy3DYXWEbvu9zxq+MrV/ienY908V/E/w7ou+G2lOo3IyNkJG0H3bp+Wa8m8VfEjxDrhaIXJsrU/8sYDtyPduprgVld2AUEk9AK19O0a8uSDIPJT36/lXfds5SEzMxyWJJ65q/YabeXZGxCiH+JuK6DStBtocMELv/ebk10NpZhQMCgDC0zw9DGQ0uZW9W6flXS2VgqoAFAH0q3b2/IwK07eAADimhFa2sgMcVoQ2wA6VYhhAFW4oqYEEMA9KtxQD0qWOLFTqtAiNIgO1SontTlFQX2o2Vim65nVPbqT+FFwLIWoby9trKMyXMyoPQnk1iSatqmpEx6ZbGGI/8tZP6U+z8Ox+YLi/le6l6/MeBRcBsut32oMYtJtWC/8APaQYFOtNA8yUXGqXL3UnXaT8orbSNIkCIoUDoAKM0APt44oUCRRqgHYCpd1QhqN3vQBLmnrUIanBqBE/ajNRhqcDRcLDgaXimE4oBouFh+RQabmkLUXCw7NNJGaaWprNRcLDiaTNRluaA1FwJc8Uh6U0NSk5ouA00UppKLjENVL2xtryMpPCrj3FXCaaTgUBY5WfRL7TpTNo92yjr5LnINSWviVoZBb6vbPbSdN4Hymuhc1VvLa3uojHPErqexFICaC4huEDwyK6noVOakK561yr+HprKQzaReSwnqI2bK1Nb+ILmzcQ6vbNH281BkGgLHQvGDVeSEGprS8tryIPbzJID6GnOKAM6aAelVJLcela0gzVeRR7UAYs9sMdKz57UE9K6KRAaqyQg0BY5meyB/hrK1DSIbhcSxK31HIrs5LcelU7i2GOlAzzLUfDskZLWsmR/cf/ABrDuIpoH2zRsh9x1r1a4tM54rNvdOjlQo8YZT2IzSHc4PR9b1TRrkXGmX01q4/uNwfqOhr1Dwp8ZnUpB4hs946G4txg/iv+FcHqvhxQS1sxjP8AdPIrmr61urQ/voiB/eHIouG59Z6Nreh+I7IvYXdveRkfNGcbh9VPIqhqvg+xuNz2TG1kP8PVPy7V8q2ep3NjcLcWtxJBKhyrxsVI/EV6V4T+NGrWQS31iNL+EceZ92Qfj0NYV8NRxCtVjc1pVqlF3g7HZaroWo6cSZ4C0Y/5aJ8y/wD1vxrLK16B4U8ceHPEkYWxv41nPBt5flf8j1/CrWreGtNvcusZt5T/ABR8A/UdK+dxfDr+KhL5P/M9ehm/SqvmjzIrTStdFq3hjUrLLoguIh/FH1H1HWsJlIOCCCPWvnK+Gq0JctSNmevSrwqq8Hc53U/DGm3d0L+3EunaivK3llIYpQfcjhvxzWtpHjXx54awmpxR+K9PX/lpGBFeIPcfdf8AnVkrTCK6cLmmJwukJXXZ7GVfBUa/xLXud34O+InhbxQ5t7K/+z3w4eyuh5U6H02nr+FdfHI0bbkcqfUV4HrWhaVrCKNQs45XX7kg+WRP91hyKdpOqeOfC2F0nVF13T1/5ctTb96B6JKP/Zq+mwnENCr7tVcr/A8SvlFWnrT1X4n0Vb6mwwJl3D1HWtCC4hmH7twT6d68c8M/Ffw9qFwmn6wk/h/UmIH2e+Xarn/Yk+63516BHKHQSxuGU8qyng/jXuR5Ki5oO6PNfNB2kjqKKw7bUpoztfEi+/WtK2v7ebgPtb+63FS4tFKSZaoooqRhRRRQAUUUUAFFFFABRRRQAUUUUAFFFFABRRRQAUUUUAFFFFABRRRQAUUUUAFFFFABRRRQAUUUUAFFFFABRRRQAUUUUAFFFFABRRRQAUUUUAFFFFABRRRQAUUUUAFFFFABRRRQAUUUUAFFFFABRRRQAUUUUAFFFFABRRRQAUUUUAFFFZd1qZDFYUxg43NTSb2E3Y03dUXczBQO5NULnVI0ysQMh9egrKnmklbdI5b61zPizxv4a8LKBq2oos7fctoh5kzn0CDmtORLVk8zex1NxdXE/wB9zj+6OBWL4j8Q6L4esjea1qdrYxAcGaQAt7AdSfpXl2seP/GfiDMegWMfhyxbj7VeKJLlh6rH0X8awbXw3ZC9/tHUpbjVtRJybq9fzGB/2QflX8BXkYvPMNh/di+Z+W33nfh8sr1tZaLzOj1j4qaxq+YPBWhMsJ4Gp6kDHHj1SP7zfXpXLT+H5tWu1vfFmrXWv3AORHOdtunssQ4x9c10GAKUCvmMXnWKxOl+Vdl/me1h8toUdbXfmRQxRxRrHFGsaKMKqjAA9AKlC0oFa2kaBqWpENDBsjP/AC0k+Vf/AK9edSo1K0uWCbZ2VKsKcbydkZYWr2m6Xe377bW3dx3bGFH1PSu20nwfYWuJLsm6kHY8IPw7/jVzWde0Tw9bf6ddRW4UfLEvLH6KK+iwnDs5e9Xdl2W/9feeRiM3itKSv6mZo/g2CPEuoy+a3/PNOF/E9TW3eXejaBY+ZczWthbqO5C5/DqTXlHiz4v3UgeHQbb7MnTz5gGf8B0H615Vret6hqdw1xfXc1xKf4nbP/6q+kw2EoYVWpRt+f3njVcRVrO82eweMPjNb24e38P2nmsOPtE/C/gvf8a8d8TeLdZ12cy6nqM0/ohbCL9F6Csry7m6fbEjMfartp4fZiGu5P8AgCf410XbMTKV5Jn2xqzseyjJrY03Qp5iGuG8tf7o5NbdhYwW6BYo1UewrVt4wMUWGQ6ZpNtbAeVEA3diMk/jW5aWwHaorfAxV+BxTEW7aIDHFaECCqMUgwKtwzD1oCxpW6Cr8AFZcMw45q7DMPWgRpxAVajArOimGOtVr/xDYWA2yS75OyJyTQB0K4FVb/VbGyX99Mu7soOSfwrnFvda1g4gX7Fbn+JvvEVpabolpbsJJAZ5u7yc0XAia/1bUyVsYTawn/lo/Uj2qzY6Dbxv510zXM3dpOa1UwowBin7qYDkVUUBQAB6Cl3VEWxTTJxQIkZqjLgGoJJcVXkuAKAsXTKBTfNyazHusHrTReDPWi47Gwsop4k561jpdg96sR3GaLhY1Eepg1Z0U2asLJx1oFYtZoqASU7f70AS5prPURkqGSUetAE7vUTS+9VJrgDvVR7wZ60XHY1PN96XzayBeAnrUiXQPei4WNVZPepFes1J896mSalcLF7IpCariX3pGl460ATF6Y8lV3mx3qrLcADrRcdi28o9aYZB61nPdgd6j+1j1oCxrK4PeiaKGdCksaup7EZrOiuQe9WEnGOtAGRe6GYZTPpdw9tJ1wD8pqJPEGoaewj1a1Yp/wA9k6VuGQGq9z5cqFXUMp6gigCSz1Wyvot9tOj+oB5H4U55BnrXHaxocXmGfT5mtJuuVPH5VjN4n1nRXCatbm5gH/LaMc0XA9GLg96YSDXNaR4o07U1zbXClu6k4YfhWsl2p70BYusoIqvNGKcs4I60M4IoEUJoh6VRniGK1JiMVRnoAxryEHPFYt7aqQQQCPQ10d1jFZF4QM0DOL1fQreXLRgwt/sjj8q5TUdPvbMltpkQfxJz+lejXm3msa8CnNJjOFg1OWCQMsjIyngg4Ir0jwT8YvEOj7ILqYalarxsuGJYD2br/OuR1LTLS4yWTa/95eDXPXOl3du5aBvNQenX8qLgfXng/wCJ/hjX1SNrgafct/yyuGABPs3Q102o6PpeqJulgQsRxLHw35jrXxHp19NG+1wykHkGvSvBXxB13RdiW187wDrDL8yfr0/CpnCFWPLNXQ4ylB3i7M9m1bwbewZksXF0n937r/8A165eeCWGQxzxvG46q6kEV0nhj4p6RqCrFqaNYzH+P70Z/HqK7SaDTNZtFeRYLuJh8rqc/kRXg4vh6lU96g+V9un+Z6lDNqkNKiv+Z5GRTcV22r+CusmmT8f88pT/ACP+Ncnf2N3Yy+Xd27xN23Dg/Q96+axWX4jCv95HTv0PaoYulX+Bmbf2Nnf27W97bQ3MLdUlQMP1rP0201/w2/meE9entogc/wBn3hM1s3sMnKfUZrZpMVlh8XWwzvSlYurh6dZWmrmvo3xZit2S18ZaPNo0hOPtkZM1qx9dwGV+hr0XTb6x1O1S7068gu4HGVkhkDqfxFeROiuhR1DKRggjINZEWiHTrs33hy/udDuyck2zfun/AN6M/KfyFfS4TiRP3cRH5r/I8evk7WtJ/Jn0LbXtzAcB9y/3W5rTt9Uhk4kBiPvyK8N0n4keINJKxeKtIF/bjg32mLlgPVojyPwzXoPhrxLoXiS28/RtSgugPvIDh09mU8ivoaNejiY81OSZ5FSnUou01Y79GVlyrBh6g0tY+gE+ZKCTjA4rYpyVnYSdwooopDCiiigAooooAKKKKACiiigAooooAKKKKACiiigAooooAKKKKACiiigAooooAKKKKACiiigAooooAKKKKACiiigAooooAKKKKACiiigAooooAKKKKACiiigAooooAKKKKACiiigAooooAKKKKACiiigAooooAKKKKAENeU+LPiJoOi3ctlAZtU1JWINpZpvZTn+Jui/ia9XrxL4n2lrbeNLtra3ihMyRySlFA3uRgsfU4ArizDHSwVF1Iq72OnCYZYipyN2OX1jxD418R7o57uPw9Yt/yxsjvuGHo0h4H/ARVHSdD03TGaS2tx57/wCsnkO+V/qx5rSAp1fFYrMcRin+8lp26H0lDCUaHwLUQClxT4YZZpVjhjeRzwFUZJrptJ8G3txiS+kFsnXaOXP9BWeGwdbEu1KN/wAvvKrYmnRV5uxy6qSQAMk9hW9pPhXU73Dyx/ZYj/FIOT9B1rt9N0bS9Lj3wwIHA5lk5b8z0rI8QeO9G0sNHE5vZx/DEflB92r6bCcORj72IlfyX+Z42IziT0pK3my/pPhjTNP2uYzcSj+OXnH0HSo/EPjDQtEUrcXayzjpDF8zfj2FeV+JvHet6oGiSc2kB/5ZwnGR7nqa4ueRmYkkknqTX0NKjToR5acbI8ipVnVd5u7O48U/E/WL4NBpwWwgPGVOZCPr2/CvPL26nuJWlmleR25LMck/jVy30+6um+SMqp/ibgVsWWgRIA0371vfp+VaEHKRWd1dN+6jJHcnoKv2ugIPmuSXP90cCuvS0VFwFAAqC4QKDQBj/ZY4YwqIFA7AVXchTW/8P/AUPjGPU7u71vVLXyLoxqkEny4xnvXSn4HaQx58Sa6f+2q/4V5dTNqNOTi73R1xwk5K6POluAOM1NHdAd69AHwM0Pv4g1s/9tV/wp4+BuhDrrmtn/tsv+FZ/wBs0PMf1OZw0V6PWrMV6P71dovwQ0Af8xnWj/23H+FWrf4PaJF01fV3Ho0qn/2Wj+2qPZh9TmcWl8P71WYr8etdzH8LNCQf8fmoH6yL/hU6fDTQ1/5eL4/9tB/hU/21S/lY/qcu5xKakijLOAPrVC/8c6VYN5SzfaJ+0cXJzXos3w00WRCguLrB4wxVh/KsKf4Q2VnI1xpiWrP1x5flt/Ufypxzmk3qmhPBy6M5O21PxBrrDONPtT0A+8RXT6FpdnZkPt82Tu78mqFxpd9pkpilhdWXqpHP4etWLG9BxzXp0a9OtHmg7nNOnKDtJHW20gwMYq7G3FYVlPuxzWtbvkVsQXAaXdxUanIpSaBA78VXllx3pZW4rOu5toPNA7D7i4A71m3N3jPNQyPJdyrbQ5LyMFH412sPhbS1iRXid3CgM288n1ry8ZmUcPPk5bnVRw3tI3vY4Ca9IPU1D9uOe9ekjwxpH/Pu3/fZpf8AhGdI/wCfY/8AfZ/xrk/txfyfia/Ul/MedwXpJ71pW13nHNdl/wAI3pP/AD7H/vs/41yvi7Txps7m3UrEVDoOv1Fa0c4VSai42uKWEtFtMswT571dimyBzXKadqKyAYYVt20+4DmvaOE11k4pxeqcb1IW4oCxJJLgVTuLjANNuJdo61h6pfiJSS1AFm6vOuDn6VnS3b54VvyqX4aGDVdevYrhBLGIy4UngHcOf1r0H+w9Kz/x5RfrXhVc4dObjy7HfHBppO55st2/91vyq1Ddt3B/KvQP7C0r/nxi/Wl/sPS8EfYYhn0FR/bUv5B/U49ziobsHjNXIrjPeszxHp82k3bLyU+8p9Vqpa3wIHzV6+GxEa9PnRyVabpyszpln4oaesmO5BHWle4AHUV0mZdmnrOuLo5IByaoalqSxIear+DrxdS1OXdhlS5RCDyMYB/rXLi8Q6FPnSNaNNVJWZYmuJc8Ix/CoHu3jG6QbAO54r1X+ydN/wCfC2/79io5NB0eX/W6VZv/AL0KmvI/tmf8p1fVI9zy6HWrQHm6i/76rTsdShnB8qZXx1weld4vh3Q1OV0ewBH/AE7r/hXgnh/VZTr+shiqwrcBYlB6AFga68JmLr1ORqxnVwyhByTPSvtHvUNxc4HWsWPUFKZLVQ1PV0ijJ3Yr1TjNS6uWbdsy2PSsm7M0ilTCWB7YrO8DeJEudYtoJLfzvOvlQktwAWAxjFe9/wBmWH/Pjbf9+l/wrwa2bzhNxUVoeisGuVNvc+atX8NefIZ7RJLWcchozjn6UzS9S8Z6VOsNzYNqNuOA6sAw/Wvpj+zLD/nxtv8Av0v+FH9mWH/Plbf9+l/wrP8Atqp/Kh/U4dzx/TdcikEazhraV+kcuAa2EuQw4NcB8abWCX4jXdgrm2UQxMhjG3adornrLXvEeggCb/iZWg75+cCvZwleVampyRx1oKErI9elm461QubgDPNcrpXjfStSUKs3kzd45ODS6jq6BThx+ddRkal5eAZ5FczqfiDT4ZWilnKuvUbGP9K0NGs77WJo1gjZ2mO2JP73v9K9n8H+DdM0DTTC1vDc3Mrb55njBLN6DPQDsK8nGZnGhLlirs6qOGc1d6Hzbd+ItPOcTN/37b/Csy41+x5/euf+2bf4V9f/ANm2H/Pha/8Afpf8KQ6dYf8APlbf9+l/wri/tuX8hv8AUo9z4ym1uyP8cn/ftv8ACoV1exLfel/79N/hX2kdPssf8edv/wB+h/hXF+O9a0zT7OeONLaKKMfvptg4/wBke9OOdTk7KH4h9Siup896baQ6nGJPsdy0fTzWhZAP+BHFX28OSR/NbNuH91utaC6zNrGoebsaK3U4hiPYep9z+ldHaRBlHFe5QdSUb1FZnBUUVK0TjIo5oH2SKyMOzCt/QNe1XSJRJYXkkPOSoOVP1HStqXT45l2yRqw9xWbd6EyZa2bH+y3+Nb2ZmeheHPiikm2HWrXYennQjj8V/wAK7yzv9J1u0Jglgu4WHK8H8welfOLJLbttmjKn17Ve06+ubOYTWs8kLjoyNg0bqzDY9n1XwbZz7pLCRrZ+uw8of6iuS1TRNS00/wCk2zeX2kT5lP49vxp/h74iXkAWLVIhdJ03r8rj+hrvtH1/SdYjxa3UbMRzE/DflXjYvIsNX1h7r8tvuPRw+aVqWktV5/5nltFel6t4V0y+3PGn2WU/xRjj8V6VyOreF9TsdzrH9piH8cQyce4618zi8mxOG1tzLuv8j2sPmNGtpez8zBIrPvdHsrm5W78toLtOVuYGMco/4EOv41pEEEgjBHWkxXmQqTpy5oOzO2UYzVpK6PUvg1BrQ0GW61bVf7QSSQpbFkAkCKcHeR1Oc/hXeCuV+FXPg2D2lk/9DNdVX6JhKkqlCEpO7aX5HyNeKhVlFbXYUUUV0GQUUUUAFFFFABRRRQAUUUUAFFFFABRRRQAUUUUAFFFFABRRRQAUUUUAFFFFABRRRQAUUUUAFFFFABRRRQAUUUUAFFFFABRRRQAUUUUAFFFFABRRRQAUUUUAFFFFABRRRQAUUUUAFFFFABRRRQAUUUUAFFFFABRRRQAV4v8AFQ58aXHtFGP/AB2vaCcCuE1fQtO1TXZdVuleQuFURk/KMDHbrXnZng6mMoqnT7nXgsRDD1HOfY8z0+wu76Xy7S3eVs87RwPqe1dZpPgo8Pqc+PWOI/zb/CunuLnTtKtsSSQWsSjhRgfkBXJ6147VA0emQbj/AM9JOn4CscJw/Qpa1fef4GuIzarPSGi/E6y3ttN0e1Zo0htYgPmcnH5k1zOvePtPtC0WnRtdyjI3H5UH9TXA6vq19qEhkvLmSU9gTwPoKx5ZcnC5Y+g5Ne7GCguWKsjypScndmtr3iXVtWLC6umEeeIk+VR+Fc7PJ2z1q/Bp13cH5x5S/ma1rPSIoRlUy3948mqsK5zUGnXVyw+Xy1Pduv5VsWOiQxEMyb29WrobSxweRV+OzHpSsBjQWYH8NT/Z8DpWwtqB2prwYHSkMwp4cA1jaj8oNdVdQ/KeK5vV02q1IZ2nwOthDo+psvSS73f+OivRAtcb8HotmgXBx1nH/oIruAvtXw2I96rJntwdopEe00bamCVl+LriWx8N3t3BMIJI0BWQgfLlgM88d6xkuVNvoVF8zSXUvhadt9q+MfFn7Qvjzwn8WHgu7yPUtBhwGt4BEfMUr94MBw2ex9K3P+GvLb+Hwvq5/wC2sf8AhXQ8JX5YyhByTV9Lfq0Tzwu1KSTXqfWe2lCV8hXn7YF1GCbPwddSHt592qj9ENbnws/a5sdZ8RppXjXQ4NFt7hwkN7BMWSMngCUMOB/tDp6d60hgcS4tum1936NkTqwjtK/3n1FspdlSxlXRXQhlYZBHII9acFrn5Rc5m6pplvqNuYp05H3GHVTXj/i+zfS9SkMcT5h/4+CB8oz0P417ltNch8SYbJbRXvJI4kmRoWLkAEY9/wAa3oYiWGmqi+YnFVVyM4HRb9ZAuGzXUWcmQK8c8Havm5mtmkDNbytExByDg4yPr1r1LSLgOg5r7KMlKKktmeU04uzOhjORTmPFQwtx1qR24qhFW7kwDXPard7Aea1dSkwp5rkdSlM92kAP3mwfp3qZSUYuT2Q0m3ZHYfDixN1f/bZBlYl3D/ePA/qa9D2VleCNPFloMRZdrzfvD7DsPyrc218ZVm603N9T1U1Fcq6EGykQK6hlIIPQima1ciy0q4ueMoh2/Xt+tZXgO6+06GI2OXgcofp1H8/0rldSKqql1auaqEnTdTombOysTxjYi40zzgMtCcn3U9f6V0W0elNmhSWJo3GVYFSPY1tymamfN4nk07W57FycI/yZ7qeRXYaVd70HNcz8UrJ9P1iK5xho2MEh9RnKn+dS+G7zei89q+vwVf29CM+vX1PMrw5KjR31vJlc1KzYFZtnNlRzVp5PlrqMyrqE21TXCeKr5kjfBrrtUf5TzXnPi+X5WoEdn+z8ZZtdvJHIKtaZHr99a9q2V4t+zid+p3H/AF5f+zLXuG0V8PKTqTk33Z7lRKnZLsiDZShKm2+1Lto5TPnMfxDpSalYNHgeavMZPr6fQ14vrCy6TqBikBVGYgZ/hI6ivoDbXBfFbw4t3p0l/CnIH73A5U9n/wAa7cHiXhp36PczqQVWNuvQ4S01AMB81S3F8AhO7tXDw38lrO9vN8siHBqzNqYaP71fVJqSujzHdOzHeI9TIRsNS/CG9mm1OXbIQDqEYIHfha5PxBe7g3NbnwKfzL6Y9f8AiZRfyWvGz6TjhLruj0MtinW17M+qtlG2p9tG2vD5TXnINlfCvw/8VX2oeJfEsd55Q+z6gyoUXHG9+vPtX3jtFfnH4Fk8rxh4tUH/AJiT/wDocletlMFzttbHPiJvlse5Q6sfKxurB8Qao7Iw3VnwXR2daytXuCynmvoDiRy/hzxZrln8YPDOlWl80VnPqdt5kYRfm3TAHkjPSv0N2V+Z2iv/AMXt8KN/1FbT/wBHiv04K8181mNOKlFpbno05vZsg2CjZU22jaK8zlNeY+Xf2g5Ps3xPmlHH7iLn/gNcvaakrR4LV0H7VTfZ/G8svT9zB/I15Lb6rhfvV9HlD/cP1ZzY1e/H0R0mvWlhdhn2+XL2dODVz4ZeHNe1jVN1xcPNpETBQD96VuyD29ay/CVo3iLWYrN7gQW2f3sx7D0Hua+uPh74TttH0+CQ26x7EAgjx9wep9zSzDHez/d0/i/ImhRuueW35kvgrwzFotqJpY1+1yLhsdI1/uj+tdEUqxtFIVr51q+52cxXKUxlqyV9q5fxrrkVhp9wqXKQBEJlnJwIx9fWo5blqRT8Z+IYNPs51E6xRxqTNMTgKPQe9fPfiPVrrxNqHAaOwjbMMR6k/wB5vf27VZ8R67eeKbtIwGjsIj8kfeQ/32/oO31q7pOmBQPl/Svo8uy9Ul7Sa1OLEYjm92OxFo2mbMYWuqsbYhRxT9PsgMcVt21rgDivYOIpxW3HSnPa54xWvHbYHSnm3HpVEnN3GnpIpDICD2NY11oe0loCUPp2rumtvaoJbUelOwjzyWG4tW/fR8f3hyKnt5irB0cqw6EHBrrbmxDZytZN5oqsS0Y8tvVRRYLmxoPjfVrArHO4u4R2k+8Poa7vRfFulamFXzfs8x/gk4/I147Ja3Vt99N6juv+FPgkB6HmgZ7Zqmi6ZqY3XEC7z0kT5W/PvXKar4MvIcvYSLcp/cb5X/wNc7o3iPVNOwIbgvEP+WcnzL/9au20bxpY3W1L1DayHv1U/wCFefi8rw2K1nGz7rRnXQx1ah8L07M6f4YQzW/hZYJ42jkSeTKsMEc11NYnh64innZ4ZVkQx5BVsjqK260pUVQpxpp3srETqe1k5vqFFFFaEhRRRQAUUUUAFFFFABRRRQAUUUUAFFFFABRRRQAUUUUAFFFFABRRRQAUUUUAFFFFABRRRQAUUUUAFFFFABRRRQAUUUUAFFFFABRRRQAUUUUAFFFFABRRRQAUUUUAFFFFABRRRQAUUUUAFFFFABRRRQAUUUUAFFFFACNkggeleTeMda1vTbt7IW32T0kPzFh6g9K9aqlrGl2erWjWt7CJIz0PdT6g9qqMrEyVz53vJ57iQyXEzyOepY5qjI5J2oC7egrtPHfgm+0hHuLUNcWf/PQDlf8AeH9azPDelk6VFJIuXbJJ/E1urPYyd0YUOmXE5zKdq+g61rWWkxx42xge/eugisQvG2rUVoB2piMmGxAA+WrKWYHatdLYY6VItvg9KQGbFbAdqnWEelXRCB2pfLApMopGIelQSpV91qvItSwRlXafKeK5jWk+Vq6jVJ4LaFpJ5UjUd2NebeKfEk9xvg0W0adunmuMKKRR7Z8Kotvh9/eXP/jq12IWuU+FSuPC8Zk++SN312LmuvAr4iWsmz127DQtcD+0VZW198EPFdvdyPFD9hLl0PKlGVgfzUV6FivNv2opDF+z/wCMXBwf7P2/m6j+tVBNyVtyObXU/NCDPlnnvVyNW7GqtoP3X/Aq0YV9a+uSucDZHskx1qvcwl1J43Doa09ox0qtdDZEx9qrlQrn6G/sh+IbrxJ8B9Cub6Rpbi0MlkzsclhGxC/+O7a9bxXln7KPhe78KfAzQNPv42iup1e8lRhyplYsAf8AgO2vVcV8liLe1ly7XZ2RbsNxXmH7QGpW9np+j2kjDzLi5cqp7hV5/mK9R4r4b/a8+IeoX/x4sNG8PXaPDo0C25TG5DM53SZ+g2j/AICazjhnib00+htQrKlUjN7Ifod2lt431K3iOIy4ZQO2CR/hXtPhq63RJzXzz4XkabxFPdE5JUAn3zmvcPC0pESc19ZgYuOHjF9Dz8W060mj0S2myoqSWUBetZdpN8g5pbq42p1rqMCprV0FQ81ieFLZtX8UwWozh5AGPoo5Y/kKr+IL7CNlu1dN+zvZ/bX1LX3GY0b7Nbn1PVz/AOgj8683NKnLR5F9r8jowq97mfQ9gRFRAqjCqMAegpcUuKDXz1jqucl8Sb1YNNiti4UOxkck4AVfX/PauO+APjbSfFsMt5pMpa3leSEq2Mq8Z7/VTkexFcF+2d44/sPwxeWVrNtu9QP2CAA8hMZlb8jj/gVfPn7J3j8+DPiLbWN5Ns0zUpFRyx4jlH3G/HO0/X2rhp4CeIVTGx+y9F3S+L/geh6LrRpwjh39pa+r2P0dxRihGDqrKcgjINLiu08655D8ftOAhjuVQlblCpI7SLyD+WPyry3wtfkYUnBHavoz4k6QdY8IXtui7p4l86H/AHl5x+IyK+V45TZ6vInRWO4fjXo5PXcK8qMtmrr9R4mkp4dVFunZ/oevaXdhkHNahlyvWuJ0K93IvNdJHcAx9a+jPLG6pJ8h5rzbxdJw1d1qk/yHmvOfFcmQ3NMOp6V+zOd2p3P/AF5f+zrXu+K8D/Zffdq90vpY/wDs617/AIr4eC96fq/zPcxb95ei/IZilxTsVV1S9i0+1+0TD92HVWPoCcZq5SjCLlLZHNFOTsiximyxJLG0cih0dSrKRwQe1PUqyhlIYHkEd6Wq0Fc+X/jR4WuPDWuPNCHe0my8DnnK91PuP5Yrz4arlPvV9ieO/Ddr4p8Oz6XcYRz88EuOY5B0P07H2NfEnjSwvfD2tXFheQtDJFIUdD/Cw/oeoNenlWJdN+wk9On+X+RWIgqsPardb/5/5i6tfblPzV3H7O0nmXVwf+olF/6CtePXl9uU816r+zLJvluj/wBRKH/0FafEP+5v1X5jyv8Aj/Jn2VijFOGKDXmEXG4r82PCzbPHHi0f9RKT/wBGSV+lFfmloR2+PfFw/wConJ/6Mkr1cq+KRjW2O9il+TrWZqsnymrMbfu6zNUbg17Zzo4fRG/4vL4WP/UVtP8A0eK/UMjk1+XGhn/i7/hg/wDUWtf/AEetfqT3rwMx3idVN7jcUEU6ivNsaXPkf9sl/J8RzSf9Mrf+teDeH0utXv0s7UfMeWY9EXuTX0P+2toeo3t/ZS6VaTXUt00NuyRrkhuSp+nX8qsfs+fBOeGCK71xBHbgh51/jmYfweyj866MNmEcPh3GDvNydl+p1VMOqkoznpFRV/8AJHTfAL4bQLawazqEH+hxHdbROOZ3/wCeje3p9PQV7ztpYo0ijWONFREAVVUYAHoKdXJGDWrd292ZVarqO+yWy7DCKaRUhFc1438Qx6LFDC0qW5nDM08p2oiry3J4zRJqKuyYpydkO8U63Bp1rNmdIhEhaaVjhY1A55r5j8feLNR8XakIdM3Jo8LZWNuGnYfxt7eg/Hr0h+I3jybxjqR07TXdNFhkyDyGumB+83+z6D8T2xN4cscKvy17eXYDl/e1Vr0RhXrJe5En8ONb/LHcRmCT/aHFdzYWalVKYIPcVSs9NgmQLLGCKuw6Xd2R36fMSP8Anm/SvaOM2rW2xjitO3hGBxWPYauqsIr6Frd/XHBro7UxyoHidXU9wc0IQJCCKeYB6VZjSpfLzVCM8we1Rtb+1aZjpPKzVITMeS0B7VWezHpXQtCCOlQtb89KYjmp9PDD7tYmt6WI7Oe4jTDxoWBHfArvjagjpVHWLLdpl2Nv/LF/5GgDzPS7tpowSuDXSaBpd3q94lraRF3Y8nsB6n0FQ+A/Cd9rl0scEZWFf9ZKfuqP8favefDmh2OhWItrNOSBvkP3nPv/AIVEpWKjG5X8I+HrfQbLy1bzJ3H7yTsfYDsK3KKKwbubJWCiiigAooooAKKKKACiiigAooooAKKKKACiiigAooooAKKKKACiiigAooooAKKKKACiiigAooooAKKKKACiiigAooooAKKKKACiiigAooooAKKKKACiiigAooooAKKKKACiiigAooooAKKKKACiiigAooooAKKKKACiiigAooooAa6K6FHUMpGCCMg1weq6dBbX00NvCsUQf5UUcDPNd9XMavGDfzH/AGq0pbkVNjnfswHanLCM9K0WiFN8qtmZFQRUpSrJTFRkc0rgRbKa6cZpl9e2tkm+4mVPQdz+FYdxrGoX2Y9MtzGh/wCWsgqWMvahdW9oheeVUHua5m+1u7vGMWlWxI6ea4wKuLom+Tzr+VrmTPc8CrRiSJdqKFA6AUho5WTRZbl/O1S5e4frtz8oqnqdrFDCUjjVVx0ArqLo8Gue1hhsakUerfDcY8OqP9v/ANlFdQDXGfCi7+1eF95XaVmZD9QBXXhq+Hbs2evJEua4T9oHQ9T8S/BrxLoWjWzXWoXloI4IVIBdt6nGTx2rt9wo3e9OMrNMjlPzih/Z3+Msa7R4MlPOebmL/wCKq3H+z98Zu/gxh/29Rf8AxVfonupd1el/atXsjH2CPz7039nP4x3koRvDlraAnl572MAfkTXtXwa/ZXtdE1a213x9qNtq08DCSLTrdD9nVhyC7Ny+PTAH1r6b3UbqyqZjWqK17DVJIcBgYAxio7i6t7Zd08yIPc8ms7WLfVp1IsL6GEH+Foz/ADBrjtU07xbCsrrZ21y+07XRywzjgkZzivCxWKrU9KdO/n/wx3YfDQqfFNL+vM4v9pz4teKPCfhOWXwhp0AUsIp76eTDw7uAUjxzn1z+FfF3h5JUu59a1OZ59QuGZi8jbmy3ViT3Ndf+0HcfEk+MEtPG7DbuLWMNuhS3K9MoDyT67snn0rjtIinNyBdKyMp+4wwR9a+mynDz+rpzacpbtduxy4qUYztFNJd+56f4EQ8SN95zuNe0eHH2xLXj3hDChK9S0O4ARRmvoIRUYpI8ybu7nd29x8g5qtqV3hDzWcl1hOtZmq32EPNUTc5T4l61Pa6YYrNTJeXTiC3QdSzHr+AzX058KfDn/CKfD/SNFdt9xFbq90+PvzN8zn/vokfQCvnT4Y6R/wAJh8aNPjlTzLDRlN3PnoXH3R/31s/I19Y5r5vMq/PV5Vsj0KVPlgvPUfUF/cLaWU1y/SJC35CpN1eUftV+N18E/CPULqKTbfXn+jWg7l27/h1/CvNlzNWhu9vU1glzK+x8T/tJ+MH8X/E29EMpkstOY20JByGbOZG/Fs/gBXmzKyLvQlWU5BB5FSwIzne5LMx3MT1JNWPKyOelfUYXDxw9GNKOyVjkrVHUm5vqfo7+y342k8dfBvR9Su5A9/aJ9iu2zyzx4G4+5Xafxr1GvjD/AIJ5eKTa654k8F3Mny3MaX1sp/vodsmPqpQ/8Br7NzXgYqkqVVxWxvB8yuKQCCCMg18m/GHRzoHjS7gVdsQk82Hj/lm/IH4dPwr6x3V41+07oYn0ay16JPmgf7POR/cblT+ByPxrnU3SqRqr7L/DqdVD3uak9pL8eh5f4dvvlX5q6+1u8oOa8r0O6KNtJ5BxXaWF7lBzX2kZKSujxZJxdmbOpT/Iea8+8US5DV1V7cZjPNcR4jk3BqYI9V/ZXl3eILxM/wDMP/8AZ1r6IzXzV+yhLnxdfpnpp2f/ACItfSea+Ktyzl6s9rE6yXovyHZrC8dnHhucj+8n/oQrbz71g+PWA8M3BJwAVyf+BCufGa0JryZOGX76Hqin4G1nzYxps7ZYDMJJ6j+7+FdZmvhH4P8Ax0mt/HV9pniC7I0y8v5JNPu2P/HqSx2qT/cPH0J9On2z4d1aPVtOSdSPMAAkUHv6j2NRh4VsK1h8Rva6fdf5o1xMYVb1qW3Xyf8AwTVzXiH7Ufw//tvw/J4o0uDdfWUf+lRovM0Q/i92Xr9M+le2ZocK6FHAZWGCD0IrtTs00c0ZOLuj8xL6do5CjHp+te0fsqOZZLoA/wDMSh/9BFc/+1v8PpfAPi1dU0+yf/hHtUkZ4ZF5W2kPLRH0Hce3Haof2RrzVZfiQ1lDOF0uOMXNwmwEtISqJ82MjqTx6V6OayeIy5yvtZ/cx4JqnidOtz79zSZpmaXNebciw7NfmjpHHxB8XD/qJy/+jZK/SzNfmrpYx8RfGA9NTl/9GyV62VP3pGFbY62MnZWdqR4NacQ+Ss3Uuhr2znOD0k7fiz4aPpqtr/6PWv1MJ5P1r8srL5fin4cb01K2P/kYV+pRPJ+teDmT+H5nVTV2x+aM0zdRmvMua2OQ17R5dX8XbBlYEiQySY6Dnge9dbaQQ2tukECBI0GFUU4YySAMnrS5rnoYaFKcpreTNqtaVSMYvZDqM03NGa6TCwpNc58RPC9n4t8M3GlXKqJCN8EhGdkg6H6HofY10OaTNFxrQ+K7nw9NoWvTWE8RQo5G0jkEHkfhXb6BAoReK7/4+eFfOjh8S2UWWiOy7AH8PZv6H8K4XQmAVQeK+kwGJ9tTs90clenyyutmdRZRYArUgWs+xIKitSDFdpiTNawXCbZY1Ye4quNIubV/N064ZPVCeDWhCOlXYelMRnWmsyQOItRt2jP98Dg1v2k0FxGHhkVx7Gq7wRTIUkQMD6is+bRXhfztOnaFxztzwaYjf8sGk8usW31i6tGEWpQEf9NFHFbdpdW90gaGVW+lNCYbKb5Was7aUJVXEVfKFPFmk6GJwdsg2nHoeKshParNsgDKT6imBvaTp1npdklnYwLFCg4AHX3Pqat0UVynQFFFFABRRRQAUUUUAFFFFABRRRQAUUUUAFFFFABRRRQAUUUUAFFFFABRRRQAUUUUAFFFFABRRRQAUUUUAFFFFABRRRQAUUUUAFFFFABRRRQAUUUUAFFFFABRRRQAUUUUAFFFFABRRRQAUUUUAFFFFABRRRQAUUUUAFFFFABRRRQAUUUUAFc9qQH2uU/7Rroa5/UcC5l/3jWlPczqbFEgU1sCqepatZ2Z2vJvf+4nJrKe41bUiRCn2SE9z94itrGZo6hqdlZA+fMA3ZRyT+FYs9/qeofLYwG2iP8Ay0fr+FXbPRbaF/MkBml7s/NX2UKMAcUgMK10OIP513I9zKeSX5FaGxI1woAHtVhqglNSxoqz1QuD1q5OetZ9yetIaM68cAGua1mT5Wrev2wDXK6zJwRSZR7D8N0SLw78gxumLH64WunD1ynw7f8A4pxD/wBND/IV0m6vgZytJnu8lyffWZ4o1aTSNEn1CG3W4kj27Y2faGyQOuDVzdXlX7WF1qdp8CdevNJvZLK5haB/NjkKMF85NwB9SDTgnUkoJ2bCyjq1dHm99+11/ZXjKbRtY8EPbWlvO0U0yXZaVQO4QoAefetj/hr7wCOmm6v/AN+h/jXxcst1qBa7vJXuZ5H+eSVizN9Satx22f8Almn5V9E8qpSS3T8v+Dc4PrDTdkfYM/7YfghFzFomrzH02qv8zU/hz9sDwDf6ittqmkavpUDEAXDqsqj3IU5A+gNfHn2U4/1SflVe409HHMSg+q8U45VRW9/vJliJPsfqZoGuaVr+kwatouoW9/Y3C7op4HDKw+vr7dq0A1fCn7FvjTU/DPxDj8I3V076NrRZEiY/LFcBSVcemcbT9R6V9xh68XF0Xh6nIdNN88bmd4q8M+H/ABVZJZ+INJtdQhjffH5yAtG395T1U+4rxX45fDLQbfR/txiS3iiG2G7VQGhPZW9VPv8Azr3zfVLXNPtNZ0i60u+iWW3uYyjqwyPY/gcGsYVpQkpJ6o05dLPY+GdBkEMpi3q+xtu5TkHFeg6Nd/KOa57x9o0Wh6kfJRYzFcNbzBeBkEgH8wfzp2kXWFHNfX4LFLE0lNHnYqg6M+U7z7YPL61geINTS2tZp5Gwkalj+FRG8OzrXI+MWu9Y1DSPC+nHN5q94kC+y55J9uh/A10znyRbMIxu0j6I/ZM0KSz8D3PiW8jxea1cGRSRyIV4X8zuP5V7RurL0LT7XRtFs9JsU221nCkMY/2VGKvb6+KnU5pNnrcpNur4Q/bs8aN4g+KFr4TtZSbPRIgsgB4aeTDMT9F2j86+6Gk2qTgtgZwO9fAfxH+BvxcufEN94qn0M6rd6nfzyvDaPuaMMxIJzgYwcD0wK7cvlTVW83bsZVYS5dEeRW8QxnFWDGMV2ifCD4uAAD4e6p/47/jUg+D3xePH/Cv9S/76X/GvoFXpJfEvvOPkl2Mv4I+JP+EL+NnhrXHk8u1a7SC6OcDypDscn6Bs/hX6aBwRkEEeor82br4J/F+42EeA9RjZGyrBkyP1r7++GVxrE/w/0N/ENlLZasLONLuGXG5ZFG05x64z+NePmjhJxnFpnRQi9U0dRuFZXi/SYtf8M6ho8uALmBkVv7rY+U/gcVf30b68i50pNO6Ph5hNZalJbzqY5Y3KSKezA4IrpdMvPkHNX/2jNE/sP4jyXcSbbbVEFymBwH6OPzAP/Aq5PTbk4AzX1OWVeegk+hx4yP7zmXU6me43J1rltdfIatQz5TrWJq75B5r0GciR6T+yZNnx7qSZ6aYf/RiV9O7q+Uv2SZx/ws3VYs8/2Wxx/wBtUr6n318biVy1Wj2H71n5E26uA/aI1b+xfg34k1INteK0bYf9o/Kv6kV3O+vGv2zpGH7P2ubSRmW3Bx6eatRSiqs1B7Niu4e8uh+f1vbl7dGA5xX0p+yv8a5tF1K18JeJ7kmBtsNjcyN1XoImJ7jjafw9K8D0i236fA2Oq06/00vHlflYcqw/havpcZhIYmnaXTZ9n3OKhWdOWn/Dn6nwzxzQpLE4dHG5SO4p26vlL9kL43tqLRfD3xfcldRjBXT7mU/67H/LNj/e9PX619Tb+K+bq050Zcs9ztXLLWOxU8T6NpviPRLnR9XtIrq0uUKvHKgYfXB9K8G8AfDTS/hz4v1AaeZgLuaICKTnylUnhW6lTnPNfQm/3rC8UaQNQMF3AB9pgkU/7y55H9a4sSpzptQe+67nVhpRhL3l/wAA6TfRvquH96N3vXRzHNyFjdyK/N/TV/4uX4zHpqkv/o2Sv0ZDcjnvX516YP8Ai53jb21WX/0dJXsZRK85HLiVZI6hB8lZ2orkGtWMfLVG/T5TXvnGecKNvxN8Pn/qIW5/8jCv1FLfMfrX5e3Y2fEnQD/0/QH/AMjCv07Z/mP1NfPZo7cnzO2gr3J91G6oN1AavK5jo5SfdS7qr7q8i/aI+Mdr8PtKOl6U8dx4juk/dR9VtlP/AC0cfyXv9KumpTlyxE1ZHa/EPxnbaBaPbxXESXbL8zuwCwj1JPf0FUfhP4ia8im0y6nMkqkzQuzZLqeTz9efxr8+fFmv+IPEly91rGrXl6ztudppCdx+nQfhXoHwX+MFz4M1C2tNeknmtYPntJ1G5lx1iI7gjgemfTprWyvEQtWTu+3l+prTxFCUXSat5+Z+gm6jdWbo2pR6ppFpqUKSRx3MKyqkgwy5GcEeo6Gre6sOYy5BbuGK5tpLeeNZIpVKOrDgg8EV4f4s8PSeH9SKLloc/I395ex+vY17eWrF8XaSmr6U8YUGZATGfX1H41vhsS6FRTQp0+eLizyzTZ8gc1t2z5xXKxh7O8a3fIweM+lb1jNkDmvrYTU0pLZnluLi7M3YG6VegPFZVu+a0YG4qxMvxnpUqVWjPSrMfNMljjCkg2yKGHoRWdcaIofzrKVoJB6dK1VqRQKaAxY9T1CwIS/tzJH/AM9ErZsL62u1zDICf7p6ipDEjrtZQR71m3Wjws/mQEwSditUSbYWp4V+YfWuaju9TsBi4T7TEP4h1Fa+k6raXjAJIFf+63BoFc7KiiiuY6QooooAKKKKACiiigAooooAKKKKACiiigAooooAKKKKACiiigAooooAKKKKACiiigAooooAKKKKACiiigAooooAKKKKACiiigAooooAKKKKACiiigAooooAKKKKACiiigAooooAKKKKACiiigAooooAKKKKACiiigAooooAKKKKACiigkAZJAFAAa4nxLaalcapNH9oENrnI2feIIrszLEP+Wif99Vzut3CC+kwcjjp9K0p7mdTYw7XSLS1GUTc/dm5Jq0AFGBTJLpc9D+VRtdKOTu/KtzG5M1RPULXiA9/yNMe7j9G/I1IxzmoJTUcl0pPAb/vk1DLdLtxhvypMZHcHrWdct1qxNcZz8rfkaz7ucYPB/KkUZmpNwa5HWX610mpTjaeD+VcfrU+c9allI9u+HTf8U0h/wCmrf0rpM1y/wAODnwxGR/z0b+ldKDX55Vfvs+jitB+a8a/bPmaP9n7WVU48y5tVP085T/SvY814r+2oT/woPUh63tqP/IgrfBa4iHqjOurU2fEGipmwQ+rmt23gyBxWJotxbR2EayTxowckhmwetdDZ3liRxdwH/gYr7WPU8VkothjpUU1t7VfS6scf8fUGf8AfFLCkl/cpaaXa3F/dSHCQ28RdmPoABVOcVq2JRb2NL4IWdxdfHPwhZWqkuL4TuR/CkYLMfyU1+hW6vBv2ZvhDdeD5JvFviaJU126iMUFv1+yRHGQT/fbvjoOO5r3XNfJZniYVq3ubI9XDUnCGpLuo3VGGoJ7mvOudHKfC3xz13V7P49eJPDkvlmwmvPOjBX5gGjDgg/XNWdJnJiRs9RUH7RjQ3n7RVxcQhfks0eQj1wQP0IpmjbvJTtxX2OXNOlFxVrpHlYtNTcXrZnQiclOtdf+zn4SfWfipceMLz5rTR7YxWqkcec/GfwXf+Yrz3U7yOxsJLiVwAo45719TfAzRDonw407zU23V6n2ufIwQX5UH6LtFYZviHTpqK6jwlNSbbO83Uu73qPNGa+Z5j0uUk3UbqxtQ8S+HdOuntNQ1/SrS4TG6Ke8jR1yMjKk5HFV/wDhNPB//Q16F/4MIv8A4qqSk+grI6HdRurnD428HDr4r0L/AMGEX/xVB8b+DR/zNmhf+B8X/wAVRyz7C0Oj3Ubq5o+OvBY6+LdC/wDA+L/GnQeN/Bs88cEPirRJJZGCIi30ZLMTgADPJJp8s+zDQ6PdRuqPNGajmK5Tyz9qDQv7U+HEmrQpuudIkFxx1MR+WQfgCG/4DXzbo9yJYEdWyMV9u6pZ22padc6feRiS2uYmilQ/xKwwR+Rr4F06K68L+Pdb8Eaox87T7l0hduPMQH5W/FSpr3cmqXbj/X9f5nFi1ZI7VZSUrO1Fsg1cjZDHw61S1ErsPIr6A886T9j+78746a9DniHSHGPfzo6+v91fF37Fh/4vz4pyf+YfN/6Ojr7MzXyWae7iGl2PVw3vQuS7q8b/AGzTn9n/AFr/AK7W/wD6NWvX815J+12gm+BOsowyDLb/APo1a5cLL99D1RrUj7jPjDwzAH0a1P8AsVqtZgrgrxTPDNrKNMt1jiJULxzWybO728QH8xX2q1R4zOB8R6dPBPHqNi7x3UDBgyHDDHRgfUV91/s1fE8fETwRGNRkRdf05Vivk6eZx8soHo3f0IPtXyBqWnXjLkW5z9RVz4Z+IdR+HvjGz12xJZUO24gzhZYz95D/ADB7EA15mYYf2lO3VbHVh52kfoRuo3VleGdbsPEOg2etaXMs1pdxCSNgc/UH3B4I9RWjur5Ztp2Z6aVyTdRuqPNGfejmDlJA3I+tfnppf/JUvHA/6is3/o6Sv0IB5Ffnvp+R8WPHKgZ/4ms3/o6SvbyR3nI4sarJHXRj5aqXw4NaEKsUHyj86pajG+04A/OvozzjzLWCF+ImhN6XcR/8iiv00Zvnb6mvzJ8QAp490UnqLmL/ANGiv0yY/Mfqa+bzjTk+Z6OEV7j91Gfeo80ZrxbnZY8v/aD+L1j8NtEFramO58Q3kZNnbnkRr081/wDZB6DuR9a+KbmXUte1O41nWLiW5u7qQySySHLOx7n/AAr3T9sKyS7+I9mTEruNNiK5/wCukleS22mXrAYiXH+9X02V0YeyU+rPOxM2pWMaSxG3GKytT08T2ckI/wBYnzIfcV3B0e/258tP++qyb/R71W3bVUfxEHtXpzWl0csWfSn7FvxO/wCEk8MP4Q1WfOq6Wn7sseZYs4B+o4B+nvX0Vur87PB17deC/GVl4k0b5HicMyg4Dj+JT7EV9++F9csfEWgWes6fIHt7qISLzyvqp9weK+Wx1FUql47M9WlLnjrua26gtUefejNcVzXlPP8A4k6HiQalbJw5+fHZv/r/AM65fTpjgAmvYr63iu7SS2mUFJFwf8a8k1q0bRtTkhnBxuwCBwfQ/jXu5Ri/+XMvkcWLo/bRr2khOK1rViQK56wuomA2mtu1lGBgg19AeczVhJq1G1Zscjdtv51ZiaTsV/OmSy+pqRTxVNfO9U/OpEWb1j/OqQi8hp+M1UVLjs0f61IFuB/En600IsbQeKZDpVlLfQyNGA28HI4zzUaicHlo/wBasWzyxyo52kKwPB96YHXUVmDV4z/yxb86vW0yzx71GK5nFo2Uk9CWiiikUFFFFABRRRQAUUUUAFFFFABRRRQAUUUUAFFFFABRRRQAUUUUAFFFFABRRRQAUUUUAFFFFABRRRQAUUUUAFFFFABRRRQAUUUUAFFFFABRRRQAUUUUAFFFFABRRRQAUUUUAFFFFABRRRQAUUUUAFFFFABRRRQAUUUUAFFFFABVTVjixc+4/nVuqGutt09j/tD+dVHdClsYMjnNRtJkdailm65NVXmHrXScxaaT3qMy1Ue496iaf3oGXGm96geTnrVVrj3qFrgetAy40gHeq0soP8VVZbgZ61VlnHPNS0BYmmAByayr2Uc80XE/Xmsu8uOvNSyinqdxhTzXFa3Nljz3roNUn+U81xusz/P171L2KR9A/DQj/hFYuc/vH/nXTA1ynwwbPhC3P/TR/wD0KuoBr83qy/eS9T6eK91EoNZfirw9oninRZNG8QafFqGnysrPBISFYqcg8EHgitHNKDSjNxd0JxTVmedD4FfCQdPA2m/99Sf/ABVSx/BH4UxjCeCNMH/ff/xVeg5pc10fWqz+2/vZn7GHY4WL4O/DCJgyeCdJyP70Zb+ZrqNC8PaFoUfl6No9hp6/9O8Cpn8hWlmjNRKtOWjbZShFbIdmjNNzVPUdX0vTYml1DUbS0RRktNMqAfmalXew3ZF7Nc1498U6Z4d0i7kvL2KF4rczyAsMpF0L4/MD1NcF8Qvjz4Z0a3kt/Dkqazf9A65ECH1LfxfQfnXyx488Q3Pim9ubrV7yW5nuWBlO8gEA5C4HGB6V6GHy2pWXve6vxMJYqNN3WpVvdWm8SeKtW8UTqUbU7j9yh6pCOEH5AflXSWMpWMD0rl9LGWDbdqgYUegrdjlWOMuzYVRkn0FfW0KahGyPIqzc5NsuaDo8njr4seGvBybmtTOLvUMHpCnJH4gEfVhX3fGqxxrGihUUAKo6ADoK+ZP2JPDrXbeIviFeRfNeTfYrEkdIl5cj6naP+AmvpvNfM5viPaV+RbRPRwdPlhfuOzTZZFiiaWQhURSzE9gOtLkV57+0T4hfw78IddubdsXVzAbODB53S/KSPopY/hXnU4uclFdTpk+VNnxh8QfFk3iHx/reug70u7pmTPZAdqf+OgVnQ37t/D+lY+mxMw+dSCW6H0FdFZwDA4r7OnRXLbseNOo73BLlj/CfypzXL44DflWjDbjHSpWthjpV+wXcn2jMOW6kH978qzr3ULqOSCaGRo5IZllRhx8ynK/qBXRXFsMHisTVbfdA6gc44o9ih87P0Q8F65D4k8JaVr1vjy7+1jnx6FgMj8DkVr5rwT9ijxP/AGv8MbnRJpM3Gj3ZQKTz5Ug3qfz3j8K95zXxeIh7KrKHY9mm+aKY7J9a+QP23PDjaF460D4gWUeIrsfZrwr/AM9E+7n/AHkJH/Aa+vM155+0R4RHjX4Sa3pUce+8ihN1Z+vmxjcB+IBX8a1wGI9jXjJ7bE16fPTaPla0v1eFXRsqwBB9jSXd1lTzXF+CtSaXSFgkJ8y3JjOeuO3+H4VszXQI619qeId7+xU2fjr4nPrp0v8A6Ojr7MzXxd+xK2fjd4jb102X/wBHR19nZr5HOJWxL9Eexg1+6JM15V+1b83wS1cH/npB/wCjVr1HNeWftVtj4JauT/z0g/8ARq1xYWX76HqjeovcZ8r+Fmxp0A/2a6WLBWuQ8NTD7FDz2rqLaUbRzX3cPhR4EtxbuMFa5fWrYEMw4B6+3vXVTuCtYWpAHPFE4qSsEZWdz0H9lX4iTeHNdbwprVwf7Lv5B9nZjxBOeBz/AHW6H3wfWvrnJr85fM+z3QycD+E19hfs7/ENfFnh4aRqM4OsaegViTzPF0D/AFHQ/ge9fMZphOV+1ivX/M9TC1b+6z1nNGabmgGvFudth46j61+fFs234ueOv+wtP/6Pkr9BQeR9a/PR22fF7x1/2Frj/wBHyV7uRu85+hwY7ZHawzfJ1qpfS/KajhnG3rVa/mG0819MeYef+Jm/4rnSD/08R/8AowV+mLk7m+pr8x/Eb58YaW3pOn/oYr9NifmP1r5rOtOT5/oenguvyFzS7qZmjNeHc7rHzD+1Xg/Eyw99Nj/9DkrgLBBgV3X7V0oHxR0tM9dMT/0ZJXB2Djivr8q/3dHkYv8AiGi0Y2VmX8PB4rWVgVqnekbTXpHIcfdxFTJB0zyh969k/ZB8eT22tz+C9Rd/st4TLZbukcwHzIP94DP1HvXkWsr1dfvDkU3w3qD2OqQ39rIYriGRZY3HUMDkGvMxeHU4uL6nZRqNWP0GzRmud8AeJ7TxT4TsdZidFeWMCZM/ckHDD8/0xW950Q/5aJ+Yr5SScW0z007q5JzXN+O9GXU9MaWNMzRA9P4l7j6963jPD/z1T/voU03EH/PaP/voURnKElJDaTVmeIWk8ltOYZD8yn8/euj068yBzUHxI0qO1vBe2ZVo3yQFOceo/rWJpN9wOa+1wWJWJpKS36niV6Xs5WO7gnyB1q/BN05rmLS8BA5rSguveu1HOdBHLx1qwknoaxIrn3qzHdD1qrEs2El96lEuR3rKS5HrUi3I9aYGir81KsnHNZguvelFz70xGqsgHeug0Jt1sx/2v6CuPSfPeup8LvvtJPZ/6CoqfCVB+8a9FFFc5uFFFFABRRRQAUUUUAFFFFABRRRQAUUUUAFFFFABRRRQAUUUUAFFFFABRRRQAUUUUAFFFFABRRRQAUUUUAFFFFABRRRQAUUUUAFFFFABRRRQAUUUUAFFFFABRRRQAUUUUAFFFFABRRRQAUUUUAFFFFAEc88UChpW2g8CoDqNmP8Alr+hqr4hOIovqf5VjEEnvWkYJq5Dk0zojqdmOsv6Gj+1LL/nr/46a5wqfSm4NV7NC5zpP7Us/wDnqf8Avk0v9p2f/PQ/98mubBGeop2QO4/Oj2aDnZ0X9p2n99v++TWfrt7DcWDRQFmcsDjGKy/NQdGH50GSP++v501BJ3E5PqZkkV0x4jP5iomtL09Iv1FbAli/56J/31Q08Q/5aJ/30Ku5FjEaxviP9V/48KifT9Qx/qf/AB4VvC4iJ5lj/wC+hR9pg6edF/30KLhY5t9N1I9IR/30Kry6bqSnmEf99Cupe5twf9fF/wB9im/abU9biH/vsUDscn/ZWqOeIR/32KY+hawekC/9/BXXm5tFHFzAP+2goF7Zj/l6g/7+D/GgLHEyeHNbfpAn/fwVRufCPiB87YIv+/or0f7dZAf8flv/AN/V/wAaQ6hY4/4/bb/v6v8AjU7geR3vgHxTMDst7f8AGcVgXvwp8aTvlLa0697la96XULD/AJ/rX/v6v+NO/tLTwf8Aj/tP+/y/40mirngU3h79oewd7Tw6+j2unq5MKPNExAPckqTz1qL+x/2pj/zEtDH/AAOD/wCIr6COq6YOuo2n/f5f8aP7V0zGf7Rs/wDv+v8AjXF/ZuG/kX3GzxVXufPw0X9qU/8AMW0Qf9tIf/jdL/Yn7UnfWtEH/bSH/wCN179/a+mD/mJWf/f9f8aDq+lf9BSyH/bdf8af9nYX+Rfch/Wav8x4CND/AGoj/wAx3RB/20h/+N04eH/2oT/zMOiD/tpF/wDGq98GsaR31Wx/8CE/xoOtaOP+YtYf+BCf40f2fhv5F9yD6zV/mPBP+Ed/agP/ADMmiD/tpH/8aqO58J/tOXCbW8WaVH/1zuUQ/mIq9+/tvRf+gvp//gSn+NJ/buiD/mM6f/4Ep/jR/Z+HX2F9wfWavc+Z9Q+En7QWpZ+3eL4ZQeobWJcfkFxWFc/s5fFi4bdNfaLM3rJqDk/+gV9anxBoY/5jOn/+BKf403/hIdC/6DWnf+BKf41rHDU47Ih1ZvdnyE37MnxVkPN/4eRfQXj5/wDQKltv2XPiKpHm32gnHb7U/wD8RX1x/wAJFoGP+Q3pv/gUn+NJ/wAJL4fH/Mb03/wKT/GrVKKJc5HzDa/s2ePIgA17ofHpcv8A/EVJffs4ePJ7KSBNQ0NTINpJnfp3/gr6a/4Sbw9313TP/ApP8aQ+J/Dn/Qe0z/wKT/Gm4oOZngXh34UfHbw3o0Gi+HvGGjafp9uCIoUmbAycn/ll3Jq//wAIF+0gevxD0of9t2/+NV7cPFPhv/oO6Z/4FJ/jS/8ACU+Gx/zH9M/8Ck/xrneDoN3cUae3qdzxD/hX/wC0cevxG0z/AL/t/wDGqoeIPg58aPEtkll4j8aaTqFuj+Ysck8mA2MZ4jHYmvff+Er8Nf8AQf0z/wACk/xpP+Es8Mj/AJj+mf8AgUn+NCwlBO6ig9tUfU+Xof2WvG6zNI2t+HwD0Akl/wDiK0rf9mrxhGPm1rQ/weT/AOIr6O/4S/wwP+Zh0z/wKT/Gmnxh4X/6GDTP/ApP8a3UYpWRF2zwCP8AZ08VrwdZ0X/vqT/4mnn9nfxR0/trRvzk/wDia97PjHwsOviLS/8AwJT/ABpD4y8Kf9DFpf8A4Er/AI1WgtTwCT9nHxRJ013Rh/38/wDiapXH7MfiqX/mYtEH4S//ABNfRQ8a+FB/zMWmf+BK/wCNDeNfCf8A0Mel/wDgSv8AjS90Ls+ffCv7PPxI8KvcP4c8d6bpj3OBMbczLvAJIBwvua2T8J/jsT/yVyIf9tp/8K9l/wCE28JD/mY9M/8AAhf8aUeN/CX/AEMWmf8AgQtYyw9CTu0mWqtRKyZ4wfhL8dCefi+g+k1x/hR/wqL43sMP8X1I9PNuK9kPjjwjn/kY9N/7/ik/4TnwiP8AmY9N/wC/4pfVcP8AyoftqvdnzfZfsoeJ7bUZrseL9H/f5MiiCU5bOc/zq+37L3iM9fFuk/8AgPJX0CfHfhAD/kY9O/7/AAoPjzwf38Q6f/39FbLkS3I97sfPfhz9mPxv4e1S61LRPiJZ6fdXIKtJbxTI2wnO3II4yB+Vb3/ClfjETz8ZJf8Avu5/+Kr2M+PfCH/Qw2H/AH8oHj3wf/0MVj/33WcqVCTvJJlKdRKyPG/+FJ/F7v8AGWb/AL6uf/i6r6p8APiLrGnyafrHxVa+tZMb4pUndTg5HBfHWvbG8e+Dv+hhsT/wM/4Ug8e+Dv8AoYLP/vo/4UvYYda2Q+er5nhel/sw6xZwJEfGNg23uLN//iq14f2d9UjGD4rsj/26P/8AFV65/wAJ/wCD8/8AIftPzP8AhQfH3g8/8x60/wDHv8K1Uqa6kWk+h5Q37PWosMHxVaf+Ajf/ABVVpv2bb+Xr4ttR/wBuTf8AxVewf8J/4QB/5Dtsfwb/AApf+Fg+D/8AoO2//fL/AOFHPT7oXLLseG3f7LN7OP8AkdLVfQ/YG4/8fqXTP2Z/EGmyCew+Ii2k4BUSw2To2D1GRIDXt3/CwfB//Qcg/wC+H/8AiaT/AIWB4Qz/AMhqL/v2/wD8TUS9jLdr7yl7RbI8gb4AePWPPxh1Af8AbKb/AOO0f8M+eOD1+MOo/wDfmX/47XsH/CwPCHbWoz9IpP8A4mk/4WD4S/6DCf8AfmT/AOJqPZ4fyK5qvmeRp+z740U/N8XtSP8A2xl/+O1nab+yvJa6peahJ4486a7IaUmwOS2SSxJk5JzXt3/CwPCZ/wCYsp/7YSf/ABNA8f8AhP8A6Cw/8B5f/iaqPsIbNIT9o90zypP2cGA/5G//AMkf/s6jl/Zs8wYbxi3/AIAf/Z163/wsDwn/ANBU/wDgNL/8TSH4geE8/wDIUY/9us3/AMTVe1pfzL7xck+x4Ve/skwXeoRXj+N5A0XKr/Zw65zn/WVst+zrr7Hn4r6uP+3dv/jteuf8LB8Kf9BJ/wDwFm/+Jo/4WB4U/wCglJ/4CTf/ABFRJ0Hu19417VbJnkX/AAzhrvf4r6v/AOA7f/Hacv7OOsZ+b4qawf8At3P/AMcr1v8A4WD4W/6CE3/gHN/8RSD4g+Fv+f6f/wAApv8A4ip/2buvvRX73szyVv2ZxNdxXV749vrqWMYDSWYY49Ml60of2d7SL/ma7g/9ua//ABVek/8ACwPC2P8Aj9uP/AGf/wCIoHj/AML/APP5c/8AgDP/APEVUalCKspL7yXCo90zgF+AVqBg+J7j/wABV/8AiqbJ+z7ZSdfE91/4Cr/8VXoP/CwPDGf+Pu7P0sJ//iKX/hYHhjHFzef+AE//AMRVe3o/zL7xezqfyv7jzC4/Zr02bO7xXeD6Wi//ABVUV/Za0tJQ6eMtQXBzgWif/FV65/wsDw1n/j4vf/ACf/4ij/hYHhr/AJ733/gvn/8AiKl1aD3kvvKUKi6M8sP7NMAUrF491iJfRLdQP/QqYf2ZoD1+Ieu/9+V/+Kr1U/EHw2P+Wt//AOC+f/4ikPxC8N/89NQ/8F0//wATU8+G/mX3ofLW7M8pP7Mtr3+IGun/ALZJ/jSf8Mx2Pfx7rx/7Zp/jXqp+Ifhv+9qP/gun/wDiaafiJ4b9dT/8Fs3/AMTRz4b+Zfeg5a3Z/cecaV+zpbaZdx3Vt4810SocgmNCPoR3FdnB8MLKHn+1rpj3xGoGa0G+Ivhz/qKH/uGzf/E03/hY/hwfw6r/AOC2b/4mnGthou6kvvQOnWas4v7hYfAlrF01G4P1UVaj8I269L6c/wDARVNviR4b7Jq//gtm/wDiaZ/wsrw72h1g/wDcNl/wq/rdD+dfeiPYVf5X9xqL4YgX/l8m/wC+RT18PQD/AJepvyFY3/CyvD3/ADw1n/wWy/4U0/Enw9n/AI99a/8ABbJ/hR9cw/8Az8X3oPq1X+V/cb40OEf8vEv5Cl/saED/AI+Jf0rA/wCFleH8f8emtn/uHSUn/CyvD+P+PPW//Bc9H13D/wDPxfeg+rVf5H9zOhOjxDnz5P0pBpkIP+ul/Sucf4laEeljrn/gvemf8LJ0Lr9g13/wXt/jR9dw/wDz8X3oPqtX+R/czq006Jf+Wsn6Vq6bcSWMTRxEMGOTuFef/wDCy9E/6B2u/wDgAf8AGnD4m6GP+Ybr3/gCf8aTxuGe9SP3oaw1ZbQf3M9HOr3I7R/lSf2xc+kf5V5w3xM0Vuml69/4Bf8A2VN/4WXo3/QK14/9uY/+KpfW8J/z8j96KWHr/wAr+5npI1m59I/ypf7XufRPyrzX/hZej/8AQI17/wAAx/8AFUv/AAszSMcaRr3/AICL/wDF0vrmE/5+R+9B9Wr/AMj+5no51i6HaP8AKk/tm69I/wAq84/4WTpJ/wCYPrv/AIDL/wDF0D4kaUT/AMgfXP8AwGT/AOLo+u4P/n5H70P6tiP5H9zPSf7YufSP8q1tNne5tRK4AOSOK8kT4i6UxwdK1lfrAn/xdeo+GJWn0aCdree380bxHMoVwD0yMnB9qqNejVX7qSduzuTKlUp/HFr1NOiiimIKKKKACiiigAooooAKKKKACiiigAooooAKKKKACiiigAooooAKKKKACiiigAooooAKKKKACiiigAooooAKKKKACiiigAooooAKKKKACiiigAooooAKKKKACiiigAooooA5n4n2ltdeCtQNxEHMUe+M5IKsDwQRXz69haMfmiJ/7aN/jX0P8SDjwPqn/XEf+hCvAe9fI8QVqkK8VGTWnfzZ9BlFOEqUnJX1KZ0vTz1tgfqzf403+ydN72ifmf8AGr1FeB9Zrfzv72er7Gn/ACr7ih/Y+l/8+UX6/wCNH9jaUethAfwq+KKPrFb+d/ex+xp/yr7jPGiaR/0Drf8A75o/sPR/+gbbf98VoUGj6xV/mf3sPZU/5V9xnnRNH/6Blp/37FH9h6N/0C7P/v0K0KMUvb1f5n94eyh/KvuM/wDsTRv+gVZf9+V/wpf7D0b/AKBVj/34X/CtClFHt6n8z+8PZw7Izxomjf8AQJsf+/C/4Uv9h6N/0CbD/wAB1/wrQxSgUe2qfzP7w9nDsjOGiaL/ANAiw/8AAdP8KeNE0YdNIsP/AAGT/Cr+KUCn7ap/M/vF7OHYojRtG/6BNh/4DJ/hTxo+j/8AQJsP/AZP8KuCgUvaz/mYezh2Ky6RpH/QKsP/AAGT/CnDSdI/6BVh/wCAyf4VZBpc0/az7sPZx7EA0rSf+gXYf+Ayf4U4aVpP/QLsP/AZP8KnBpQ1HtZ9xezj2IRpml/9Ayx/8B0/wpRpul/9A2y/8B0/wqbNLup+1l3FyR7EQ03TP+gdZf8AgOn+FOGn6bn/AJB1n/4Dp/hUgNLmn7SXcORdiMWGnf8AQPs/+/Cf4Uv2Gw/58LT/AL8L/hT91Luo9pLuLkXYZ9isP+fG0/78r/hS/ZLH/nytf+/K/wCFO3Um6j2ku4ciE+yWXaytv+/K/wCFL9ms/wDn0t/+/S/4UbqQt70ud9x8iD7Paf8APrb/APfpf8KUQWo6W0H/AH7Wm7qTdS9o+4ciJBDbf8+8P/fsU7yrf/n3h/74FQ76XfRzsOREwjt/+eEX/fAo8uDtDF/3wKh3+9G+jnYchNsh/wCeMf8A3yKTbF/zyj/75FQ76DJRzsfISlYv+eaf98ikIj/uL+VQ7/ekL0udhyEx8v8AuL+VJ+7/ALi/lUO+kLUuZj5SY7P7q/lRlP7o/Kod3vSbqOZj5SYlf7o/KkyvoKi3UbqXMHKiXI9KNwqLNGaLjsS7hijI9KiyaUGi4rEuaN1Rg0uaLhYk3Ubveo80UXCw/dS76izSZouFicPSh6r7qN1FwsWg9KJPeqoenB6fMLlLQf3pQ/vVUPTg9PmFylkP70u/3qsHoD0+YOUs7/ejfVffRvo5hcpZ8z3pfM96rb6Xd70cwcpY8yjfVfd70u+nzC5Sxvo8z61X3UbqLhyljzPejzDVbd70hejmHylkyU0yVWL00vS5g5Sw0nvTDJUBemlqnmKUSZpD60wvURakLUrlWJC1NLVGW96M0rjsPzSE0zJpM0rhYfnikJpuaM0AKTSE0hpM0DFpKKSkAUUdKKBhRRRQAUflRRQAV9L6ac6dbH1iQ/oK+Zz0r6V0Y50izPrAn/oIr6fhr4qny/U8TOvhh8/0LdFFFfWHgBRRRQAUUUUAFFFFABRRRQAUUUUAFFFFABRRRQAUUUUAFFFFABRRRQAUUUUAFFFFABRRRQAUUUUAFFFFABRRRQAUUUUAFFFFABRRRQAUUUUAFFFFABRRRQAUUUUAFFFFAHPfEOOS58K3tjAu+4nQCNemcMCeTxXjv/CJ6/8A8+Q/7+p/jXtHiqQQQxzukhjXO5kQtt6dcVyh8RaMDg3gz/umuHF5PQxslUqN3Stp/wAMdVDMauGi4wSOCHhLX/8AnxH/AH9T/Gl/4RHX/wDnyH/f1P8AGu6PiPRRz9tUf8BNRt4s0EddRi/OuX/VnCd5fev8jf8AtvEdl93/AATif+EQ8Qf8+S/9/k/xp3/CH+IP+fJf+/yf412a+LvD4/5iMZ+hpG8ZeHgedRjFP/VrB95fev8AIX9tYjsv6+Zxp8H+IP8AnzT/AL/J/jSf8Ihr/wDz5p/3+T/GuxPjPw4P+YjHTD428Nf9BFD9BR/q1g+8vvX+Qv7axHZfd/wTkv8AhENf/wCfRP8Av8v+NL/wh+vf8+sf/f5f8a6z/hN/Dn/P+v5Uh8ceHO1+p/Cn/q1g+8vvX+Qf21iPL7v+CcqPB+vf8+0f/f5f8aUeD9d/594v+/y11P8Awm3h3Gftv/jppp8c+Gun2/n/AHTR/q3g+7+//gB/bOI8vuOaHhDXO8EX/f5aUeEdb/54Q/8Af1a6T/hO/DQ633/jtJ/wnPhs/wDL7/47R/q5g/P7/wDgC/tnEeX3HPDwhrf/ADxh/wC/wo/4Q/W/+eUP/f4V0Q8deHM/8fh/75oPjrw5/wA/Z/75p/6uYPz+/wD4A/7YxHl9xzv/AAh+t/8APKD/AL/Cl/4Q/W/+eUH/AH9FdEPHPh3tdMf+A0h8d+HR1uz/AN80f6uYPz+//gC/tjEeX3HO/wDCIa1/zzg/7+il/wCEQ1rukH/f0Vvnx14d6/am/wC+aa3j3w2Ot23/AHzR/q7g/P7w/tjEeX3GH/wiGs+lv/39pR4Q1n0t/wDv7Wx/wsDwz/z9Of8AgNI3xC8Mj/l5cf8AAaf+ruD8/vF/bGI8vuMoeDtZPa3/AO/v/wBanf8ACHaz6W3/AH9/+tWn/wALE8NdrmQ/Rf8A69KfiJ4cHWab/vj/AOvR/q7g/P7w/tjEeX3GX/wh+sf9O/8A38/+tS/8IfrA723/AH8/+tWj/wALE8OnpJOf+Af/AF6cvxE8Od5J/wDvgf40/wDV7B9n94f2viO6+4zB4Q1f+9bf99//AFqX/hD9W/vW3/fZ/wAK0z8RPDn9+4/74H+NH/CxPD3Y3H/fA/xo/wBXsH2f3h/a+I7r7jN/4Q/Vf79t/wB9n/Cj/hDdW/56W3/fZ/wrR/4WFoGetx/3wP8AGg/ELQAP+Xn/AL4H+NH+r2D7P7xf2viO6+4zT4N1b/npa/8AfZ/wo/4QzVj/AMtLX/vs/wCFXz8RvD44/wBJ/wC+B/jTf+FleHgcf6Tn/rmP8aP9XsF2f3h/a+J7r7iifBerf89bX/vs/wCFJ/whmq/89bX/AL7P+FXn+JOgHot0f+AD/Go2+JWhAf6i7/74H+NP/V7Bdn94f2vie6+4rf8ACFar/wA9rX/vo/4Uf8IVqvee1/76P+FWB8TtBB5iu/8Avgf40jfE/QO8V5/37H+NH+r2C7P7xf2vie/4EH/CF6n/AM/Fr/30f8Kd/wAIVqeP+Pm1/wC+m/wpx+KHh7tDen/tmP8AGnD4n6Fji2vyP+uY/wAaf+r+C7P72H9r4nv+BF/whWp/8/Fr+Z/wo/4QrUv+fm1/Nv8ACpD8UdC/59L/AP79j/Gj/hZ+h9rLUD/2zH+NH+r+C/lf3sP7XxPf8CMeCdSP/Lza/m3+FB8EaiD/AMfVt/49/hUn/Cz9H7WGo/8AfA/xpv8Aws/Rx10/Uf8Av2P8aP8AV/A/yv72H9rYnv8AgNHgjUT/AMvVt/49/hR/wg2o/wDP3bfr/hSj4n6R207Uf+/Y/wAaU/FDSscaZqX/AH7H+NH+r+B/lf3sP7WxPf8AAZ/whGoZ5u7b9f8AClHgi/J/4+7f9f8ACk/4WhpX/QM1L/vgf407/hZ2mdtK1I/8BX/Gj/V/A/yv72J5tif5vwE/4Qe//wCfy3/Jv8KP+EHv/wDn8t/yb/Cg/FDTT00jUv8Avlf8aB8UdNH/ADBtT/74H+NP+wMD/L+LH/a2J/m/BC/8INff8/lv+Rpf+EHvf+fy3/I0f8LO088DR9S/FRQPiZYdtH1E/gKP7AwP8v4sX9rYn+b8EOHge9/5/YP++TSjwPd/8/0H/fJpB8S7P/oC6l+Qpf8AhZVmemiaifwFH9g4H+T8X/mH9rYn+b8EOHge7/5/oP8Avk04eB7r/n+g/wC+TTB8SLb/AKAmo/kKcPiRbdtE1H8hT/sHA/yfi/8AMP7VxP8AN+CA+B7rvfQ/98Gk/wCEIuf+f6H/AL4NIfiPAc/8STUP0pjfEe3X/mB6gfpij+wcD/J+L/zD+1cT/N+CJP8AhB7nP/H/AA/98Gj/AIQW5/6CEP8A3wagPxMtz00LUfy/+tS/8LLgAz/YV/8Ap/hR/YWB/k/F/wCYv7VxP834ImPgW4/6CEP/AHwaafA8+f8AkIRf9+z/AI1AfibEemg35/Ef4Uw/E2AHnQL/AD9f/rU/7CwP8n4v/MP7UxP834Itf8IRPnjUI/8Av2f8aX/hB58/8hCP/v2f8ap/8LOi/wCgBf8A5/8A1qd/wsyI/wDMAvvz/wDrU/7CwP8AJ+L/AMw/tXFfzfgi5/whE3/QQj/79n/GlHgeb/oIxj/tmf8AGqQ+Jkf/AEAb78//AK1H/CzIzx/YN9+f/wBaj+wsD/J+L/zF/amK/m/BF3/hCJf+gin/AH7P+NO/4QeX/oIp/wB+z/jVEfEpO+g3v5//AFqf/wALLT/oA3n5/wD1qP7CwP8AJ+L/AMw/tTE/zfgi4PBEnfUU/wC/R/xpR4Ik/wCgiv8A36P+NUv+Fkg/8wG8H4//AFqB8SQP+YDdn/gR/wDiaP7DwP8AJ+L/AMw/tTE/zfgi8PBD/wDQSX/v1/8AXpR4Jb/oIj/v1/8AXqh/wsnP/Mv3f/fR/wDiaX/hYrf9AC7/AO+v/saf9iYH/n3+L/zD+08T/N+CL48EH/oIj/v1/wDXo/4Qk5/5CI/79f8A16pr8RX6f2Bdf99n/wCJo/4WHLnjw/c/99n/AOJo/sTBf8+/xf8AmL+08T/N+CL3/CEHvqI/79f/AF6Q+CP+ol/5C/8Ar1VPxCnI/wCRfuP++/8A7Gmf8LDnH/Mv3P8A32f/AImj+xcD/wA+/wAX/mH9pYn+f8EXf+EIH/QRP/fr/wCvSf8ACDj/AKCR/wC/X/16qH4iTgf8i9cf9/D/APE1GfiJP/0L9x/32f8ACj+xMD/z7/F/5h/aeJ/n/Ivf8IOvfUj/AN+v/r0f8IMn/QTb/vz/APXrPPxGnz/yL9z/AN9H/Cmt8Rbgf8wC4/76P+FP+xcD/wA+/wAX/mH9pYr+f8jQPgaPvqT/APfof40f8ILEf+Ym/wD36H+NZ4+ItwR/yL1x/wB9H/Cm/wDCxbjt4en/AO+z/hR/YuB/59/i/wDMP7TxP8/5GkPAkP8A0E5P+/Q/xoPgSH/oJSf9+h/jWd/wsW5x/wAi/P8A99n/AApP+FiXR6aBN+Ln/Cj+xcD/AM+/xf8AmH9p4n+f8jSHgSD/AKCcv/fof40n/CCW/wD0E5f+/Q/xrPHxEu+3h6Un/rof8KafiHfj/mXJf+/n/wBan/YuB/59/i/8w/tPE/z/AJGoPAVvj/kJy/8Afof40n/CCWv/AEE5T/2yH+NZo+IWoMP+RdlH1k/+tSHx9fZz/YMn/fz/AOtR/YuB/wCfa/H/ADEsyxX8/wCRpjwHbf8AQSm/79j/ABpf+ECtf+gjP/37FZq+P9QxkaC5/wC2h/wpP+FhakD/AMi+3/fw/wCFH9jYH/n2vx/zH/aWJ/n/ACNQeAbT/oJT/wDftaU+AbT/AKCVx/3wtZv/AAsHUT/zAG/B6D4/1L/oASf990/7GwP/AD7X4/5k/wBpYn+c0D4Ds/8AoI3H/fC0n/CB2f8A0Ebj/vhazx4+1H/oAv8A990v/CfagT/yAZB/wKj+xsF/z7X4j/tLE/zmgPAdl/0ELn/vlaP+EDsv+ghc/wDfK1Q/4TvUR/zAZD/wKnDx3qB66BJ/31R/Y+C/59r8Q/tLE/zsu/8ACCWI/wCYhdf98rSjwLYd7+6/75X/AAqkPHOoN00GX/vof40n/Cb3/fQ5R+P/ANen/Y+C/wCfaD+0cT/Oy/8A8IJp/wDz/wB1+S/4Ug8Caf8A8/t3+S/4VU/4Ta8RDJJpLRoO7mmnx9J2sov++zR/Y+C/59oX9o4n+dmh/wAIHp2P+P27/wDHf8K9M8POx02OI4IhAiB9QABzXnug6n4k1og2Whjyif8AXSMUT8yOfwr0TRLW4tLMJctG0rHc3l52j2Ga0p4PD4a/sopNkSxNatb2juX6KKK0JCiiigAooooAKKKKACiiigAooooAKKKKACiiigAooooAKKKKACiiigAooooAKKKKACiiigAooooAKKKKACiiigAooooAKKKKACiiigAooooAKKKKACiiigAooooAKKKKAA1i614X0PVwTeWEfmH/AJaR/I/5itqii9gtc8t1j4XeTKLjT9Q8yFGDNFcLyV7gEf4VnS+EbHOPscP/AHwK9jIBBB6GsLXfDel3tvK/ktDIFJ3QsUyfwrWNTuZSh2PNv+ERswOLOL/vgU3/AIRK05/0OL/vgVqP4Rte0t3z/wBPL/41BJ4PtTx5t2f+3h/8a1MrlH/hErX/AJ9Y/wDvkUxvCVsDxbRf98itD/hEbQYG+6x/18P/AI01/CFof47r/wACH/xoHcojwpbZ5to/++RSHwvbKcrax/8AfIq6vg+zHe4/7/P/AI1J/wAIlaY6z/8Af5v8aBFJfDFuRgwRfkKF8MW6n/URfkKsv4QssYxMf+2zf414/wDG2xutE1W3TTLy6tg0W5gsrEE5POM0DPWT4bth/wAsYvyFIPDluf8AllF+Qr5Y/wCEz16ycpcTySgdwxz+VaFl8QLmYf6yT0OSaA1PpxfDdqBzHD+lO/4R62x/q4f0r5zi8ZXDDJkf8zUw8YTY/wBY/wD30adhXPoX/hHbfPEcX6U1vDkH/PGP8hXz03jCftcSr9HNfRui+FrK50izuJI2LSwI7HeeSVB9aT0Gncpt4cg/54x/kKT/AIRy37xRfpWrL4Q08jPksR6b2/xqs/hDTugt/wDx4/40rgUG8N2ynlIv0preH7XH3Iv0q8vg3S85NqPzNOPg/TSeLc/99GncDMHh2AH7sWPqKkGgW+4fLF+Yq9/wh+m/8+wJ+poXwhp3e1U/XNArlNtFtV7Q/wDfQoTRbQnOYB/wIVxXx20GLTPDdtcWG62lMxG6NiDjbXgB8V6xp85jmuZZAO5alcZ9epo1njl7f/vsUv8AY1mP+Wlv/wB9ivlK38c3ZHLt+Jq0nji4xy3607CufUo0azx/rIP++xSNo1n08y3/AO+1r5ePjecjiTH41BL4zuG6Tkf8Cp2FzH1KdEs+0kH4OKifRLT+/D/32K4j9na1t/E/h3Ury9jW4eK7Eal/mwNgP9a9Mk8IaVjmxiP/AAGpKMRtEtu0kH/fYpjaTag8ywf99itV/B2mE/8AHlDj/dFMPg3SCObCD/vgU7iMv+yLMnPmQf8AfYofR7IDiWD/AL7FaY8HaQvIsoR9FFRv4R0ljgWUX/fIoGtTMGk2uf8AXQY/66Cg6ZYqfmubYfWVa108H6Uqn/QoR/wEVV1Lwhpf2K4YWEBIjY58sehoApmx00f8vtmP+2y/40+O00vGDfWf/f5f8a+StQ1C806+kU3Egj3HGWPFLH4plGMz5+rU0I+t/sukL/y/WX/f5f8AGpFttI/5/wCy/wC/6/418mL4qbvKp/4FUq+KM/8ALVP++hT5fMTk+x9Wm20cnnULEf8Abdf8aVrfRQuDqVh/3/X/ABr5UXxMv/PdB/wIU8eI4z1uU/76FPlFzvsfUnkaJn/kJWH/AH/X/GkMOh99TsP+/wCv+NfLn9vwn/l5j/77FKNfh/5+o/8AvsUcnmLnfY+pPL0DH/IU0/P/AF8L/jSGPQf+grp//gQv+NfLn9vwd7qL/vsUf29bn/l5i/77FHJ5j532PqMLoWMf2rp//gQv+NKi6COurafj/ruv+NfLq69bf8/MX/fYqZdetf8An5i/77FHIHP5H1Dnw/tI/tWw/wC/6/40J/YA5Graf/3/AF/xr5jXXrX/AJ+of++xUg1+1/5+4f8AvsUcgc/kfS5OhA5/tXT/APv+v+NOD6Ceuq2H/f8AX/Gvmj/hILX/AJ+4f++xSf8ACQ23a6h/77FLlDnZ9LM2g/8AQVsP+/600PoAB/4mth/3+Wvmo+Ibf/n6h/77FMbxFB2uov8AvsUco+Y+li3h/vqtgP8AtstMaXw70/taw/7/AC18zv4ii7XMf/fYqvJ4iQdLlP8AvsUcoKR9NtL4dAP/ABN7D/v8tRfaPDY66vYf9/RXy/N4lx0uE/76FULjxI5GPPH4GlsO59YG58OHj+17D/v8KN+hMPl1OyI/66ivmX4XyHV/iDo8cj+ZF9rQMG5B5719cjw7pwAH2aD/AL4FIZz4bRM8alZf9/RUinQdvOqWQP8A11FdAvh7TccWsAP+4KcPDlgesEH/AHyKYHPf8SLtqdkf+2ooDaJnnUrL/v4K6BvD+ngc28H/AHyKT+wNOBH+jw/98ikFzD8zQSP+QpZ/9/BR5mgY/wCQpZ/9/BXQLoWnjpBD/wB8ipV0Sw/54w/kKBHNC48OpwdXsgf+ulKt14c76tZ/9915r+0+bfQ59AMLJGZhPkLxnGz/ABryGLxO6jib9aAPqsXXhrP/ACF7P/vunG98NY/5C9n/AN9V8sr4ol/56/rSnxPPj/W/rQFz6nGoeGQv/IXs/wDvqo21Dwx/FrFkP+B18qzeJbsj5XY/jVKDVL/ULsRNIypnn3pDR9cLeeG5R8mr2bD2fNBuPDw66pae3zVnfBfSbQ+A7XzBEG3vnOM9a7X+ybD0h/ShXA5rz/D2f+Qpaf8AfVI1z4c76pa/99V0c2iaa5BKw5HuKUaTp/A2QfpTuI5n7V4dB/5Clof+BUfaPDp/5idtn61039kaeOgh/Sj+ydP9Ic/hQGxzX2jw8OupW35//WpDd+HP+gnbfmf8K6kabp+MYg/MVT1DTtOWznbdbqFjY5LDjg0Bc537f4XU/wDIYtPzP+FO/tLwtjnV7b8M/wCFfLn/AAkRVztfvUg8Sy9pKYXZ9PjVPCo/5i1v/wB8t/hTG1bwqDk6vb/k3+FfMTeIrkj5ZP1qpPr2pMDsy340BqfVA1zwio+bWLYf8Bb/AAqJ/EPgoOFOv2YJOADnJ/SvkC41zVri4aESGPBwTnpXXfDmzEmv2M9wxdhMhLOenIpXHqfTi6j4aYZXUov++G/wpwv/AA4f+YlD/wB8t/hXQxWemYGJbY++9al+x6aektt/32tArnPJfeGsc6lD/wB8t/hSm98N9tRi/wC+W/wroPsOm/8APS2/77WnpY6cP47c/wDAhQM50X/hzo2ox/gjf4U/+0PDQX/kIxg/7jf4VvfYbLdu82Db6bxThY2B/igx/vCjURzyaj4bT/mIxn6Rt/hU0V74emP7u9U4/wBhh/St77FYD+OH/voVreG9PsZL8OYoJQikjIDbTxz9aTdlcaV9DnW8KJ4ksRbW8sltEWVjMYT0HYZxmul8OeAPDmihXW1N3cD/AJbXJ3nPsOg/KuqAAAA4paxlNs3UEhFAUYAAA6UtFFQUFFFFABRRRQAUUUUAFFFFABRRRQAUUUUAFFFFABRRRQAUUUUAFFFFABRRRQAUUUUAFFFFABRRRQAUUUUAFFFFABRRRQAUUUUAFFFFABRRRQAUUUUAFFFFABRRRQAUUUUAFFFFABRRRQAUjqGUqRkEYNLRQBg6j4fabLWeo3Fs3ofnX9ea4vXLTxPp12sD6hGwcZVkGcjPv0r1Kuf8X2izC2lBZXEgGQcZGc4rSE3ezM5xVrnGW1prsi7pNUnH0VR/SrH9m6mRzrN1+aj+laf9nQuskbgsCQetNOn20iwxtGMIOK2MGYl3p2rBSY9au8/7y/4Vz+qr4ntwTHrd5/47/hXY3lhBLqccbxjaqDFY+safDJ4ijh27UEI+UdKBnneqa34xts7dbuPxArzzxrrmsXWZ9WP21kXActhgK9a1XT45PF93bnd5SRphM8dK8p8TWu+yLyzFUa4dWc9FQE/yAoA87u8Xv7xLeaMn+Fk/rV7wrpW+G4MsbKfMAGRjPFdTJr3h2DEZ1qzGwAcyc1C3ibwwrfNrdl/38paD1KMmkwg4Ib86ifSLfsG/Orsnijwvk/8AE6s/++6rHxP4Z/6DVn/33/8AWphZlJtKgzghvzrt9E+JHizSbWOzbU57m3iULGHb5lUdBn/GuMm8TeG9xxq9of8AgVVZ/Efh5mONWtcf71GgHu/hDxh4j8RQNNHqE8SK+zGcnOB/jXdafZ61MqmXWbznr84H9K8j/Z+vLPVodUjs7xLiKB42wjfdLf44r3m0sIU1CZPLG1ogSMe9IRVTS5iuZNXuyf8Ar4xUFzpFwFJj1i7H/bya3Esrd4mhMSlBJnGPaob6ygzawCNdgY8YpgcXqVlrUQYxa3fD6S5rk9VvfFduW8vW73A9Xr0bxNYQvq2nw+WApViQBXMeIdMjbxSsQXCLbKdo4B5PakB4/wCN/E3iD7KU1O4e/hUkhXY8fSvMdVKXpMkcLqx/hIr0f4irHZaQl3dT7EMzhmY8AbsAV56dc0QD/kJwfmaLlWEFlF/zzpPsEJzlKQ69oeP+QlB+Z/wpreINCx/yEoP1/wAKVwsKbC3/ALn6002Vv/c/Won17RO2pQ/r/hUZ17R/+ghD+tPQNTqPBvirW/CTyLo97NDBKcywhyFY+v1969V8E+M/EviYzMNQuYUiYLw5JzjNfP51zSP+f+E/nXrf7Nl5aarrWoWtvcrNEkQdkXoCcjP6UXBo9r0yx1WcK02sXvPXMxFbcGihx+91S5J9PtbD+tS2mnwLa6XKI1Db1BOK2zZwR3qyLGoJQgnFCJOfm0W3OduqXGR/0+N/jWNqOkTqCYdXuse10f8AGu1urWGKzn2Rgbo+cDrWNrllBF4bnZI1G4LnjryKYHmusw65b7vK1q/GOmJia4DxX4i8T6ZbSu2rXcqKpLK0jcj8DXsPinT4VtdNjWMBXm5xxn5TXkHxpSDT9I1C5dvKRJETPYAgA8fjQCPKdYvItUQu0e1s8qe9Zq2cB6xiq41rSR/y+J+Rp41zR+96n5Goui1GxP8AYbf/AJ5j86kSwtccxj86qjX9GH/L6n/fJo/4SHR/+fxf++T/AIU7oLMuf2da/wDPMfnR/Z1t08ofnVT/AISTR/8An8H/AHyf8KeviTRO96P++T/hRdBZltdNte8Y/OnHTrX/AJ4iqi+JtDH/AC+j/vg07/hJ9C/5/R/3wf8ACi6CzLI0617winjTbTtCPzqmfE+hf8/o/wC+DSr4o0If8vv/AI4aLoVmaCaZa/8APJamTTLXvCtZy+LNAH/L7/5DNSr4u8O/8/3/AJDanp3CzNAaZaf88Fp4020H/LBazx4v8O/8/wB/5Dal/wCEx8O/8/3/AJDNF13Cz7Gj/Z1mP+WC05dNs/8AngtZo8Y+Hc/8fx/79mnDxl4bH/L8f+/ZougszSOm2YH+oWom0+2zxCtU/wDhM/DeP+P0/wDfs0xvGPhzten/AL9mi6CzLp0+26eUtRTWFsBxEKqf8Jh4d/5/W/79mo38YeHz/wAvjf8AfBpXXcLPsSvZW3/PJaryWcHaMCoZPFWhHpdn/vg1XfxNop6XJ/74NK67jszX0a+OjytcW6fvcjbjt716Z4RvdY1e1juJb64QOM7VcjFeKSeItIJ4uD/3ya91+Ay22q6LZXaHzUMk0YJHYU076Ca6ncaHpbyKGnv5iPVpz/jXY2Gg6eApnueo4JlY5/WmeG7OFfDN4Cg+S4kxx06V1lvEh8O2zlRkQrjj2qrEMzl0TRE+V5FB9CzVDdaHpW7y45gr+gc5rqYYUeJWZRkKKS3gja9ncoNwbANAzzHWdGRC5gvWIHXbOeP1ry/x7qmreHoo54b2Z0eTaVLZ7GvdtQtI30S+yoJ8xh/4/Xzx+0rdWei3WnpO5ijlJ4A4JCj/ABpPQaVzg9Z1K81y8+1ahKZmAwgY5CD0FV47aL/nmv5Vix+KNEX/AJeW/wC+DUy+LNCHW5b/AL4NTddy7M3I7aL+4KkW3izjYKw18Y6EP+Xh/wDvg0q+MdCzn7S//fBp3XcVn2N3yYR/yzFRwBrS5aaOHec5UZwKyP8AhMdBI5uH/wC+DSnxhoB/5eX/AO+DRdBZnpnhDUtX1FSr3LwIpwEj4r0fRNLeUgS3UrnGSDKeleY/Ci5tdX0u6urR/MjSZVyRjB4/xr6C0K0j/wCEsA2DLWrZ49xT3J2I9L0LTpU+Z1fbjd8xOK3bbRdDSItiMqv3iFPFW/Ddug1PUU2jACnH51qWMKeZOu0bdw4piMSXRtDaMsojC+oUisbVdD0oBWikRd+duCRmu4lhTaqhRjzBVLU7WM6japsGAj4/SgDxPxvBcaZYXN1aXUoaFC2BISPxrybVdd1fU0MFxdyCE9UU4B+vrXrf7RE1rovg681C4LLELxVYoOeWAxXziPHPh8H78+P+udJtIaTZ0CWMZHEa8e1WYbGI9YV/KsCL4geGlUgm5z/1zqaH4i+GUXk3Oc/886XMu5Vn2N4WMQ/5ZL+VTrp8RH+qX8qwE+JHhbAz9qJ/65f/AF6kHxM8LAf8vf8A36o5l3FZ9iObQbwX88yW+5GkJXBHSr2mtq9tdpBsW2Rh8pUAk1XX4neFtpH+l8/9MqveGvE2i+J9btrWwWYyxMHbemBtyAf1Ioug5Wd5oNpPKgee8mIHUtJgV3elaLZ+Uj3MgCsAQWYkGsrwxYomh6mojGBcMM+nyA16HbWqHwbYyFQf9HTB/CmSySx0LR7ZV85E5AIyhOf0rcGmaFEFV4YwT0/dH/CrTRJ/ZELlQT5a/wAq0RCrW6NtB+UGmIxLjSdFZvKaNA3p5Z/wrLu9C07J8mRFAODhiuK7WOJGkZyoJ4qrLaxmFhtHLZP50DDwh4P042MV3dvNcs+SEZ/lGD7cmuytreC2jEdvCkSDsi4FJYKqWcKooVQgwAPapq5m22dEUkgooopFBRRRQAUUUUAFFFFABRRRQAUUUUAFFFFABRRRQAUUUUAFFFFABRRRQAUUUUAFFFFABRRRQAUUUUAFFFFABRRRQAUUUUAFFFFABRRRQAUUUUAFFFFABRRRQAUUUUAFFFFABRRRQAUUUUAFFFFABRRRQAVl+IBuih/361KzNe+5F/vVUPiJlsZca/M/FMRf3i/SrEY+ZjUar+8X6V0nOUJV/wCJqpPZKxb8FvFmewiFb7KTqQB/uCse7T/irHHpEtIDlLyMHxrqHtGn8q8r1y0juNKgilXck1y6sPUEkEfrXrUq7vGWqH0VP/Qa8xv1zYab73Z/9Cqo7oUtmfNHxN0+z0/xpqNnawJHDFIFReuBgd65G6gDj92qg123xfP/ABcTWB6T4/QVx7Guar8b9Top/AvQypFKNtYYNM/CrlzA0j7lI+lVnjZTg8VBYwYpaKDQB9S/sKJusPFLf9NrYf8AoVfW9uudUlPpCP518ofsIKP7I8Tn1urcfo1fWlqP+JlMf+mS/wAzW8NjCe4sQBL4/wCelQXwxdW4A/iNWoeJGHrIaiu1/wBKg9cmrIZja8u7XbA452NWDqkf/FaSAjOLRB+pro9aXHiCx/3G/nWHqS/8VtN/16J/NqQz5u/aGTb8OpD/ANNz/wCjBXzCa+qP2hYDJ8NwoIBab/2oK+Xbi3kh++OvQ+tZVNzWGxXNNNOammszQTPuaAfrScelKMelADhya+j/ANhqPPiXXj1xbR/zavnKNSTwCa+mP2F4z/b3iEkY/wBHiH6vVR3JlsfWtsn+gaYP9tK1JlzdoP8AZNU4VxZ6Zx/GlacwH2lCP7prcxKuop/oUmP7n9ayvEKf8U1IuOqr/OtnUP8AjykP+xWV4j48OOT6L/OmScx4sh/daMP+nj/2Q14V+06gXwVrRx/y8Rf0r37xaMrowA6zn/0A14P+1AP+KD1o/wDT1F/7LSew47nyGaKU0lcx0hRjPegCpoV5O5e3egCDaaMVcKJ/dFN2L/dFAFXFGKtbF/uijYv90UAVcUYq1sX+6KXav90UAVcGjHvVrav90Uuxf7ooAqbaNvvVwIv90UoRP7o/KgClt96NvvV7Yn90UbE/uj8qAKW33pdvvV3Yn90flShE/uj8qAKO2kC1f2J/dH5UuxMfdH5UAUNtN4rQdF2NhRnHpVJkIPORQAyvrX9lJN3gXTT/ANPdx/Wvko19e/skpnwFprHp9suB/OtKe5FTY9u8OJjw9qII/wCXmX+ldPZKD4cth/0wX+VYOgp/xTuo4/5+Zf5Cuh09c+G7Y/8ATBa3MC9CmLcf7ootkxNOe+4VJAD9nGR/CP5UWw3XE/8AvD+VINTmLqPOiX3/AF0b/wBDr5Z/bbixNoZ/25P/AEFK+r7hf+JHqA6/vH/9Cr5f/bUQE6ESM/PJ1/3VqJ7Fw3PlrZxSEYFapRcfdH5VnyxsMkqQKwNyGikPFGfamA4GnCmj6U8CgD6L/ZhTd4L1M46XY/ktfT+lLt8Xw+9q/wDMV8y/stDPg7Vh/wBPOf0WvqLTlB8X2/8A17P/AEreOxhLc2NBQjWdQ91WtO0TNxOOnIqloo/4nl//ALi1pWg/0mcY7imSMmADqB/z0FV9QTOpWp/2H/pV2dP3g/3xUV+mNStPTa/9KYHz5+2HFj4Qaq2Pu38X/owV8P8A4V91/thp/wAWY1s+l5Af/IyV8K1hPc2p7BRSZpRUFhTh9KAMmp4YC/OQBQAQQGQZyAAa9I+BMSp4yCgf8sf/AGda4OCMRrgZOa9C+BQz43A/6Yf+zpVQ+JEy2PqPwvGf7F1pMdLg/wDoArtrFc+AbE9xbrXK+F0H9l62P+m2f/HBXX6Ou7wHaA/88BXQc50SrnRYf+uS/wAq0Y1xZIP9gVSgG7Q4faJf5Vo2wzaLn+4KAFiXBx7ComX9yf8AeqzGOD9BUTf6oj/aoA6K0/49Yv8AcH8qlqK0/wCPWL/cH8qlrlZ0rYKKKKBhRRRQAUUUUAFFFFABRRRQAUUUUAFFFFABRRRQAUUUUAFFFFABRRRQAUUUUAFFFFABRRRQAUUUUAFFFFABRRRQAUUUUAFFFFABRRRQAUUUUAFFFFABRRRQAUUUUAFFFFABRRRQAUUUUAFFFFABRRRQAVm65/yy+prSrN1rkw/U1UPiJnsUY+jH3/pTF5mH+7UsY4b601F+cH/ZroOdlIH/AImp4/gFZFwM+LZmPaFa2BzqTf7orKdN3iicntGtAzliM+L9XPYBf/Qa80uRm00getwT/wCPV6goA8T62x7Y/wDQa80kXNtofvN/UVUPiRE/hZ8y/GEMnxG1repXNycZGMjArjWZfUV9zXmj2F+Qbuxtrj3liVv5iq6+D9AJydE00/W0T/Cuqplzcm+Y56eYJRSsfDpZfUfnVe5wxBXnivvFPBvh7H/IB0v/AMBE/wAKz/FXhDQIvDt+6aHpqMsDEMtqgIOPpWay2T+0V/aUex8L7TnpTcNjoa9i1zRrSOG7K2kI2uoGIxxWHe6bAuowqIIwDGDjYKc8snDqaRxsZdD2/wDYNjzoHiZj/wA/sA/8dNfWFvj+05xj/lmv8zXzX+xbAsWheJNqBR/aMQ4H+yK+lbUD+0Jz6xr/ADNczhyPlNebm1Hwrlyf+mhqG8GbyDj1qxF984/vmoLoH7XB+NAGXrAx4gs/+uR/nWJfr/xWVy3pap/Wt/VhnxBaH0jP86wtRH/FX3h/6dox/OkB88ftBED4ex9v3v8A7OK+ZdTG+EbeSD2r7O1q1iuY7CGeJJYyHJV1DA8+hqpd6BpQ026b+zLIEQuc+Qv90+1aRwzq63JliFT0sfE7q3oajIOehrvp7OLzABEn3T/CKzLi2QWykIvLelDwcl1KWJT6HJkGgA10stugkUbV6elKkCeco2Lj6VP1R9x+3XYxdOKiYljjjivp79iDB1vxCRzi3i/m9eTfC+zhm8b6PG8KOrXQyrKCDX2L8M7C1tNSufs1tDDujwfLQLnr6U3hnCPNcn6wpS5bHpEOPsem+u5a0JAPtKj/AGTVKFP9E076r/Kr8o23C5/uGsyirqcZawkUf3f61l+Jl/4pw5/2P5itrUBiykP+xWV4k58Otnplf51SEc/4pXnRf+u5/wDQDXg/7Uox4B1rH/P3EP5V734sHzaLj/nuf/QDXh37SyhvBmrDH/L5H/Si19AvbU+NiD6GjBx0NdAkS8/KPyoWFdj/ACj8qX1d9yvbIwFB3DIOM1cIP90/lW5bwIZE+UcqO1falhomnm0hzYWv+rX/AJZL6D2raGCcuplUxih0Pg4q390/lTc8471953Wj6evSwtf+/K/4V8w3dtD/AMNLm28mPyv7XUbAo242jtWdXC+ztrux0sV7S+mx5Xtb+635Uux/7jflX3vZ6Jp5AP2G2/79L/hVxdE0/H/Hjbf9+l/wrZYBvqYvHpdD8/Nj/wBxvyo8uT+435V+gn9i2H/Pjbf9+l/wpRoun/8APjbf9+h/hT/s9/zC/tBfyn59eXJ/zzb8qXY/9xvyr9A20Wwx/wAeVt/36H+FZPiLSrJNIvsWduCLeT/lmP7ppPAW6lRx6fQ+EkBfIUFsegzUgjl7RP8A98mvav2TLeG48Q68s0SSAWsWNyg4+c19MWulWZUYtIP+/YrGjhfaR5rmtXFezly2Pz+8qX/nlJ/3yaUQzf8APKT/AL5NfoUulWWP+PWD/v2KcNKsv+fSD/v2K2+oeZj9f8j88/Jn/wCeMn/fJpfJn/54yf8AfJr9CjpVn2tYP+/YqN9Ltcf8e0P/AHwKX1DzH9e8j89zFKoJaKQAdSVNEavJny0ZsdcDOK+1PizY28fw919lgiUiwlwQg4+U15R+ydDFNp3iASRo58+HG4Z/hasZYa01C+5tHE3g522PBRDP/wA8ZP8Avg1Vvo3UrujdTjuCK++xptvtz9ni/wC+BXgX7TVpHFrml7I1XNo3Qf7davA2V7mccZzO1j53KNn7p/KvsD9kgEfDvTiev264/rXzLLEBI4x/D/SvqT9lNc+BrEdMX0/8jWXseTU2dTmVj23w2v8AxT+pj/p6l/kK39PGfDVuP+mIrD8PDOg6oB/z9SfyFb2mj/imrb/riKBGjEMWq/7gpLRf383uwx+VOhBNsv8AuCktuLiX6j+VAGFcrnRtQx/z0f8A9Cr5j/bTid49C2RsxEkn3Vz/AArX1BPxoupDvvf/ANCrzr4mQLJe2wZQ3Hce1EYc75ROfIuY+Efs1yf+Xab/AL9mq97DNHAxkglQHgFkI5r7YtLKLA/dp+VcP+0PaRr4AhYIoIv4+g/2XrZ4HTczWMu7WPkso/8AdP5Unlv/AHT+VdPLENrcfxUeUOOKz+qeZr9Y8jmxFJgDY2fpUqwy5/1bflXVxQj7VFx6VdtoR+/47iq+p+YvrPker/ssI6+EtZV1IPnZ5+i19R6eu3xbacdbZ/6V86/ANNuiauMd/wCgr6NsR/xVdhnvbP8AyFZuPI7DUubU29IA/ty9H/TNf51o2g/0if6iqGlrjX7v3jX+daFqf9LnX6UgHygFvo4qG9H/ABMLX6P/AEqaUEHOf4xUV6D9utT/AL39KYHhn7YERb4JeICASRdQHj/rulfBvlSdNjflX6DftRx7/g/4gGP+W0J/8ipXxXHbgzoMVUMP7XVMTrcmhxwhlJ4jbjrxSrBMfmET49cV3enWwNzOCOiGtGwsw2is23pNj9K6IZY5dTOWMS6HnEdndE4FvKT6BDWnb6Tqirg6beA5/wCeDf4V7VomnqdU+6OPKPT6V9CTWC46D8q0nlXL9ox/tJN7Hwyumal/0D7v/vy3+Fd38EbO7g8bo89pPEhhI3PGVGdyeor6aubBeeKxNWthC1uwH/Ldf61lLAckXK+xccbzvltudf4VjzY64P8ApqD/AOOCut0of8UFaY/54/1rmPCaZi1wejL/AOgV1ejLu8A2p9Ij/M1zG50FqP8AiQQe8S1fg4tY/wDcFU7Pnw/B6iIVdgwLRP8AcFAEo6HHoKjdf3TH3/rUkWc89wKRv9U4/wBr+tAG5Z/8esX+4P5VLUNl/wAekX+4Kmrme50rYKKKKQwooooAKKKKACiiigAooooAKKKKACiiigAooooAKKKKACiiigAooooAKKKKACiiigAooooAKKKKACiiigAooooAKKKKACiiigAooooAKKKKACiiigAooooAKKKKACiiigAooooAKKKKACiiigAooooAKzdZ5eEfWtKs7VuZ4PxqofETP4SnHkA/Wo0Pz/VakU/K/wBT/KmIPmz/ALNdBzlQf8hJ8elZHJ8UXP8AuLWwQf7Tcj0rKjGfFFz6bAP0oGcyqk+I9cYDof8A2WvOCP3Ogj/prn/0GvSUb/ifa9j+8R/47XnLdPDo9X/+JrSlrOPqZ1fgZ1cCVcijFQW47VfhFfQTR88mOSIYrL8XRgeGtQ/64N/KttRxWR4x48M6h/1waoiveQSeh80eJogLe9wP+WqVzWpR/wDE2hGP+WS/yrrPEo/0a7OOs6D+dc3qYxrcQ/6ZL/KuutE2oS0Pd/2OUx4e8RH11OP/ANAFfRduM38+OyL/AFr56/Y8T/imddb11VR/44tfQ1p/yEbg/wCwn9a+YxCtVke5S+BEsON5/wB81BdD/TYB9amiH7z/AIGahuOb2H6H+dZFmfqwz4gtcdoj/OsG/wA/8Jhej/p2T+Rre1H/AJGG3/65H+dYV4c+L9QPpbR/yNAHm14m6TTfdHP8qlv0A0m74/5YP/6CaZJzLpv/AFyf+lWNT40a9Ppbyf8AoJr0sIvcODFP3z5QuFHmf8ANZF0v+hJ/vVt3I/ef9sz/AFrIuh/oUY/266ZRJiyncLiRfoKSNf3y1Ncj96v0FMjH79aycdTVS0Ou+Ea7vHmi/wDX1X2N4FXGozf9c/8AGvj74QDPj7Rf+vivsXwQP9PnJ/uf41lXX7pkw/io7mD/AI99O+q/yq/cczr/ALhqjBxbad9V/lV6QZmH+6a8w7yHUObGT2UVl+JT/wAU8ceqfzrVv/8Aj0f021meJsDw+fqn86oRheKx+90Uekzf+gGvD/2lP+RO1QY/5fU/pXuPir/X6N/11b/0A14f+0oB/wAIfqh/6fU/pVx+JClsfLMa9c0qL8j05RwaE/1b/WuxIwuWLYfvYx/sivuSxj/0SH/rmv8AIV8PWozNH/uivuexGLWL/cX+VdVNaHFiXsQXaZSvlK5H/GU5H/UZX/0EV9ZXf3TXyfcf8nVn/sMr/wCgiuXFrWPqjXBv4vQ+srJMKKuqgxVe1HyirqdK7EcMmM8uk2e1TgcU0rTFcgZBisTxQoGjX3/XvJ/6Ca6Bl4rB8VD/AIkt9/17yf8AoJqZ7F03qfOX7IHPiPxAP+nSL/0Ya+pbVflAr5b/AGPf+Rm8Qf8AXpF/6MNfVNqPlFceD/hI7Ma/3jJFSn7RTgKeBxXWcdyEpUTrVphioJRxQFzhPjAoHw78Q/8AXhL/AOgmvHv2RObHxD/13g/9BavY/i+P+Ld+IP8AsHzf+gmvHf2QCPsfiId/Pg/9BeuKov38Tvpv9xI+g1X92K+ff2o1/wCJ3pR/6dH/APQ6+h1X5K+ff2pVxrOk/wDXq/8A6HXa17py03754lMv71/93+lfT/7KY/4omzx/z/z/AMq+Y5h+9f8A3f6V9PfsojPgq0H/AE/z/wAq4K60PRps9u8ODOiaoB/z8yfyFbmljHhq2/64isXw6MaPqmO11J/6CtbemD/imrc9vJFcpsaUH/Hsp/2BSQAfaJPw/lSxf8egx/cFJbf6+T14oAxp1/4lGo+hd/51wfxBXN5Afb+ld9ccaRqQ/wBuT+dcL8QB/pkH+6P5Vrh/4iMq38NmFaL0rh/2i0/4t0h9L+L/ANBeu8tB0rif2iFz8OB7X0X8mr1bHmJ+8j5klGFP+9SEdKkmHyt7PSdAKzsddy3Gv+kw/hV62Uf6R9RVSIZuofwq/bjm5+oquUls9o+BC/8AEm1gD0H8hX0TZc+KtO/693/kK+efgP8A8gjWR/sj+Qr6FshjxPph9bd//QRXl11+8Z2UvgRuaYD/AMJBd/8AXIfzrQhH+nTfQVS04AeILkkdYR/OtC3/AOP2b/dH86yLHTj5v+BCor4/6Xaf8C/lU045b/eFRXqj7Va/Vv5UDPJf2mk3fCPxEMdHiP8A5Fjr4viQC4j+tfa/7Si5+EniX/tmf/IkdfFqD/SY/rXpYGN4v1OTEPUtaWmb24GP+WZrW0tAfD8nHSf+lUNIX/T5/wDrma1dMX/inpz/ANPA/lXu0YafeebVf6HbaJEBqOQP+WcR/lXv8qDb07V4Roq/6cP+uMf9K99kHyD6VOJWqOKm9WZNyg54rnvEseIIG9LhP611M6da53xUMWMZ9LhP61x11+5l6HZQf72PqdD4UGDrq+6H/wAdNdToXPgO3/65sP8Ax41zPhUbp9b5/hjP6Gun8NAt4HgX/Zf/ANCNfPHuG/Zc6BBjvGKu2/NmoH92qenAjw/Bnn90KvWoxZIR/cpobJYsEZH90U1h+7f/AHv60sJIUH/ZFDH924/2qBGzY/8AHpF/uipqgsP+POL/AHanrme50rYKKKKQwooooAKKKKACiiigAooooAKKKKACiiigAooooAKKKKACiiigAooooAKKKKACiiigAooooAKKKKACiiigAooooAKKKKACiiigAooooAKKKKACiiigAooooAKKKKACiiigAooooAKKKKACiiigAooooAKztW/10X0NaNZurf6+L6Grh8RE/hKifdb6mmIf3mPanr0b6mo4/wDXNnsK3MSuOdRk+lZMZ/4qa79gB+grXj5v5RWTb8+JL0+m3+VAHLQMRq3iFj2kb/0CvPjzJ4c+v9Fr0FeL3xC4/wCej/8AoNcAB+/8Oj2J/Ra1o/xI+qM6v8N+jOvgHNX4hxVC37VowCvoJnzpOvSsfxr/AMivqH/XE1theKxPGwx4X1D/AK5f1FRD4kKWzPnHxOP9Fu/+vhf61zepj/ifIPSJf5V1HiYf6Ldf9fS/1rm9VGfEA/65L/Ku6qaYd6Hvf7Ho/wCKU1g+usD/ANASvoG2P+n3H+6n9a8B/Y8H/FG6qfXWP/ZEr363Gb24x6L/AFr5TEfxZH0FL4ESwcv/AMCNQXHF7D9DU9uPmz/tGop8G+h9Np/nWSKM3UTnxHB7Qk/rWFcnPivUj6QJ/I1u6jj/AISSHH/PD+tYNx/yM+r+0Kf+gmgDzuUDztMPrA39Km1X/kB3x/6dpP8A0E1XY5m0welu39Ks6xxoGoH/AKdZP/QTXqYNfu/medi3758qXI/eH/rmf61kXQ/0OL/eNbNyPnP/AFzb+tY93/x5xH/aNdk0KBBcD/SF+gpsY/frS3H/AB8L9BRH/wAfC1izRHZ/Bwf8V/o3/Xc/yr7F8Ej/AE2c/wCxXx58Gh/xX+jf9dz/ACNfYngr/j7uP9ysMQv3LCn/ABkdtFzBp/1X+VXpeLhf901Rg/1On/8AAf8A0GrsvM4/3DXlHoEeon/QZB/sisvxMufD+D/eT+daN/8A8erj2FZ3icn+wM/7afzqhGJ4rOLnRh/01f8A9Arw79pP/kTdT/6/k/pXuPik7rzRh6SP/wCgV4h+0mP+KN1Mf9Py/wBKun8SJlsfLafdNKg/dvSxjg/Whf8AVvXekczLdoMzxj/YX+dfc9mMW8Q/2F/lXw1ZD9/H/ur/ADFfdFsP3Ef+4P5V1RWhx4h6or3g+U18nTn/AIypP/YZX/0EV9Z3o4P0r5Llyf2qSP8AqMj/ANBFceL+x6o2wf2vRn1vZnKir6VRsRwK0FFdi2OGW44UGiimTca44rA8U/8AIFvv+veT/wBBNdA44rn/ABXxot9/17yf+gmplsXDc+cv2OufE3iH/r0i/wDRhr6qtelfKn7HX/Iz+IP+vSL/ANGGvqu0+6K5MF/CR2Y3+Ky0op1ItKa6jjuIwqGUcGpjUcg4oA4L4vj/AIt54g/7B83/AKCa8b/Y/P8Ao3iL/rtB/J69n+L6/wDFvPEH/YPm/wDQDXi37H3/AB7+Iv8Arrb/AMnrjqfx4noUv93kfR8YylfP/wC1OuNW0k/9Or/+hivoKLlK8A/aqGNV0j/r2k/9DFdvQ46fxnh0w/fP/uf0r6d/ZR/5Eq1/7CM3/oNfMc3+ub/c/pX05+yiP+KJtj/1EZv/AEGuHEr3T0qW57j4dH/Eq1Uf9PUn/oK1taTz4Zth/wBMqxvD3/IL1T/r6f8A9BWtrR+fDNuf+mVcR0F+I/6MuP7gp1uAJ5T9KSD/AI9l/wBwUsP+ucfT+VAGPcf8grUz/tyfzrhfH/N3B/uiu7uP+QdqYH96SuE8fcXMH+6P5Vth/wCKjKv/AA2Y1r2riv2hOfhwf+v2H+TV2lr2rjv2gF/4tvIf+nuH/wBmr1rHmLdHzLOPkk/36Yw+UVLP92T/AH6aR8i1FjpLcXF1B+FaNsPmufwrPQf6RB+FaVsPmuaohnsvwJ/5Bmsj/pmD+gr6Hs/+Rj0v3gf/ANBr54+BJ/0LWB/0xH8hX0PaYPiPSCP+eLf+gV5OI/iM7qPwI3rE/wDFQTj/AKYj+dX7c4vJf90Vn2I/4qKf/rj/AFq/B/x+y/7tYmhLNwCf9oGo73/j4tv95v5VLcjcjD3FRXx/e2w/2yP0oGeY/tHLn4S+Jx6Ih/8AH0r4pj/4+I/96vtr9okE/CjxQP8ApiD/AOPJXxMv/HxGP9r+terl3wv1OLFfEaOkD/iaTj/pma19IAPh269px/KsjSf+QrN7xmtjRh/xT16PScfyr36J5db/ACO80hcXakf8+8Z/lXvjcxKfVRXgmjn/AEmP/r1j/pXvgGYI/wDcH8qyxfQ46W7KNwODXOeKR/xLwT2mQ/rXS3I4Nc54qH/EtP8A10T+dcVb+DL0O3D/AMSPqb3hbIu9YHrHH/Jq6vwxg+CogOwf/wBCNcv4VGdR1b/rjEf/AEKum8KHPg4exkH/AI8a+dPfOh0vnw9Bn/nnVuzybFP92qekN/xIIfTy/wCtXbM4sVP+yaBEiZ2j6YpHGEf60sJyB/u0N92QH1pgbGn/APHlF/u1PUGn/wDHnH9P61PXM9zpWwUUUUhhRRRQAUUUUAFFFFABRRRQAUUUUAFFFFABRRRQAUUUUAFFFFABRRRQAUUUUAFFFFABRRRQAUUUUAFFFFABRRRQAUUUUAFFFFABRRRQAUUUUAFFFFABRRRQAUUUUAFFFFABRRRQAUUUUAFFFFABRRRQAVm6t/r4/pWlWZq3/HxGP9mrh8RE9iqPuk+5qMcSn6VIBlG+pqMZyeegrcwK8RzqM2Ky7XA8RXxPqP5Vqwj/AE+asu0Uf29fZ/vf0oA5JeZPER/6aS/+g1wWP9M8Pj0jJ/QV3iHCeI2/6aTf+g1w7Af2joI9IT/IVrQ1qR9UZ1v4cvQ6y26CtGDoKz7cdK0IelfQzPnkW06VieOePC2of9c/6itpOlYnjv8A5FW//wCuY/8AQhWdP40KWzPnXxL/AMetyf8Ap7H8jXNaoP8Aiocf9M1/kK6bxMP9Fm97wf1rm9U/5GNvaNf/AEEV31SsPsfQP7Hif8UNqTeusn/0COve7T/j+uP+A/1rwn9j4Y8AXp9dZf8A9Ajr3e0GLu4P+7/Wvk8R/FkfQ0vgQ6E4ce7GoZgRfRjr8p/nU0JG8fU/zqG4OdQj7fJWJZnXnPiOMdcQ/wBawLn/AJGbWP8Arin/AKBXQXX/ACMif9cBXP3JH/CQ623fyl/9ApjPOSP9K03/AK9j/SrOtnHh3Uf+vWT/ANBNV/8Al600H/n1P9Kl8QHHhrUz/wBOkv8A6Ca9XBfw/meXjP4h8s3B+Zv+uR/rWRd/8ecI/wBo1qXP3nP/AEyP9aybv/j0h/3jXbLYIkFx/wAfA+gpYv8Aj4X6UlycT/gKbCf36/SsZbmq2O6+DHPxA0f/AK7N/I19g+COby5/6518e/BU58f6P/11b/0E19geBji7uv8ArnXPif4LCl/GR3UQxHpw/wB3/wBBq5L/AK3321SjOI9P/wCA/wDoNXZj+9z/ALNeSegyHUFzasfUCs3xNxoGMZ+dP51pX5P2ST6D+dZ3ib/kA/V0/nVCMTxSMXei+8j/APoFeIftJ/8AImaifW/X+le4eKv+P7Rc9pH/APQK8O/aUbPg7Ucf9BBaun8SJn8LPl5OAfrSD/VP9aVOhpB/qn+tehE5i9ZH/SYv9xf5ivum1/1Ef+6P5V8LWQ/0mP8A3F/mK+6rb/UJ/uj+VdUdjixG6IL/AO6a+STz+1Wf+wyP/QRX1tejg18lf83Wn/sNf+y1x4zeHqjbB7T9GfXNkOBV9RVKyHFXlrsRwSHAUjU6kIpkpjGzisDxUudFvv8Ar3k/9BNb7DisLxT/AMgW/wD+veT/ANBNTLY0g9T5u/Y6/wCRo8Qf9ekX/ow19W2o+QV8o/sd/wDI06//ANekX/ow19YWfMYrjwX8JHZjv4rJ1FPxSqOKUius4mMIqKQcVORUMnQ0Ajh/i2M/DvxD/wBg6b/0A14r+x0N1t4j9pbf+T17b8Wf+Sd+If8AsHTf+gGvFP2Nf+PbxL/10t/5SVx1P48PmehS/wB3l8j6NhHyYrwH9qof8TPR/wDr2k/9CFfQMI+WvAf2rONR0f8A695f/QhXatjlp/EeFz/65/8AcH8q+nf2UB/xREB/6icv/oNfMc3+vb/cH8q+nv2TxnwPB/2E5f8A0GuLFL3T0aO57h4fX/iXap/18v8A+grWxpH/ACLcGOnlYrK0DP8AZ2qj/p5b/wBBWtPSSR4ch9PL/rXAdJpWo/0RD/sClgz5j+vFMsz/AKMg/wBipIjiV/oKAMec/wDEt1P/AHpK4bx9j7Tb/wC6P613Mv8Ax4aoP9qSuG8d/wCvh/3Qf51th/4qMq38NmLa9q474/DPw2l9ruH+ZrsbWuQ+PXPw2n/6+Yf5mvXPLW58yXA+WT/fphHyipbgfLIP9ukIG0VNjpuWo/8AXwfhWlbj95cj2rPT/j4t/wAK0rcfvbn6f1qkiGewfAj/AI99X/64/wBBX0PZDGvaMef9U3/oFfPHwI4j1b/rgP5V9D2f/Ib0M+sR/wDRdeRif4jO+h8COgsP+Ril/wCuP9avx/Lev/u1n2h/4qCTHUw/1q/EP9OkP+zWBoSSn7w9x/Om3w/e23/XQ/yp03O7HqP502//ANZbH/pp/Q0DPOP2g1z8KvFI/wCmH9Vr4hX/AI+I/wDe/rX3F8e/m+Fvin/r1J/QV8PHiePH97+tetl3wv1OLFfEjR0kZ1iT/rma19E/5AF+P+my1maOB/bL/wDXM1r6EB/YOoj0lWvoKSPKrP8AQ7nRR+/hPrZp/Svf0H+ixH/YH8q8E0YYa3P/AE5p/SvfIebOE+sa/wAqwxnQ4qL1ZSua53xUP+JWx/21/nXR3IrnfFfGky+zKf1rjq/wpejO6j/Ej6m54SydT1QDvbxf+zV0/hQY8Hn/AH5f/QjXM+EQRqt+PW1j/m1dP4SGfCkntLKP/HjXzp9AbeiDdoMX+4f51oWgzZqO22s/RD/xIIcf3T/Or9kf9EX6GgRJFwvHpSt0c0Qn5Rn+7/Wkbo4oA2NO/wCPKP8AH+dWKraZ/wAeSfj/ADqzXNLc6Y7BRRRSGFFFFABRRRQAUUUUAFFFFABRRRQAUUUUAFFFFABRRRQAUUUUAFFFFABRRRQAUUUUAFFFFABRRRQAUUUUAFFFFABRRRQAUUUUAFFFFABRRRQAUUUUAFFFFABRRRQAUUUUAFFFFABRRRQAUUUUAFFFFABWZqpxdx/7ladZeq/8faf7n+NXT+IiexW3YQ/U0xTl2x6UoGUJ+tMj4kb8K3MCvBkXc31rMszu1y+P+3WnF/x8zf71Zdh/yFr3/foGckMfYvEbf7c38q4kLnVtE9oD/Ku0Y/8AEo8RH/bn/lXGqP8Aib6P/wBe5/lW2H/ix9UY1v4cvQ6yAVfhqhb9q0Iegr6GofPllKw/Hxx4Uvv90f8AoQrcXpWD8QP+RTvfov8A6EKzh8aFP4WfPHiU/wCiye95/jXOah/yMkv/AFzH/oIrovEf/Hq3ven+tc5qJz4km9kH/oIrvqlUNj6H/ZCBHw8uD66y5/8AHUr3W1Obq5Puo/Q14d+yIP8Ai3Mnvq8v/oKV7jbDM9xj+8v8q+SxP8WR9FS+BCx8OOe5qKb/AI/4z/sVLEeR9TUL86gn+5WRbKNz/wAjGp9IR/Oucuv+Q9rZH/PMf+gV0Vwd3iTHpAP51ztz/wAhrXj6IP8A0CgDz1xi904f9On+FP8AEh/4pfVD/wBOkn/oJpjZN9YZ/wCfSneJjjwrqh/6dJf/AEE162C/hr1PKxf8Q+Wrnq//AFzNY93/AMekP+8a1ronMn/XI1kXf/Hpb/U13zWg4EF1/wAfH4Cmwn9+PpS3WPtP5U2PicfT+lc01qarY7r4J8/EDR/99/8A0E19g+CP+Pi5P+x/Svj/AOCH/JQtI/3n/wDQWr7C8Ej99dH/AGKwxP8ABYqT/fo7iP7mnZ/2f/Qaty8zD/dNU06af9B/6DV2XiX6J/WvJPRIdQOLRienH86zvE4/4kQ/66J/OtDUebVh9P51neJif7EUdjIn86YjJ8T/ADahowP95/8A0GvC/wBpQY8H6hj/AKCIr3TxKf8AiY6MO+5//Qa8M/aU48H3w/6iAq6fxImfws+XwPlI96Qf6pxTx0NMH+qf616SRyl+x/4+ov8AdT+Yr7pg/wBSn+6P5V8Laf8A8fcX0T+Yr7qtx+6T/dH8q6lscOI3RXvuhzXySv8Aydax/wCo0f8A0GvrbUfun6V8kQ8/tVn/ALDR/wDQa4cZvD1R0YPafoz69sORV9eKpWH3auiu1Hny3FNLSCnCgkYw4rn/ABaMaLf/APXvJ/6Ca6JhWB4rGdGvh/07Sf8AoJqZbGlPc+a/2OhnxTr/AP16Rf8Aow19YWn+rGK+UP2OP+Rp8Qf9ekX/AKMNfV9n90VyYL+Ejsx38VloUtFFdRxBjNQyipqiloGjifi1n/hXniAf9Q6f/wBANeJfsbH9z4kH/TS3/lJXt3xYGfh94h/7B0//AKAa8Q/Y25j8Sf79v/KSuOr/AB4fM9Cl/u8vkfSkA+SvAf2rl/4mGjf9e8v/AKEK+gLf7leB/tY8X2i/9cJf/QlruiccH76PB5R+/f8A3B/Kvp/9ksbvBMY9NUk/9AFfMM3+vb/rmP5V9Qfsi/8AIkj21OT/ANAFceL+E9Kjue4+H/8Ajy1X2uW/9AWtTSMHw3B/1zP86zPD+Pser/8AXy3/AKAtaWjf8i9Dz1jP8zXmnUXrYYtkP+wKfHzO4HoKjtm/0SMf7Ap0X+vfH90UwMqX/jw1XtzJ/KuG8df62D/cX+tdxc5FnqoHrJ/KuK8eY8y2I/uL/WtsN/FRlX/hswLbtXJ/Hbn4a3PtcQ/+hV11sOlcr8c1/wCLaXntNF/6FXsM8pPVHzHOOJf9+mN90VJcdJiP79MP3BSR0ltf9db/AIVp24/fXP0/rWan+ttvwrUtx+/uR/s/1q7EM9d+BP3dU94B/KvoWyY/2toJ9Yz/AOi6+e/gRjdqY/6YD+VfQVkw/tLw+f8AY/8AadeLiv4rO+h8COhtAR4hc/8ATE/zFaMRxfN/u1QtjnxCx9YT/Oroz9sb/drA1J5scn3FMvuWt/8Arp/Q0sxxG34U29ODb/8AXT+hoA4H47KD8MPFP/Xkx/8AHRXw2P8AXR/739a+6PjiAfhp4pX/AKcH/wDQa+Fv+W0f1r1ct+FnHi90aulf8hxv+uZ/lWzoH/IE1Mf9NFrH0n/kO/8AAD/Ktrw+v/Eo1Qf7a/1r6Oijx670+47vRjn7KfWzX+le9W3NjAf+mS/yrwPRvu2ZH/PmK98s+dOtz/0yX+QrnxnQ5KHxMrXQ61zfiof8Smb6r/MV01yM1znisf8AEonP0/mK46n8KXozuov95H1Nvwj/AMhm9H/TnGf1NdL4RP8AxTEwJ6TS/wAzXL+E/wDkOXHobFP5muo8HgHw5cg9p5R+tfOH0BtaDzoEf0b+dX7Dm1X6GqHh4f8AEgT6t/Or1iD9jUd+aAJ4+g57f1oYcSUicBR7Uuc+YfagDW0v/jzT6n+dWaq6VzZr9TVquaW50x2CiiikMKKKKACiiigAooooAKKKKACiiigAooooAKKKKACiiigAooooAKKKKACiiigAooooAKKKKACiiigAooooAKKKKACiiigAooooAKKKKACiiigAooooAKKKKACiiigAooooAKKKKACiiigAooooAKKKKACsvVP+Psf7n+NalZOqHF5/wCrp7kVNisPuHHvQCMt7YpEPyZ+tBHL/AK1uYFW3+a6mz/erL07/AJC9+T08ytO0z9pnP+1WXpfzajfY/wCehoGcdJxoXiFuxaf+VckmTrmlj0tv6GusYn/hFtePfdNXKL/yMGnD/p2/oa2w38WPqjGv/Cl6HVW4q/COKo29aEPSvoah8+TJWF8Qf+RTvP8AgH/oQrfXgVz/AMQzjwpdf7yf+hCs6fxr1Jn8LPnnxKP9GGO94a5u/wD+RkuPZB/6CK6XxFzbp/1+NXN6gP8Aio7rHZf6Cu+qisPsfRv7Iw/4tqp9dVm/kte22RImuf8AeH8q8W/ZJGPhlCfXVJv5CvabQjz7nPQuP5V8liP4sj6Ol8CH2+Mgex/nVdz/AMTBP9ypo/vKfY/zqBh/xMAf9msiyjcj/ipC3T9wP51zlx/yFNfP+x/7JXRT8+JW9oRXN3BxqXiD6H/0CgRwTf8AH9Zf9en+FJ4qOPCWqn/p0k/9BNOP/IRtB6WY/mKb4t48Iat/16Sf+gmvYwX8NHl4v+IfLV4ceb/1yNY94cWtv9TWveD/AFv/AFyNZF4P9Ftvqa7Z7DgV7r/j5pIf+Pj8P6Utz/x80Rf67/gJ/lXPJamq2O8+Bo/4uFpH+9J/6C1fYHgo/vbv/cr5A+BYz8QdK+sn/oLV9feCseZdf7lYYpfuWTS/jo7eIndp/oAP/Qauyn99n/YqmuM2H0H/AKDVmQ/vj/u15B6TI78f6I3rx/Os7xKM6Mo9JE/nV/UDm0b3xWd4lYjR1H/TVP50xGZ4kX/iZaP/AL0n/oNeG/tKj/ijr0/9RD+te4+Iz/xMdHGe8n/oIrw39pQ/8UXe/wDYRrSl8aIn8LPmFR8ppg/1L/UVIv3T9aYP9Q/1FemjlL9h/wAfkP0T+Yr7qhH7tfoK+FtOGb6EeyfzFfdcH+rX6Cum2hxYjdFXUB8p+lfJNsM/tXEf9Ro/+g19cX3Svki05/awP/Yab/0GuDF7w9Ub4Pafoz69sh8tXKqWf3auDrXajge4ClpcUYoEIehrC8VY/sa+/wCvaT/0E1unoa5/xWf+JNff9e8n/oJqZbF09z5r/Y7OPFPiD/r0i/8ARhr6xsv9WK+T/wBjkZ8U+IP+vOL/ANGGvrCz4jFcmC/hI7Mf/FZaFKKaOaeK6ziDtUU1SmmSjK0ho4n4rf8AJPvEI/6h0/8A6Aa8O/Y1+74l/wB62/8Aale4/Fb/AJEDxB/2Dp//AEA14Z+xtnPiQds2/wD7Urjqfx4fM9Cj/u8vkfTNv9yvA/2sR/pmjH/phL/6Ete/QD5K8C/axH+laL/1xm/mtd0Tjh8aPBZv9e3/AFzH8q+oP2Rf+RJH/YUf/wBAFfMEo/fH/rmP5V9QfsinHgj/ALir/wDoArjxfwHpUdz3LQOLbWB/08H/ANAWtDSOPD0X+4f5mqGg8Ravkdbg/wDoC1o6PzoER/2D/M15x1Fy2H+hx/7gp0H+uc+wpLQ/6Ig/2KWLiduewoFuZtxj7Lqv/A/5Vw3jn71t/uj+tdzKM2uqf8D/APQa4fx2OLU+qj+tbYb+LEzr/wANmFbdq5f44/8AJNb7/rrF/wChV1Ft2rmPjcP+LaX/ALSRf+hivZe55K3R8w3HSX/epn8AP0qW46S/71R4+QVKR1Ftf9ZbH6Vqwf8AHzcj/ZrLH37b8K1YB/pdz/u1oZs9b+BH+u1Ietuv8q+grHH2zw+3+wP/AEXXz78CD/pN+PW3H8q+gNPI+0eHifQf+izXi4v+KzvofAjpIOPEGB3iP86vxk/b2X/YrPhP/FRKcf8ALE1fX/kIE+qGuc2JZ+jH2H86S96wH/poP5Gny/cb6CmXv3YP+uo/kaBnE/Gkbvh14pH/AFD3/wDQK+E8fvY/rX3d8YgT8P8AxOPXTpP/AEA18JN/rI8etetlq91nDi90aukj/ifD/dP8q2tAB/svVR/tL/WsXSuNeQ/7J/lW54eH+gasD6r/ADNfSUUePX2+47bQxlLL/rzr3zT/APkF2v8A1xT+QrwXQcCKwPraV71pnOk2h/6Yp/IVzYzoclD4mRXA61zvisf8Sa5PsP5iukuK53xVzo9z/u/1Fcc/4cvRndS/iR9UafhLnWn97Bf510/g/J0O8X0uZf51y3g9h/bWfWwH8xXU+DSf7Kvv+vmSvmz6E2/Dv/IDUehb+dXrA4gH41neHc/2Rj/batCx5tPfJoAniOSM89aP4pR2/wDrUyHIA/Gn5+Z/p/SgZq6T/wAeY+pq3VPSP+PMf7xq5XNLdnRHZBRRRSGFFFFABRRRQAUUUUAFFFFABRRRQAUUUUAFFFFABRRRQAUUUUAFFFFABRRRQAUUUUAFFFFABRRRQAUUUUAFFFFABRRRQAUUUUAFFFFABRRRQAUUUUAFFFFABRRRQAUUUUAFFFFABRRRQAUUUUAFFFFABWPq3N7gf3K2Kx9T/wCP8/7gq6e5E9iqM+WR7Usf33B7mhT+6x3xQhG4/WtzAq2RzPP/ALxrL0fK6hfH1lNadkcXE3++ay9HP+l3pP8Az1b+dAHGynHhDXGPdpv51y+P+KlsP+vX+hrpJWJ8G6yexMv8651MHxJZ+1qP61vhf40fUxxH8KXodPb9q0IKoW/atCDpX0Ez58n7VznxEP8AxStx/vx/+hCujrm/iMceFpveSP8A9CFZ0/jQp/Cz598Q/wDHvF73bVzl+f8Aiobz/d/pXSa/gwW4Pe7Y/wAq5nUP+Q/en2P8q9CqVh9j6U/ZMH/FsbX31Gc/yr2a1/1lwfRx/KvHP2UBj4X2R9b+f+dex2mN9x/10/pXyFf+LL1Po6fwIfFg7fxqBs/2gB/sipYuFXHvUTZGoKf9gVmWzPlyfEj5/wCeK1zt0P8ATPELezf+i66KQ/8AFTSn/pitc1dtmbxEMf3v/QKBHCt/yFbUf9OY/nTPGP8AyJ2rH/p0k/lUjD/ibW//AF5j+dM8aDHgzV/+vR/5V7OC/ho8vF/xD5bu+k3/AFyNZF7/AMe1t9TWveH5Zv8ArlWTe/8AHva13z2CG5Vuv+Pk/wCe1JF/rv8AgJ/lS3X/AB9H/Pamxf67/gJ/lXLLc2Wx6B8CefiDpf0kP/jrV9d+DPv3R/2a+RfgQP8Ai4Omf7sn/oLV9eeCRn7Wf9j+lc+K/gsml/HR2yfesPoP/Qasyczcf3aqr/y4j2/9lqxISJPfbXkHojdQA+zP+FZniX/kFR/9dUrR1En7I2Pb+dZ/iX/kER+8yUxGV4k41XSPrJ/6DXhv7Sn/ACJ12R31E/zr3PxJ/wAhbSP+2n8hXhn7SvHg67/7CJ/ma0pfGiZ/Cz5jX7h+tNX/AFL/AFFOX7p+tNX/AFD/AFFerE5DR03/AI/4f+2f8xX3VD9xfpXwtpo/0+D/ALZ/zFfdUX3R9K6OhxYjdFa++7XyPZ/8nXt/2G2/9BNfXN992vkay/5Owf8A7DT/APoJrz8XvD1R0YPafoz6/shlAauL1qpYn5KtA4rtRwPceKfjimKacDxQSMfvXP8Aiof8Sa+z/wA+8n/oJroWrn/FnGjX3/XvJ/6CamWxpT+I+a/2NufFPiH/AK84v/Rhr6vtfuD6V8ofsbf8jV4h/wCvOP8A9GGvrG1GIxXLgv4SOvH/AMVk60+mLTxXUcYtMf7pp1Mk+7SGcZ8VBnwD4g/7B0//AKAa8I/Y1Pz+JB/17/8AtSvd/il/yIevj/qHT/8Aos14R+xn/rfEg9rf/wBqVx1f48PmehR/3efyPp62HyCvBP2sl/0nRT/0xm/mte923CCvB/2sh++0X/rlN/Na74bnFD40eBSj9+f+uY/lX01+yP8A8iWfbVW/9AFfM03+v/7Zj+VfTH7JP/Ilv7aqf/QBXJjPgPSofEe8aGR5er/9fH/si1oaMR/YEf8Aun+dZ2iDK6r/ANfH/si1f0c/8SCL6N/M15Z1l+1/481x/cpIDmVv90U21P8AoS4/u0634mbj+EUwKEmPI1Qf7/8A6DXDeOuVtcdkX+tdu3+q1PJ7v/6DXD+NOYrY/wCyv9a2w/8AFiZV/wCGzDtu1c18bBn4aaj/AL0X/oYrpbauc+NAz8NNS9jH/wChivZ6nkrdHzBcdJf94Uw/6sfhT7jpL/vCmH/Vj8KEdJcX71t+FakH/H3cf7lZYP8Ax7fh/OtOH/j8uP8AcrQzZ6x8Bzm+vR/07j+Rr6AsVzL4d+q/+gGvn74C86leA/8APuP619Badz/wjje6/wDoBrxMX/FZ6FD+Gjpl/wCRgjH/AExaro5vif8AYqip/wCKhiz18tqvKf8AiZEeqVzGxNK2M+m0U29IIhx/z0H8jSzYO4e1NvMBYj/00WgZyXxeXPgPxIPXTpP/AEA18Gn78f1r71+Kvz+CfEX/AGDZP/QGr4LP3k+tetlmzOHF7o1tM416P/dP8q3PD3/Hpqw9Nv8AM1hWBxrkZx2P8q3PDx/0bV/90H9TX0tLY8avt935na6ET9n0/wD69T/WvedIP/Els/8Argn8hXgegH/RtN97Zv5mve9F50Sy/wCuC/yrlxvQ5aHxMW4rn/FA/wCJPc/7v9RXQT96wfEozpFz/uf1rjl/Dl6M7aXxr1Lfg8f8TiMeunj+Yrq/Bh/4luoZ7XT1yfhD/kN259dP/qtdX4N/489TX/p6b+VfNn0Rs+HedIY/7bVd0/Jh+jGqHh0/8Sph6SPV/T/9R+JoAsx4K8UH7zj/AGaSDlR9TQxwzfQUDNXR/wDjz/4Eau1S0Y5tf+BGrtc8t2dEdgoooqRhRRRQAUUUUAFFFFABRRRQAUUUUAFFFFABRRRQAUUUUAFFFFABRRRQAUUUUAFFFFABRRRQAUUUUAFFFFABRRRQAUUUUAFFFFABRRRQAUUUUAFFFFABRRRQAUUUUAFFFFABRRRQAUUUUAFFFFABRRRQAVj6l/x/N/uitisbUv8Aj+k9lH8qunuRU2K6D5Pwpics31p27MS49KZCeXJ65rcwILPmeX/erK0o5nu+2ZWrUsOXk/3qydIIMl03pK1AHEy/8iPqp95P/QqwU/5Gi2Hpaj+tbtwf+KD1I+pb/wBDrnppkg8SQyPnH2cDj8a6ML/Gj6mGI/hS9Dq7ftWhD0rEtdQtGx+8I+qmtS2uYGHyzIfxr35ngF4dK5r4kH/imJf+uqfzrpFYEcEH6VzPxJOPDL/9dk/nUUvjQp/Cz5/14/urX3un/pXNX/8AyHb/AOh/lXSa7yll/wBfL/0rm77nXL8+x/lXbVLw+x9N/sqjHws00et5Of1NevWZ+e4P/TT+gryT9lnj4W6Wf+nmc/8AjzV61Zn5p/eT+gr5Kt/El6n0dP4ETRAfKPaoHP8Ap/Togp8RO4f7tRZIv899tZjKDH/io5cj/lmtc3dH954jPu//AKAK6POfEc5/6ZrXNXLceJf95/8A0AUAcUR/xNrf/rzX+dReN+PBOrn/AKdX/lU//MYiHpZr/Oq/jzjwRq5/6dWr2cF/DR5WL/iny3efdn/65Vk3v+otfx/nWvefcnP/AEzFZF8f3Nt+NehU2f8AXUcCtc/8fR/z2ohH78/7p/lRcn/SWoh/1x/3T/KuV7my2PQfgPz8QdM9kl/9BavrvwVwl7/u/wBK+RvgL/yUHTv+ucv/AKC1fXPgv/V3n0/pXNi/4LJpfx0dquBJY/7v/stWJR+8Of7v9arSH97ZAdl/9lqxIfnP+5XkI9Eh1E/6MfqP51Q8Uf8AIJi6/wCuSr2o/wDHt+Iql4lI/syL085KYGV4iP8AxN9Iz/00/kK8M/aVJ/4RC6HrqJ/ma9y8R4OsaT9JP5CvC/2lf+ROn/7CJ/ma0o/GiJ/Cz5nT7h+tNUfuX+op6j92frTF/wBQ/wBRXrROQ0tNH/Exg/7Z/wAxX3TH0FfC2mf8hGAe8f8AMV90x9BW72OKvuivfnAr5FsT/wAZXOev/E6f/wBBNfXGo/dr5E08/wDGVDn/AKjUn8jXn4veHqjowW0/Q+wbE/LV3rWdZSqEHNXFmX1rtRwSWpOlPFV1mT1pwmX1oFYkNYHi3B0a+/695P8A0E1tNKvrWB4rkUaNfc/8u8n/AKCamWxpTXvHzd+xx/yNXiD/AK84/wD0Ya+srY/uhXyX+x2wXxV4gJ72cf8A6MNfVtpOuwDNcuC/hI68cv3rLueKepquJU9aXzkHeuo4icntTJelRidfUUx5lI60hnKfFD/kRdf/AOwfP/6LNeE/sZf6/wASj2t/5yV7l8TZAfA2ugH/AJh8/wD6Aa8M/Yx5ufEv+7b/AM5K46n+8Q+Z6FL/AHefyPp+3GUFeD/tYj97oh/6ZTfzWverf/V14R+1gPm0Q/7E3/std9Pc4ofEeATZ+0f9sx/Kvpb9kc58HyD/AKip/wDQBXzXMP8ASf8AtmP5V9Jfsj/8inN/2FP/AGQVy4z4D0aHxHvOh9NX/wCvj/2RavaN/wAgGMH+638zVLRR/wAhbH/Pcf8AoAq5pP8AyAY+OcN/M15aOwvWR/0JM/3f60oP+kNjpgZptn/x5R8fw0+L/j4b/dFAFB/u6mMdm/8AQa4fxp/qLUf7C/1rt5Of7TA/2v8A0GuI8aDEFr/uL/WtcP8AxYmVf+GzCtu1c78ZRn4aap/2z/8AQ1rorbtXP/GPn4a6r9I//Q1r2rankrc+XrgcTfUVGf8AVj8KluOkv1FR/wDLIUzoLX/Pv+FasA/0yf8A3KygPlt/wrXiH+mT/wDXM1ZDPVPgIP8Aia3fvbD+te/acSE8On/aT/0E14B8BD/xNrn/AK9h/Wvf7Aj7P4ePo6f+gmvExf8AFZ6FD4EdOo/4qGJv+mbVoIB9vU/7BrODf8T+E/8ATNqvj/j/ABn+7XMbE0uOfpTb3mKP/rqtLKOWx/dpt5/qY/8ArotAzm/icAfBniAeumyf+gNXwMT9z619+fEgbvCmuD106T/0Bq+A2/g/CvWyzaRxYvdGvp4B16D6H+Vbfh4Yj1cf7I/nWJYf8h2D6f0rd8PHjVx/sD+dfTU9jxa+33fmdf4fObXTT/0wb+Zr3vQTnQbI/wDTBf5V4L4e5tNN/wCuT/zNe8eHj/xT9j/1xX+VcuM2Ry0fjY+571heIv8AkE3X+4a3bjmsPxB/yCrn/rma438D9Dtp/Eibwcf+JvZ986ef/Za67wfxbamO4um/lXIeDCDq9h72Lf8Astdf4P4XVgf+fk/yFfNH0RseHQP7NlHcStV/TiPszc/xGs/w5n+z5z/01armnf6lh/tk0AWozhVx70p5kIP90UyI5Ap/fP8As0DNTRf+PU/71XqoaIf9Gb/eq/XPLdm8dgoooqSgooooAKKKKACiiigAooooAKKKKACiiigAooooAKKKKACiiigAooooAKKKKACiiigAooooAKKKKACiiigAooooAKKKKACiiigAooooAKKKKACiiigAooooAKKKKACiiigAooooAKKKKACiiigAooooAKxdSOL9/cCtqsTU/wDj/f6VpT3M6mxWUfL6YxSJ/ER/epc/KB7CmxcEg+tbGRXsDy5x/Eay9GUYuT6yMf51p2JwsmP7xrK0UkQXJPPzt/WgDibkf8UDft6k/wDoYrlNUOdejHpCv8q6m5Y/8K+vM9z/AO1BXK6iCPEIB/54L/KujCfxo+pz4n+FIv2w4FX4RVC3PFX4TxX0bPnpE6sy/dYj6GsbxpNK2iFHkdl8xTgtnvWyOlYfjL/kE/8AbRaIfEjKWzPHNa5jsf8Aru/9K5q7/wCQxqP0auk1o4Gnj1mf+YrmrvnVdR/4FW9U6aGx9Qfsu8fC7SB6zTn/AMeavWLQfNMf+mh/kK8r/ZjXb8LNFP8Atzn/AMfavUrMk+cc/wDLQ/yFfI1v4kvU+ip/CiWM4C89BUXB1A5/uCnx9R/u1CT/AMTBiP7orMsoJ/yMtye3lrXM3n+q8SMD/FJ/6DXSof8AiobkD+4v8q5m5b/R/Emf70n/AKDQI5FuNbXj/l1X+dVPH5x4F1g/9OrU3W5pItWhaJihNsoNY/jW/uX8G6pG7hla3IPyivawK/do8nFfxWfO96fln/65Csi+/wBVaj2/rWxe/cuD/wBMx/Ssm9HyWv0/rXfV2f8AXUcCpcf8fJpYf9cf90/yon/4+mpYf9c3+6f5Vyy+I2Wx6J8BB/xcDT/+uUv/AKC1fXHgr/VXn0/pXyN8CJEi8d2Ukhwohlzx/smvrLwNNHPBeNExIAOePYVz4v8Agio/xzusfv7P/dP/AKDUzf60j/Zqvz51mc/wn/0Gp5CPMJ/2K8dHokeo82v4iqHiTB0qIf8ATZKu6h/x6591qj4kOdPhH/TZKaAyvEP/ACGdJH+zIf0FeGftKf8AIoT/APYSb+Zr3LxDzrWleyyfyFeGftK/8ilL/wBhFv5mtKPxoip8LPmtfuH61Gv+of6inj/Vn60wf6h/rXrI5DT0kZ1O3/3ov5ivuhK+GdI/5Clv/vRfzFfc6V0PZHFX3RV1D7pr4n8Ua4PDfx71TXfs32oWeqySeUH2bu2M4OOvpX2vfnKmvjtLO2v/ANpm4s7uCK4gl1iUPHIoZWGDwQa83HXfLbudWBsua/Y7CD9pYRjH/CIOf+4iP/jdSj9psZ/5E5//AAYj/wCN169beAPCbgE+GdJP/bon+FW1+HvhH/oV9H/8A0/woVPEfz/gJ1cNf4PxPGB+04vfwbIf+4iP/jdOH7T0f/Qmy/8AgyH/AMbr2kfDzwh/0K2j/wDgGn+FO/4V14O/6FbR/wDwDT/Cn7PEfz/gL2uG/k/E8V/4aeTH/Imy/wDgxH/xuqGq/tHJe2c9v/wiciGWNkz9vBxkEZ/1de7P8OvB/wD0K2j/APgGn+FYniPwB4Tg0u7dPDekqywuQRaoCDtPtUyp4i3x/gVCph76R/E+XfhB8QV8A6rf3raU2ofa4Vj2ify9uGznO05r1OL9puJAB/wh0p/7iI/+N1y37LmiaVrXiPWodV061vUitUZFniDhSXxkZr6Nh+HXg5lz/wAItpH/AICJ/hWOGhWcE4ysjfE1KKnacbs8eP7TsZ6eD5R/3ER/8bpR+07GOvg+b/wYD/43Xsn/AArbwdn/AJFbSP8AwET/AApw+Gvg3/oVtI/8BE/wrf2eI/n/AAOf2uG/l/E8b/4aeh/6E6b/AMGI/wDjdIf2nIiP+RPm/wDBgP8A43Xs/wDwrXwYf+ZV0f8A8BE/wpknw28Fkf8AIq6Pn/r0T/Cj2eI/m/AftcN/L+J4N4k/aGh1fQ7/AE0eFpojdW7whzfBtu5SM42c9at/sZnF34jHqtv/ADevSfHngHwlZ+E9Xng8N6XFLHZTOjpaqCpCEgjivNP2Nf8Aj88R/wC5b/zesFGarx53fc6HKnKhLkVj6ktvuV4V+1h00T/dm/8AZa91tf8AV14X+1f93RP92b/2WvWp7nlx+I8Am/4+f+2Y/lX0j+yR/wAilcf9hT/2QV83Tf8AHx/2zH8q+j/2SiR4Tuf+woP/AEAVy434D0aHxHv+h9NW/wCuw/8AQBVrRudDQ/738zVHQjzqo9Jh/wCgCrujHGhD6t/M15R2F6zP+ir/ALtOh/1rf7oqKyb/AEND/s0+L/Wkf7IoEUj97UfcH/0GuI8Z829of9hf6125Pz6iM+v/AKDXD+MObS0P+wv9a1w/8WJnW/hsw7btWD8YBn4a6t/uJ/6Gtb1ucYyQKwfi06H4casu9SfLXjP+2te2eSj5euB/rfwqLP7oVNcD/XfUVCf9WPpQblv+G3rXg/4/Zv8Armax8ny7c+9a0R/06X/rmaslnqfwF41q4H/TsP6177YNm28Pn0kT+Rr5/wDgQf8Aidy/9e/9TXv2nj/QPD5HXzU/rXiYz+Kzvw/8NHUsf+Kgt8dNjVpH/j+U/wCzWa/GvW3+6w/StD/l9Bz/AAmuY3Jpmxu/3Kbdn9wn++v86cwDbv8Adpl1/qUx03r/ADoAwfiCM+GtZX105/8A0Fq+AZP4fwr9AfHgzoGrD10+T+TV+f8AJ0X6ivWyzaRx4vdGtYn/AInlt/ntW74f/wBbq4/6Z/1rBsz/AMTu1/D+Vb3h/wD4+NVHrEf519NT2PEr7f13Ov8ADh/0PTf+ub/zNezaNqbR6HaRLCDtiAyWrxfw4f8AQtN+kg/U16vpB/4lNt/1zFYYpJpXOSm2psu3Wp3JzjYv0FYerXlzJayq0pwVOQOKu3B61lah/wAe8n+6a45r3GdtL4kdJ4KJ/tTTj/04v/7LXY+Dzk6t7XP/ALLXHeCiBqmmf9ebj+Vdb4QP+kawo/57g/8AjtfLn0hueGv+PK4H/TZqvaeMI5/2qz/D3FrOM/8ALY/yrQ004ikz/foAliHA+tSIct+FMixtP+9T1GHAH92gZpaH/wAe7/739K0Kz9D/ANRJ/vf0rQrnn8TN47BRRRUlBRRRQAUUUUAFFFFABRRRQAUUUUAFFFFABRRRQAUUUUAFFFFABRRRQAUUUUAFFFFABRRRQAUUUUAFFFFABRRRQAUUUUAFFFFABRRRQAUUUUAFFFFABRRRQAUUUUAFFFFABRRRQAUUUUAFFFFABRRRQAVh6iR9ukrcrB1H/j+l9jWlPczqbEHb8qah+ZvrTjjaPwqOPofrWxkV9P8A9VIf9o1maX/x7XLD1c/zrTsOI357msnST/xL7k/7/wDWgRxN2MfDyfPdl/8ARgrltRO7xESe0Irqb44+Hsnu8f8A6MWuWvQD4jl/65L/ACFdOE/jRMMV/CkXoDV+DpVO2UVoQKPSvomfPSH5wKwfGh/4lI/66r/WuhKjFc945GNJT/rqP5GiHxIyex45rHJ04f8ATV/5iuauz/xM9R+jV0mq/wCs03/fb+Yrm7j/AJCGon/eraqdVDY+qf2aBt+Feh/Wb/0Nq9PsTxOD18w/yrzP9m0Y+Fug+6zH/wAeavS7PG2Y9/Mavkq38SXqfQ0/gRKg5X/dqAjGpOO20VLGTkEf3agZv+Ji/wDuisy2UIj/AMVHdj/ZX+Vcve4Fl4ib/bl/9BrqIwD4juz7L/IVyt0c6d4jz/z0l/lQI4PXOdYjHpbrWJ4148Ial/1xP8xW7q//ACGwP+ndKxfHQx4N1L/rj/UV7eB/ho8jF/xWfP17xHP/ANcx/Ssq++7a/StS+5juP9wf0rLvelr9K76uz/rqOBVuP+PpqSL/AFzf7p/lTp/+Pl6bH/rX/wB0/wAq5Jbm62O8+C//ACOVr/1wk/ka+rvhj/x4X/1/oK+Uvgnz4ztf+veT+Rr6t+G/Gn3x/wBr+grmxf8ABFR/jnop/wCPmzH+yf8A0Gppfvk/7NQHJurT/cI/8dqZz85Hov8AWvHPRI7/AP49se61n+JuNPgx/wA90q7qBP2bj+8tZ/iQ/wCg24Pedf61QjN8Qf8AIb0r/ck/pXhX7Sv/ACKMh/6iLfzNe667/wAhrTO/ySf0rwn9pQ/8Ue3/AGEW/m1aUfjRE/hZ82r/AKs/WmD/AFD/AFFPX7p+tNH/AB7ufcV60TlNTSuNSg9d0X8xX2MNUvQPvKf+A18caSAdTg/3o/5ivr8d66o7HnYpu6I9Q1i8VTxGf+A18s6VdyD9pVrrapf+1pGxjjODX01qY4P0r5g0nn9oxv8AsKyfyNcGNS5oep1YF+7P0PrPTtYuSozFD+R/xrRXVp/+eMX61h6aPk6VoIK9BRR5spO5oLq83/PCP9acNXlzzAn5mqAFB6U+SPYjmZebWJP+fdPzNc94t1ljpV6ptlwYHH3v9k1oGud8WgHS7v8A64P/ACNROKsa0pPmPCP2Tb37J4p1xvK37rRBjOMfvK+pbLWP3Q/0b/x7/wCtXyh+y1/yM2s/9eqf+h19PWX+qFcWXxToq525i2qzNkaye1sP++qeuruf+XZf++qzVqRenSu7kj2ODmZf/tZ/+fdPzNMl1aTHFun5mqpHFRv900uWI1JnO/EbVpX8H60nkRjNjMM5P9w14Z+yRfPaXev7EVtyQdfq9e0fEID/AIRPWP8Arym/9ANeG/sq/wDH7rn+5D/N686ul9Yh8z06Df1efyPqG01i4MY/dR9PevG/2nLuS6j0jzFUbRNjb/wGvVrL/VCvIv2k/wDVaT9Jf/Za9GKSOGm3zo8Sl/4+P+2f9K+jv2Sz/wAUpdf9hQf+gLXzhL/rx/1zH8q+jf2Sf+RWu/8AsKD/ANAWuDGfAerQ+I990P8A1mrf9dV/9AFW9EP/ABI1+r/zNVNEOH1f/rov/oAq3oQ/4kA+r/zNeWdZdsh/oaf7tSRf648/wiodPP8AoSD0X+tPjP8ApDD/AGBQBVY/vtQ49f8A0GvPfiNkaLZEE87f616Cp/eX/f8A/Zrz/wCIhzotmPQL/WtKH8VGdb4GcRBnvmsv4jf8iLqf/XMf+hCti3FZfxHH/FCap/1yH/oQr3EeR1Pnaf8A5a/hUR5hqSf/AJbfhUQ/1QpnSWv+WUH+e9a0Q/0+T/rmayc/uoPrWvD/AMf8n/XM/wAqog9N+A5xrsv/AF7/ANTX0BpufsOg5/57J/Wvnz4Fn/ifsPWD+pr6BsW/4luhH0nQfqa8XGfxWd+H+BHV3Df8T62x6N/Krr5GoR+6mqE4xr1p34b+VX35v4/oa5TcsOeo/wBmm3X/AB7r/vr/ADofqSf7ppt43+jKMdGX+dAzJ8bgNoupr62D/wAmr8/pB8q/Wv0D8XjdpWoe9i/8jX5+zcAfWvWyv7RxYzdGjZ/8hi1P0rf8P/8AH5qg/wCmJ/nXP2uP7Xtccciug0AY1DUx/wBMT/Ovpqex4tfb+u51fhz/AI8NNPvIP1Ner6Of+JRbf9cxXk/hzmw07H96T+Zr1jRADo1tkfwVjidjjp/Gxtx3rNv/APj3k/3TWrcKKzb5R9nk/wB01xy+FnbT+JG54MJ/tPSv+vWT+QrsPCOBfaz/ANdlP/jtcZ4OONT0g+tvIP0rsvCn/IQ1j/roh/Svlj6Q2/Dh/wBHuf8Arsf5VesCdso/26o+G+Ibwf8ATb+lXtN6S5/vUATxHn2zTwSZB9Khg4BHcNUoP7zPtQM1NDP7mT/e/pWjWboJ/dSfUVpVzz+I3hsFFFFSUFFFFABRRRQAUUUUAFFFFABRRRQAUUUUAFFFFABRRRQAUUUUAFFFFABRRRQAUUUUAFFFFABRRRQAUUUUAFFFFABRRRQAUUUUAFFFFABRRRQAUUUUAFFFFABRRRQAUUUUAFFFFABRRRQAUUUUAFFJ+dGaAFrA1A/6bN9a381z99zeT/WtKe5nU2IByAfpUcZ/dsfen+n4U1B8jjtWxkQWAzDJ7EmsXS2xpNy3+/8A1rYsmzbvjvmsXTMDRbk/7L/yNAjjb4/8W+z6yRD/AMiLXNXgH/CSyj/pkv8AIV0mocfD+MessP8A6MFc7cDPief/AK5D+S104P8AjxOfFfwpGjbKKvwgelVbYHjpWhCvFfQtngMXAx0rm/HoxpCf9dR/I11QQ1zPxDG3SI/+uv8AQ0U/iRnNe6zxfVR++0wf7TfzFc1c/wDH5qP/AAKum1U5n0z6t/OuWuD/AKTqJ/3v51vVZ0UNv67n1j+zkMfC/QP+uUh/8eavSLPpL/vtXnX7PAx8LvD3vA//AKEa9Esz+7l/66NXyNX45ep9FD4USRZDD/dqDrfOPYVNGTvH0FQqf9Plz6CoKM+3yNfvAf8AZ/lXKXZ/4lfiA/8ATSWurt3B8QXftt/kK5K8/wCQPrx9ZZf50COM1MZ1w8ZxbpWN4+GPBepnH/LL/wBmFbl+udcf/rglY/xEGPA+pn/pkP8A0IV7eB/hx/rqeRi/4rPna+4juP8AcH9Ky77/AJdh/s1pagf3Vx/uD+lZl4ebb/druqPT+u5UEVZz/pTUR/61/wDdNE3/AB8uaIv9Y/8AumuWW5stj0D4HjPjS2/69pP5Gvq34dDGn3wPr/QV8rfAkZ8bQf8AXrJ/KvqvwEMWN5j1P8hXNi/4IqP8c78/8fVqB/dP8qmkH7xv92oGOLy1/wBxv5VKx/fN/uivIR6JBqAPkY/2hVDxNzY2/tOv9av6if8ARx7sKz/EZ/0KD/ruv9aYmjO18413S/8ArnJ/SvCP2lP+RSYf9RF/5tXumvH/AInumg9o5P6V4T+0kf8Aiks+uov/ADataPxoifws+clGEP1pi/8AHu/1FPX7n40wf8e7fUV6sTkNTSB/xNbf/fi/mK+xFU+lfHejf8he2H/TSL+Yr7MVOvWupbHBit0ZOpISOBXy5o6n/hpN1A5/taX+TV9WagnHevljRBn9ppx/1F5v5NXBjfip+p0YH4Z+h9Taap2Dir6qc9Kg09QFHBq6EHvXoJnmy3GAH0oKkjpUoX2NG32NO5JWZTkjFc/4pUnS7zj/AJYP/wCgmumZOvXpWB4mjzpd51x5D/8AoJqJvQ0p/EfOn7KqlvFGt/8AXqn/AKHX0/ZKfLHFfM37Jq7vFGu9f+PSP/0ZX1FZx/u+9ceX/wAFfM7cx/jP5Cqp9Keqn0qVY8+tSiP612tnCQFTjpTHU7TxVpk9jTHTjoaVxo4r4hKf+ET1jj/lym/9ANeG/snjN9rox/yzh/m1e9fEGPPhPWOv/HlN/wCgGvB/2S+dR10f9Mof5tXnVn/tEPmenQ/3efyPpK1UiMcV4/8AtLA+TpHH/Pb+S17PaR/uh1rx39ptcQaP/wBtv5LXoRZw0/jR4VKP36/9c/6V9E/skn/imL321Rf/AEAV87Tf8fA/65j+VfQ/7JHPhu+H/UTT/wBAFcWN+A9WhufQGi/63Vh/00X/ANAq1oR/4kaj3f8AmaqaKf8ASNW/31/9Bq34fA/sQAnu/wDM15R1l2zP+iJ9Kcn+tJ/2RUdl/wAei/Q/zqROZf8AgIoAqrzcX47f/Y15/wCPxnSLb6LXfgYub8A/521wXjgZ0i2+i1rQ/ix9TOr8DOPth7VmfEZc+A9V4/5Y/wDswrZtk4FZnxGXHgPVv+uH/swr2zyOp81z/wDLX6CoekVSz/8ALX6Cov8AliKDpLHSGH61sw/8f8n/AFzP8qxj/qIfrWxD/wAf7f8AXM/yqyGek/Aw/wDFRHP/ADwP869+sCRpejH/AKbp/wChGvAPgdj/AISQ/wDXuf8A0Kvf7E40bSO3+kJ/6HXi4z+Kzvw/8M625P8AxPLPn1/lV8/8f0Z9jWddca3afU/yrRJzexj61ymxOxz19DSXuPs4x6r/ADpH++R/smm3f/Ht+K/zoGZ3ik7tPvh2+xsP0Nfn7P0/EV+gXiPH2K7HrasP51+flzwxHvXq5X9o48Z0NC3/AOQrae5FdBoB/wCJpqQ/6Yt/OudhP/Ezs/qK6HQD/wATfUB6wtX01Nni19vl+p1nhoYsNPx/fcV61oC50O2J/uf1ryPw0QNP0/n/AJbOK9i8NLu0C1P+yf5mssU9Djp/xGMnQVm36jyJP90/yrauEPNZeoL+4k4H3T/KuN/Czshui14POb7Rsf8APOUfoa7bwoSdU1gejJ/I1xHg3/kIaLj0lH/jprtfCx261rGB3jP6Gvlj6VGz4cb/AI/B6S/0q/p7fNN7MKoeGwf9N95avacvzTDP8VAyxCTvbjq1Sp/rKii+8R/tVKOGGO9AGloP3JR7itOsvQT/AK/6j+talc8/iN4bBRRRUlBRRRQAUUUUAFFFFABRRRQAUUUUAFFFFABRRRQAUUUUAFFFFABRRRQAUUUUAFFFFABRRRQAUUUUAFFFFABRRRQAUUUUAFFFFABRRRQAUUUUAFFFFABRRRQAUUUUAFFFFABRRRQAUUUUAFHNFFACc0Z9qKSgBa56+P8Apc+P71dBXP3x/wBJm/3jWlLczqbEPYfhUcZ/dN75p54NMjAEJPsa2MitYHbayfQ/yrG07/kAXRP9x/5Gta05s5D/ALLVj2Rx4dujn/lk5/Q0hHHalkeBLf0M0P8A6GK5/wC94muvaMf0re1Yn/hBLQf9N4R/48K5+E58S3hP9xf6V14L+PE58X/BkbdsBWlABjpWbbnkc1owNxXvSPBZYGMVyvxK/wCQPEOP9b/7Ka6oHiuS+Jjf8SmAZ/5an/0E06Xxozn8J4tqp/0nS/bJ/wDHq5afmXUT7t/Our1IZvNN/wB0/wA65Wf/AFmoH3b+db1joobH1x+z5x8MPDo/6dmP/jxr0G0P7qXH/PR64D4BDHwx8O/9ehP6mu8s/wDUyEf33/nXyVT436n0MPhRJGTuH+7VeBt19KRnHFWI/vY/2ar2+FvZVJzjFRcaKFof+J9fexH8hXLXJ3aDrx/6ay/zrqLE517UP94fyFcndE/2Brn/AF2k/mKAOVm+bXJvaFKyviWMeAtUP/TNf/QhWnKduuXH/XKP+VZPxNf/AIoLU/8AcX/0Na9vA/w4/wBdTyMV/FZ846h/qrj/AHRWXd/ftv8AdrVv/wDVXH0FZl6Mvbf7tdtT+vvLgVJT/pL/AFp0P+sf/dNJKP8ASW+tLF99/wDdNcr3NlsekfAQZ8bw/wDXpJ/KvqrwMMWN5+P9K+VfgGf+K3T2s5P6V9VeB+dOvD7/AOFc+M/gk0f453J5vLbP9xv5U9/9c3+6Kj/5frb/AHG/lUkp/euf9kV5CPRZDfH9wD/tCs/xH/x6W/vOv9avX/8Ax6jj+MVn+JCfslt6+ev8jTQjN13nX9OB/wCecn9K8I/aUP8AxSgH/URf+bV7trZzr+ne0Un9K8H/AGkj/wAUqv8A2EX/APZq0o/GiZ/Cz53X7h+tRj/UMfcU9fufjTP+Xdv94V60TkNbRf8AkM2v/XSL+Yr7UVRk/WvivRBnWbX/AK6w/wDoQr7TDgE109DgxO6KeoKK+UtCGf2nn/7C838mr6q1GQAZr5U8PN/xk27f9Reb+TVwYz4oep0YL4Z+h9aaeo2CrqqMVnWMg2irwkFegjzZbkm0Um360wyCkEgp2JHsg9awfE6gaVec/wDLB/8A0E1ubxWD4rkH9lXn/XB//QTUT2NafxHzv+yMAfFWvD/pzT/0ZX1NaAbRXyt+yU+3xVrnvaJ/6Mr6nsmGwda4sB/BR25gv3rLiKBUgAqJXHvTw1djOFDtoNNdRtpdwpGYYpMZyfxAjH/CJ6x/14zf+gGvn/8AZHXOq65/1yh/9CavoL4gMP8AhFNY/wCvKb/0A18+/sitjVtd/wCuMP8A6E1cFb+PD5npUP8Ad5/I+obVR5Irxj9qFcW2j/Wb+S17LayDyq8b/agYG00c+838lr0IbnFD40eBzcTj/rn/AEr6F/ZIP/FO34/6iSf+givnqY/v1/65/wBK+gv2Sjjw/qB/6iUf/oIrixnwHp0Nz6D0Qf6Tq4/20/8AQauaGcaMPq/8zVHRmxd6t/vJ/wCg1c0M/wDEm/4E/wDM15Z1su2BzZJ9D/OpFP7z/gNQafkWafQ/zqVCTLx/dphcgU/6XfY9B/6DXB+MxnSLb/dWu6T/AI/L4ew/9BrhfGJxo1qT/dWrofxI+pnV+BnNWy9KzPiOv/FBavz/AMu5/mK07ZqzfiMc+AtYH/Tsf5ivb6nkdT5in6yf7oqIf6ofSpJv+Wn+6P6VEv8AqaEdJZ/5d4frWzD/AMf5/wCuZ/lWN/y7RfWteH/j+B/6Z/0q0Sz0b4IH/ipMf9O7f+hV9AWh/wCJFpJz0uE/9Dr59+CDf8VOvvA3/oVe/wBn/wAgLTf+vlf/AEZXj4z+Kzuw/wAB114ca3Yn/aP8qvO2L2M/WqF5/wAhiyJ/vH+VX5P+P2L8a5DYtdTn/ZNMuz/oZP8Au/zFObP5g0y5x9iP0H8xQMpeIFzbTj1tm/rX59Xf+sf/AHj/ADr9B9c5gl/692Ffn1e8TSj0c/zr1Ms3kcmL6FuD/kIWZ9xXR6GB/bN8P+mLVzsXF9Z/UV0WiEf29eL6wNX01LY8Wvt8jpvDnGn2B/6btXtHhMZ8O2v0P8zXi3h3/kH2ftcN/SvZ/CL/APFOW3tu/mayxexx0/jZbuVHNZN+B5EnH8J/lWtcNmsu+P7mT/dP8q41sdcdxPBr4vdGP+1IP/HWruPC/wDyHdW9xH/WuF8I4+06KR3kk/8AQWruvDB/4qHVh38uP+tfLn0psaCcTXqjtJV+wz5k3+8Kz/D/APx93wPZxV6xP76b/eFAItQj52z/AHqeTyv41HEclv8Aep4yXX8aBmnoH/Lf8P61qcVkaB96f8P61rcVzz+I3hsLRSfjSipKFopKUUAFFFFABRRRQAUUUUAFFFFABRRRQAUUUUAFFFFABRRRQAUUUUAFFFFABRRRQAUUUUAFFFFABRRRQAUUUUAFFFFABRRRQAUUUUAFFFFABRRRQAUUUUAFFFFABRRRQAUUUUAFBopDQAZpDRSGgBaT8qQ0ZoAdn3rnb3m5n/3jXQZ96569/wCPmb/eNaU9zOoR46H3qFWIgb8amxzj3qBf9S30NbGRWtOLCQeqt/KsS2yvhq6/64v/ACNbMRxp8v8AuN/KsWM48J3R/wCmD5/I0COR1fjwTYL63EP/AKFXOQn/AIqK++i/0rodcOPCOnL/ANPEVc1C2Nfvj/u/0rrwP8eP9dDnxf8ABZu27Dir8LDFZcD1eheveZ4DLwbiuS+JbZ0uAf8ATQ/+gmunD8da5P4kN/xLoB/tt/6DTp/GiJ7HkWon/TNNH+wf51y0pyb8+5/nXUaj/wAhDT/aM/zNcq/3L76n+da1TpobH198BePht4dHX/Qv613docQv6b3/AJ1w3wLG34c+HB/04Cu3tP8Aj2b3d/5mvkqnxs+gh8KJVP7z/gIqvFzfyVIn3yPYVFFxezexqRlCzP8AxPL/AB/fH8q5C5b/AIp7W895pP8A0IV1lgf+Jzfk/wB8fyrkrv8A5FvVz/02f/0MUAcpdtjXJ+f+Wcf8qxfiW/8AxQmoj/ZT/wBDFat4f+J5cZ/uJ/KsP4lt/wAUNf8A0T/0IV7mC/hR/rqeRif4rPAL7iO4/Cs69P723/3a0L7/AFVx+FZ15/rIP92uyb0/ruXAqyn/AEhvrREfnf8A3TSS/wDHw/1NEX33/wB01ySepstj0j4C8eNFP/TnJ/SvqnwG3/Esu/8AeP8AIV8q/Ak48YA+lnJ/MV9TeATnSLs/7Z/pXPi/4JNH+P8AI752xf2/+438hTpTmdv90VC5P26DP9xv5CpXOZX9gK8k9Ei1I4twc/xLWd4kP+i23/Xdf5Vf1I/6OM/3hWd4kP8Ao9p/13X+RpiuZ2t/8h/Tx/0yf+Yrwj9pI/8AFLJ76g//ALNXuuuceILD/ri/8xXhH7SZ/wCKWh979/8A2atKP8REz+FnzyOE/GmL/qG+tOH3TSL/AKhv94V6sTkNbQz/AMTm1/66w/8AoQr7JMmM896+NtD/AOQ1a/8AXaL/ANCFfYDt8x+tda2PPxO6K+ovkda+WNAY/wDDSTt/1FZv5NX1BetyK+XdB/5OOkP/AFFZ/wCTVwY1e9T9TowXwz9D6t0+TKjmr4f3rGsHGK0Q/FejE8ye5YLcdaTfUQbNG7FWQmTh8CsDxVJ/xKrzn/lg/wD6Ca12fisHxO27S7z/AK4P/wCgmsai0ZtS+I8A/ZTfb4q1r3tU/wDQ6+pbGT92Oa+V/wBljP8AwlOs/wDXqn/odfUNg37sZriy/wDgr5nfmP8AFZpK9SCTjrVUNTgxrtPPTLG/NNkkwDzUW+o5H4pNDRzvjyTPhfVhnrZzf+gGvAf2TW26trfP/LGH/wBCavdvHTZ8M6p/16S/+gGvA/2VmK6xrPvDF/6E1edX/wB4h8z1KH+7z+R9QWrny68g/aaYtZaR7NL/ACWvWbRsxCvI/wBpXmx0n/el/kteikcMH76PC5f9cv8A1zr6C/ZLP/Eh1Ef9RKP/ANBFfPkp/fL/ANcxXv8A+yY2NC1D/sJR/wDoIrgxfwHq0dz6D0bi81cerJ/6DV3Qj/xKM+jv/OqGktm91Ue6H/x01b8PsTo2T/ef+deYdTL9mT9jQjpzUsR/e/8AAaisSDYr9D/OnxHMw90pgQR5N7e/Qf8AoNcH4zb/AIkdt7Bf513UZxqF4PYf+g1wfjXjQ4PTA/mKuj/Ej6kVfgZzNsxrP8fnPgbV/wDr2P8ASrVu1UvHJz4K1Yf9OzV7aPH6nzRP95/90VEv+qqaXlpP90VEB+7pI6ifP+jRfWtiH/j+Uf8ATP8ApWOR/osf+9WtCf8ATE/65/0qyGeh/BH/AJGpB/0wb/0IV9A2v/IA0/2uF/8ARlfPnwTP/FWR/wDXBv8A0IV9BWpz4dsf+vgf+jK8fGfxTuw/wHXXjf8AE1svdz/Kr0pxeQ1n3XOrWQP9/wDpWjOB9sjH5Vym5YLfNj/ZNR3h/wBBOPQfzFDfeH0Ipt3/AMeZB7AUAQaycxsPWFq/P3URi6nH/TVv5mv0C1bp/wBsWr8/tVGL269p3/8AQjXp5ZvI5MX0LEf/AB+2Z9xXQ6L/AMjFc/8AXFq51D/pVp9RXSaKB/wkVxnvC38q+mpHjVtvkdJ4cP8AoFr/ANfLV7F4Sb/inoBnoW/nXjfhw4sLf2uj/SvX/CTf8SCL/eb+dRivhOKn/EZfuGPNZt2/7t/oau3B61mXZGxvoa40dcSbwj/rtEP/AE2cf+OtXc+HiR4k1TH/ADyj/ma4Hwo2JNEx/wA/Df8AoLV3fh0/8VPqQ/6YIf1NfLH0hteH23X1/n+8K0bADzp846is3w//AMhC+HuK0LT/AI+Zh7igZZi6sP8AaqUnGPXmoYmHmN7EU8/eBoGjT0H/AFk/vj+tatZOhn99MPYfzrVz71hP4jeGwtKKbmgGoKH0CkBpaAFooooAKKKKACiiigAooooAKKKKACiiigAooooAKKKKACiiigAooooAKKKKACiiigAooooAKKKKACiiigAooooAKKKKACiiigAooooAKKKKACiiigAooozQAUUmaM0ALQaSkoAWkzRmkzQAE800mgmmFqAFY0m72pheml/egCXd7VgXbbp5fdjWyXrEnP7yQ/7RrWmZ1Brt3qBeLds+hqVj8tQ4/wBFb6GtTIrRkHTZCe6N/KsVsDwjeEf88X/ka1+mkykf3G/lWHK5/wCEQu2/6YPQI5bXsDwrpnvcR/yNcshxrl9/vCuo8Qkf8IxpSjvcx/yNcopzrV/7OK68D/Hj/XQ5sX/BZr27Vfhasu3bFXY2r32eEy+G4rlPiQ2dPg/3m/lXSK3Fct8RWzYw/V/5U6fxIylseVaif+JjYD/pl/U1yznEV8fc/wA66bUD/wATKy/65f1Ncs5/cXn1/rV1WddFaH2J8E/+SdeHR/1D1rtLQ/6KT7v/ADNcZ8F+Ph/4eX/qHJ/IV2FlxaMfd/5mvk5/Gz34/CiePl8ewqurbr6YD1qSM/MxHoBUFqf9Nnz3NSMz7Ek6vff7/wDSuSuW/wCKZ1bP/Pdv/RgrrdNOdYvR6SVx9xz4V1M/9PDf+jBSA5PUDjXLg/7Kfyrn/iY3/FEX3/AP/QhW7qR/4nVx9F/lXOfE5v8Aiib33Kf+hCvcwf8ACieRif4zPCr4/up/wrOvf9fAP9kVfvT+7n+oqjef66H/AHRXVN3NIlR/9e596VPvP9DSOf37/WiM8v8ASuaTNT0X4HceLCf+nN/5rX1L8O2zo13n++f6V8sfBE/8VW3/AF5P/Na+ofh43/Emuv8AfP8ASufFfwQo/wAb5HobHOowf9c2/pTnP75z7CoTn+0oT/0zb+lSOcSP9BXlHcRaq/8Ao6/74rP8Qn/R7P8A67j+Rq5qGWiU+jiqPiA5t7Qf9Nx/KmBl6tIW8Q2We0Un8xXhf7SR/wCKWg/6/wB//Zq901of8VBY8f8ALB/5ivCf2kiP+EWtx/0/v/7NWlH40RP4WfPgPymmj/UN9aUfcpF/1LfWvUicxr6J/wAhm1/67Rf+hCvrgvlj9a+R9C/5Ddr/ANdov/QhX1iWwx+tdkNjz8TuiC/c18waC3/GREjf9RSb+TV9L6i/Br5l8PHP7QLn/qJzf+zVw474qfqb4H4Z+h9R6c2VrRVuOtZGnN8taKNXox2PMmWFb1NKGqIEUuapsge7Vi+Ij/xLLv8A64P/AOgmthvu1heJXxpt3/1xf+RrKpsbUt0eB/stHHijWf8Ar0T/ANGV9PWL/uxXy/8AsvnHijWP+vVP/Q6+mbF/kArhy/8Agr5nfmP8VmmGo3moA3vSlveu484m8wVHI/FQs9Nd+KLFI57xu2fDmpj/AKdJf/QDXg37LhxrGsY/54xf+hNXunjRh/wj+pD/AKdZf/QDXhX7LpA1bWf+uEX/AKEa87Ef7xD5np4f/d5/I+l7Nz5Iryf9pE5sNK/35f5CvT7R/wB2K8r/AGi23afpf+/L/IV6C2OKn8aPD5yfOT/cr379k8/8SPUvbUYv/QRXgE3+tT/cFe+fsnn/AIkupj/qIRfyFedivgZ61Hc+hdFP/Ew1bHpH/I1d0L/kDt/10f8AnWfo/Goap77P5Gr2hMDozf8AXR/515p0l2wOLNfof51JE2ZR7JUNgf8AQ1z6H+dSRH97/wAAoERRf8hG79gv8q4Txt/yALc+w/mK7lDjULv3C/yrhPGzZ8NwH0x/MVpR/iR9SavwM5GBhVPxs2fBuqj/AKdmqaFulVPGJz4Q1QZ/5dn/AJV7aPIaPnKb77/7oqNf9V+FSy/ef/dFQr/q/wAKSZ0lj/l1j/3q1Yv+PxP+uf8ASsgH/Rk/3q1Yf+PtP9z+lUmSzvvgs2PFkXvC/wD6EK+g7M/8U/af9fI/9GV88/Bo/wDFWQf9cn/mK+g7TP8Awjds3pc/+1K8nGfxDtw/wHZX5xq1kR/z0/pV+Y/6ZB9azL8n+0rL/rpWhcMRfQj3rlNy03Lj6GkusfYJP90YpWI8wfQ1Fcn/AEF/92kwI9T6Lx1iavgDWRjUr1fS4kH/AI+a+/dSPEf/AFzYfyr4F14Y1e/HpdSD/wAfNellu8jlxeyBT+/tD6EV0ujn/io5veJv5VzQ/wBban3FdHpRx4jcf9M2/lX0tJnjVlp8jo/D5xYQ+10f6V634RYf2DH/AL7fzrx/QG/0JOf+Xr/CvWvCLD+wk/66N/OliNUcUVaZp3B4NZtyeDVyd+tZ1wwOa5DpRJ4S5bRj6XbD9GrvvD//ACNmoe9uv864Dwm2G0j2vP8AGu+0Jv8Airb3He2U/rXyrPpkbegkLqN974rQsiDcz/hWZoRzql6D6A1oWY/0ybnpg0Ai1Gf3jj1Ip6nlfqaZH/rHpx/h+poGaGin9/N9B/OtXdWNo7Ymk9x/WtTd71hU+I2hsS5pQ1QhuacGqCycGnDpUQanA0ASUU0GlzQAuaXNNzRQA6ikooAWikzRmgBaKKKACiiigAooooAKKKKACiiigAooooAKKKKACiiigAooooAKKKKACiiigAooooAKKKKACiiigAooooAKKQmkzQA7NJmkzRmgBaKaTSZoAdmjNMJpM0APJpCaYTSZoAkJppNMZqYzCgB7NUTN9Kazj1qF3HrQIlLj2phcVA0nPamGXntQK5Z3+9ZEhJ3t6saumUetUWPyOPetaZE9hG4H51EeLV/9009uVP41C5xZvz/Ca1MyqcDSJv8Arm38qwbpgvgy794GrbmP/ElmI6+W38qwNQGPBl4fSE0COZ8QHGg6Ov8A08J/6C1cnEf+J3qP/XQf1rqfEh/4k2jDH/LcH/xw1yELZ1jUD/00H8zXXgP48fn+RzYz+CzXibFW4nrNjerUT9DXvs8Nl9X4rlPiBLuhjhBGQCevrxWX478S6jp2oCys3WNPLDFgPmJPvXD3muX0ud8m7Pqa0pw6mfK2Q6kxS8glP3I02nnvzXMT7linUgAufl59607y7klJ3VmXADdc/nUVXc7aUbH2R8H12eAtABHI02PP5CustCTZhR6sf1Nct8J8DwXoiemmx/yFdVaYFj/31/M18rP4me3HZEkZw5+lVrYn7dOcd6sDliB6Cq9qc3c/+9UgUNPbOqXxHaSuOuWx4S1Ed2nP/o0V1mmHGpX/AP10NcfcsP8AhEb0/wDTf/2qKYzlNSIGsXH0X+Vcp8UrlU8KPb5BeeRVAzyAOc/pVr4javcaRbX99ahTKCiru6DPGa8T1LXb++laW7maV26lmzXtYRpUlc8utTcqrZTvQ22QDBJxis+6YmWMgcKOanmnL9f51Tk5PJP51tKV9jSKtuROT5pOODRHuy3TnpSlEP8Ae/OnxhFP3SfxrBps0O2+FF9FpviNbi4cLG8DRsxB+Xof6V9SfCu8t77w9dzW0gkTzSucY54r4206b98FVdvHXNfU/wCzgx/4V/MSet0//stY4p/urBRj+8ue0u2NRi9BG39Ke7bmk9gKgc/8TCLn/lm39Kex2ySY7gV5aOwjvmxbj/fFZ/iBv3Np6icfyNXtQx5SD/bFZ/iL/VWp/wCmw4/CqAz9Zcf2/ZHr+4f+YrwT9pBv+KXtvfUH/wDZq941X/kP2QPXyG/mK8D/AGkv+RatBk/8hB//AGarpfGiZ/CzwME7SMUgJ8vbjnNKVHqaaCq9ifxr0kczNXR3MeoRXHBCOjY9dpB/pX09pmu6bqUvlWt2kkpTeUGcgd+3vXylFdeWcqhz/vV6x8FJ2k1VpWJy1sx5PuK7qLTTRw4mGnMerak+Aa+a/Djf8X8Zv+olP/7NX0VqMmcjNfOXho/8X2Yj/oIz/wDs1cON+On6muC+CfofTmnPxWirjFYunvgVorJxXpR2PLqbl0PTg9UhJTxL70zMttJxXP8AiZ86bd8/8sX/APQTWo8mR1rB8Ruf7Nu+f+WT/wDoJrKpszopLVHh/wCzKceJ9W97VP8A0OvpWxf5RXzP+zYceJtV/wCvVf8A0Ovo+yk+Qc1w5f8AwUd2YfxWa4b3o3j1qqsmR1pd/vXeeaTO/HFQvJgGkL8VDK+AeaGiomF4wfOg6iP+nWX/ANANeH/sxNjV9Yz/AM+8f/oRr2jxdJnQ9QH/AE7Sf+gmvEf2a3C6xq2e9vH/AOhGvNr/AO8Q+Z6mH/3efyPoyGZI4S7sFVRkk9AK8l+O2p2t/Dp8FpNHNs3uzK2RzgYr0TUpf+JFe8/8u8n/AKCa+bNY1N3uZInDsEYgEtXe2lG7OWjBuV0ZdwWEq5HAXBr3r9lB/wDiVamh730X8q8BmcOc/MPxr3r9lMhdO1Pn/l9i/lXmYl3iepS3PofSGxqWp/SP+Rq7oDf8SxwP+er/AM6ztJb/AImWpj/ZT+Rq5oJI0yQ5/wCWr/zrhOg07A5s1/H+dSxnEg/3ar6aQLIZ680+M/vgP9nP60hEa/8AIQuAf7q/yrhfG3HhqH8P5iu5Rs6pcf7q/wAq4Lxw3/FNR+2P/QhV0vjj6k1PgZxcBrN8X6jaf8IrqUa3EbO0DIFDDOTxV2Fq8b8T3UkVzcLubYZCMA+9e2rHl8t2ctOGV3GP4ccVACfL+6c1Zm2Oc/MM1EIh2c/lUm45TmBFAJOa1IW/0mNu23BNZqKyn736VbhlIxnmmmSz0P4NA/8ACXQcY/dt/MV9B25/4pyEelz/AO1K+dfg3OG8aQpg/wCqY/qK+iLY/wDFNof+ng/+jK8vF/xDsofAdjf/APISsT/00FXrk5vIf96s7U3/ANPsf+uorQnbF3Dnu1cqNi0x+cHPY0y5I/s18/3KV/8AWAdBTLr/AJB0gH9ygY3UuRGP9hv6V8C+IyV1zUk2nIvJv/RjV97X7EeV7o39K+FPE1mD4m1QiYg/bZv4f+mjV6OXJ80jlxT0RR3fvLbg8EZ9q6DS5R/wkBk/h8thnt0rFht2B/1o/KtG03Jj5ga+ipX6nlVUmjqNDZhaBcHIud2MdvWvVvCMgOkeWM5VySPrXjdjqBhIJG7FdHpfjC4s+IkOD1HY1dWPMrHC4tSueozt1qjKeao+HtcTW7SSZYWiaMhWBOQcjtVqVsmuW1mbol8MHH9mH/p+Ar0DRuPF9yB3th/OvPfDJ+TTva/H867/AEc/8VlN72v/ALNXyr3PpVsbejHGr3g6fKK0rI/6ZP8ASsvRznWrvP8AcH860bMkX04/2aQy3E2JHFSDk/jUS/61j7VIWGeOOaAsWtOOJ5PpWhvrJt32ztVsSj1rCpuax2Liyc96er1SWQetPWT3qCy8ripFaqSSVMrigC0GpQ1QBhTg3vQMmzRmow1ANAEuaXNRg0oPNAD80tMyKKAH0ZpuaXNADs0U3NKDQAtFFFABRRRQAUUUUAFFFFABRRRQAUUUUAFFFFABRSZozQAtFJmjNAC0UmaKAFzRmkooAXNJmimk0AOJpM03NGaAFozTS1NLUAPJpMimFqYWoAlLU0tURemF/enYROWppeoDJTDJRYCwWppeqpk96a0vvRYCyZKY0gqq0p9aieanYRYklqCSaq8k3vVeSf3p2AstMc9ajM3vVN56ia49qAL7TepoJzGT71mmf2q/zsArSBExS2M/jUMvFjIf9k1JL0b8agnOLJwf7pqzIqynboUxI6xNWDqzAeCbo/8ATE1uXZH9gz/9cjWDrGP+EIufeKgDl/EZ/wCJZpAH/Pcf+gGuOhP/ABNdQP8A01/qa63xGQLPR19Jv/ZDXGI//Eyvj6zH+ZrrwP8AHXz/ACObGfwmakbVZjesOfVbW34Mgdx2U1Sl1vf1kVF9Aa9+1zxJGB8SHDa8ec4iWuQmYVr+L7tZ9S3xtuGwciudllHrWvMki4Q0GzGqkxp8soqrLIMGuapI6YxPtL4XfL4O0f8A7BsX8hXT2jf6CPdT/OuX+Ghx4Q0nHbTov/QRXSWjf8S4H/ZP86+al8TPXWyLELZmcewqvbZF9OP9qpIsiZselQ2rj7XOe5akMzNMJOpXp/6amuPum/4pC797gf8Ao0V1ulsft19/11auOuDnwfcDPW4H/o0UAeS/GaRF0y/TcATLHgZrxKRua9T+OFxjUZIc/ewcfTFeUyEV6lF2pxOOa99jHNRMaV3HrUZcVpzhYWlFR7hSh6lyHYv6cf3/AOFfVf7OBA+H03/Xy/8A7LXyhp74lz7V9U/s3Sbvh7If+np/5isMS70yqS989qfI1GP/AK5t/SpHPzyfQVAzbtSTH/PJv6VIW+d8+grgR0kWpEiKMf7Yqhr7DZaA/wDPYfyq3ftlU5/jFZviBsx2ZH/PcfyNAilq748Q2Z9Ldv5ivBP2k2P/AAjll737/wDs1e6623/E/tP+uDfzFeCftKtjw1p3P/L8/wD7NWlP4kKXwnhZamE5FMD00tXepHPYeTXq/wAFpAl7lmAH2Y9TjuK8kDc9a6vRb2S1tYvKfadmCa6sNJJu5hiIuUbHu+oXMX/PRP8AvoV8/eGnA+NxfcMfb5jnP+9WjdatMw+aTNcJp85Hi8zZ/wCWzn+dc2OkueHqVhKTjCfofWljcxY/1if99CtBLmP/AJ6J/wB9Cvny21JsA5q6upN/er1qdpLc86dBnvQuY8f6xf8AvoUpnT/nov514Ouov/eqQX7n+L9a05F3MvYM9zadNv31/OsTxBOn9n3Q3j/VN39jXk7XzEfeP51nalek28g3H7p/lXPWSjHc6KVJ3Gfs5OE8SaoSQM2q9T/t19D2M67Bhh+dfI3w+nMWpXByeYwP1r0q0vmCj5yPxrgy1J0kjrx9Nupc97SZeu4fnTjMM9R+deGrqLAffP50HUn7Ofzr1PZrued7NnuJnHqPzqCaYYPNeKHU3H8Z/OopdVkwfnb86lwS6jjSZ6X4slzo19z/AMu8n/oJrxX9nl9ms6nzjNun/oRqfWdTka0mG9uUYdfauH8BXj2t5cMrEZjUdfevIxLSxEPmerh6b9jNeh9Q6hPnRbwZ/wCWD/8AoJr5p1Q/6fP/AL5rsBrlz5JRZuCMGuK1Rwb2YjuxrqqyXKrGNCm4tldmr3v9llv+JbqnP/L5D/Kvn5nr3n9lt/8AiXaoP+nyGuCs/dO2C1PozRz/AMTPUz/sx/1rQ0I50uQ/9NX/AJ1l6G//ABNNTHYrH/WtLQW/4lzr/wBNX/nXGamjYkfZFz70qn96h/2P61DZk/Zxj1NSpjzV/wBykA2I/wDEzuP91f5VwXjw/wDFMr+H/oQruYv+QjOe+1f5V5j8Ybg23w+nmBIK7OR/10UVdP40Kfws5aBq8Z8XnNzP/wBdT/OtUeIbhB8shH41zutXHnh3PUnJr1+ZWPOjFpmWSKQGmM1IGGaSkaWLCmpENVlapUbihyFY7v4NMB44g/65N/MV9G2pz4Z9hck/+P182/BxgPHNt7xt/SvpC2P/ABTBx/z3P/odebivjOuj8J2OpMDeWH/XVa0rrH2qD2esi/P+l2J/6arWpdnE8R9HrA1Lp/1gNMuP+PCQf7Bo3AlD602U5sJT/sGkMh1Fhth/3G/kK+H/ABRx4o1Yel9P/wCjGr7d1A5EB/2T/IV8Q+LWC+LdYHpfz/8Aoxq9HLnaTOXFbIqIeasxNiqSuKnRxX0FOR5k0aETVaibNZkcnPBq3DMO5rXmMXA9J+Gr/wCg3o/21/ka6aRua4TwNcmO1udrEZZeh9jXQrqm04k5Hr3rnlvchb2N3w0f3VkfS/X+Yr0LSPl8Ytnvan+Yrznw2wNrasDwb9CP++hXoWl5/wCEx9/szfzFfJy3Z9JHZG9pJ/4n12P9gVo2pzqUoz1WszSj/wAT65PcxD+dX7Qn+0pCf7tIZdT/AFrVLgZGO5qFTmVzUpPQj1oGBbY5J9cU4TA1Wvm2oGzj5v6VWWcetZT3NYbGosozUiyj1rKWbmpUnPrUWKNdJfep45PesiOf3qeOYetFgNVZKeJKzklqUS0WGX1f3pweqKy+9SCWlYRcD04NVMSU9ZKLDuWg1OBqsHp6vSsBYzSg1CHpwagZKKKYGpQ1ADs04GmZozQA+ikBooAXNGaKKADNLmkooAXNFJRQAtFJRQAUUUmaAFopM0ZoAWkpKKAFzRmkpM0AOzSUmaQn3pgKTSUmaQt6UWAUmkJppNNJosApamlqaWqNmoAeXpheo2f3qJ5BTETM4qNpB61A8tQvLRYCy0g9ajaT3qo8tRPN707CLjTAd6iacetUnn96hef3p2FcvPP71C849aoPce9QPP6miwcxelnHrVWW4HrVOS4HrVWS4HrTsLmLzz+9QvcY71nSXHPWoGnPrRYXMabXJx1rplP7sc964qxYS3cSupZC4B+ldii5K7ZOM5wRVxREnckbGCCeearzndZP/ump2jO8kyLgg8YqGSM+WyFlwRirJKN7xoM4PeI1z2vPt8F3I/6Zj+ddBegtYyWxYDcu0H0rmNY+bSJNPdwVdcFgOaQjmfFT4h0j08w/+gGvLPEd7NHqM8UcpVWdiwB6/Ma7/wATTk28SPIf9HJKEcc4xXkXiCaaXV2a2iL7sl2xx19a3w9RUqikzOvBzg4ome4OPvGoJJ89zWfc3LxLg4Ld/SqkuoL617NLEwqbHmTw8obmnI6nrVSXYewqg19nvUT3pPr+Vbe1j3EqbLUoX0FVJxHg8CoZLupNKt7nU76OC3geUF1D7RwFzzk9qxnVjuaxgz7G+HX/ACLOmKP+gfF/6CK6Oz/5B8Y/2T/Oue8LbLezjggwqJEsUYP8IHSukt42W0SNWUkLgmvAeruemtB0Z/et+VVbQf6VP7NV4JsYnKnJz1qooEMkjEr8xzxSAyNMP+lXp/6atXFXT7fB0vqbhf8A0YK7QkWbzyEhhIxbHpXCa0PI0mSw83Klg+4DBGG3UDPD/jM4bxMoP9w/0rg2RD2Fdx8S4XvNXjaNWkkJO4r+FcfqFobSEMzHdnBHpXdQrRSUWc1Sm22ym0MfoKjMEf8AdFHm+tBkrs5kY2YnkR/3RR5UY/hFN8w560b/AHpNoaTJlCjoAK+mP2bD/wAW7lP/AE9P/MV8y26S3EywwozyMcKqjk19TfA+yGneC7W0XCNJ+8lB5+bPNceJkuWxtRTvc9eTH9pLntE39KeT+9f3xUdv+9uRPkBdhXGeas+QfmdiAD05riR0FPURiJcf3xWb4g4WzA/57f0rXvI96qFZThsnms3XI/PWDy8AxPuOT7UxGLrJB8Q2v/Xs3/oVeC/tCkSaFYBuR9sc/wA69w12ZhqEV0m393GUKnvzmvEPjLGbzS1iJLsk26MAfdyefrVQaUk2KSujxTyo/wC6KXyYv7oq9qWnSWNpFPISPMbAUj261nGSvQhJNXRzNNOxIqRg/dH5VKr4HHFVfN96Qyj1rRTRNmSzSn1rmrRv+KgLf9NG/rW1PLgZzXP27Y1ctn+M1w4qXvR9Tqox0Z2EFww71aS5Pqax4pBjINTJJ716FOq0csoGuLlvWnC6I71lCU+tHne9be2M/Zmubo461SvbndE4z/CarefnvVW7lHltz2rCtVui6dPUzfCUmy9mI/uj+ddrb3Z2jmuC8OttuZfdR/OupglAA5rlwM+WBvio3kbf2s+uKT7W3rWYJc96Tza9L2rOPkNQ3Z9aje5OOtZ5m96Y8wxUuqNQDUpy0Mgz/Cf5Vy3hlis8uD/CP51s38v7puexrA0Fts0nuBXlV5XqxO+krU2dYkp29agmjjfJKjP0qJJcDrQ0me9daehz21I3gi/uiva/2aFEVpqIXjN3DXj1hayXrSLERmNdx47ZxXsvwIhNjYSsD873IZ8jqF6YrnryVrGsE9z6A0YY1PUf9yP/ANmrT0A50+X2lesbQpi1zdzuuBMqhQDnpn/Gt3RIzHZukoKs0jMB14NchqWrAn7MCemTUwH71cdlNJaQutuFYY5PepViZHUkcbaAKsZ26lMT/dWvKPje/wDxbG79Rs/9GpXq837m+eRgTGVA3DFeXfFm0N74OvNPY7R5bNwckkEMP1Aoi7STBq6Z8zqxpHVHGGANRyrJDK0UilXU8g0b/evVTOFoRrWH+4BTfskX90U8SU4PWiaFqMFnF6Cnizi/uin+YKmtUe4ZljxkDNKUopXYJSZ0XwqiSHxpaMvB2sP5V9E2rf8AFMSc9Lg/+hCvnf4fq0PiiKR/vRqWHvyK990qSSfRmtVAMjyFuvHJzXmYiSlO6Oykmo2Z3WoHM1iR2lWtO7y1xF/v1kyZnktfLBYI6lj6VsTqXmj2AsA2SQKxRoWOjIPSkm/48Jcf88zTtjNKvBwPao5A32SRCpHyEAEdaAKt++Irb6N/Kvi7xhbRHxdrBI5N9Nnn/poa+yNTkYW8DFCCudwPGOK+RPida/2X441KHzC4llM+SMff+Yj8M4ruwDSm0znxKbSsYSWkPp+tTx2kXp+tVEuR61Ol0vrXtwkjz5JluOzh9P1qzFaQ91/WqSXS+tWI7tf7wrXmRk0zXspGtlKwOUB6471bW7lPJkJrFju0yPmqeS5WJMseK56lenB2k7DjRnLVI9V8KSZ0q0bP/L3H/Na9J0pwfGSH1tm/mK8j8EzPJYW0YYELOkpJ44GOP0r1LR5i/iJL0KRCIWXJPc47V81J3bPbjojpdNJ/t+fH/PL+tacBxqLj/ZrL0ps6vLKQdhjxuI4rVtwWvWkAONuAcUgLSfff6VLn+dRRElnbBxt9KcWJTcsbk7vSiwyprb7bXOcfOP5VkLce9aPiBJHsJjwoTD5PfA6Vyy3HvUSWppCVkbi3B9amSfPesFbjpzU6XB9amxXMb0c3vVmOY1gx3J9atRXB9aVh3NxJjUyze9Y8Vxx1qwk9Fh3NVZvepVl96ykmqVZvekFzTWSpFkrNWb3qVJvegDSV6kV/es9JfepkkpAXVb3qRWqmslSq9Ay0GpwNV1anq1IZODTsioQacDRYCQGnZqMGlBosA/NLmmZ96XNIB2aM03NLQAtLTaKAHUUmaM0AJRRSZoAWkzRSZpgLmim5ozRYBaTNJmjNMAJpM0hNITQApNNJppamlqBXFZqYWprNUbNRYVxzP71Ez+9NdqhkemK455KgeWmySVXkkp2FckeaoHlzUckh9arySe9MLkzye9QPL71DJJVeSQ0WFcneX3qB5veq7uT3qF3p2Fcnkm9DVeSb3qCSQ1Wlc07CuTSz+9VpJs96ikaq7tTsFyaSU+tdF4e0e0ubBLy4Lu7E/L2GDiuReT0rvfChJ0G3J/2v5mnYVyw+mWTpsdTtHTAxipEso1AEd1Oo98H+dTNTQcGqIbQjW7gcXT/igqNoXK7ftTD/ALZip85qNjSHoUJ9Klm4/tKRfpEKy7vwiJ879YuBn0jH+NdErY70O2aAPOPE3gKxttJur9r+Sd4Iy4V4+Dj8a8R1+XgqoCAdlGK+mPGzEeFNSOf+Xdq+XdekGWoA5e8YNMB6kCr72cf90VjXUv8ApK8/xj+dbhmBqouxMkVJLKP0H5VXltIx2FaDPnOBULn2quYVjofhF4Es/Gvih9OvLp7W3ggM7lEyXwQNvt1619C6b8NND061W1szHHGvZYcH6k55NeV/sw/8jnqJ/wCnA/8Aoa19Dhuahu7KijEtPDaWgCw6hKAPVM/1rRjsp41A+3KfrF/9erRamOxxSBkTpcYx9rj/AO/P/wBeqk9pdyf8v8a/SD/69WWJJpwoAxLnQbu4BH9rBc+kH/16ybr4ffauZtYZs+sZH9a7IHFIXpjPm/4l6bBoWo3GnwhGMfWRVxuyM14/q48yQg8817P8bnz4qvx7j/0EV4xenNxjPel1Az/IA7U0wj0q4R703HpVXFYqGAelIYVHNWytIUzRcD6O+Dvwg0+PwpY65PdRSXeoW6zEtGT5atyFH4Yya9G07wT9gAFtfoij+EKcVN8LyR8OvD6+mnw/+giuk3YqXcZQt7K8gG03kL4/2DVoC46GWA/gRTic1GxoAhnS6JO2S3H4NVC5sdRmGFu7RP8AgDVoE80gNAjlr/wpqd197VbdQfRCK5Lxd4Aax0i61We5t7gwIXwQcn869WZuK5z4iyf8UXqnP/LuaYHyH8QjuWHj+M/yrkPLz2FdZ44O9oh6Of5VzaoaLjRX8oeg/Kk8kHtV1Y/rTxDQBmm1RvvKDTBptsG3iBd3ritcQH0pwgPpRa4XMsWyDogFOFuP7orTFufSnC3P92mFzL8gelAg9q1vs3+zSi19qNRaGSLcd1pTZRP95Aa1xak9qcLQ+lAXMSLSrSI7khVTVlbVB0Fai2p/u08Wx/u0JW2Bu5mCDHQUGD2rV+z0G3p3fcWhktb0xrcdxWsYD6Uxrf1FK7HoY0tlE4+ZAaqppdrESY4Qp+tbzwAdqheIelJq40zKNuB0WmGICtN4xULJzTuw0Nn4bRqdeKkbgyYIPfkV9L6N8M9TtNtxatbxbwGKiQY59RXzd8P/AJNfQj0H8xX3NZN/oUB/6Zr/ACoE9zlNP0HX7Vh5hs3A/wBvFb1rDqEYG+3hJHpMP8Kuuxz1poJ6UgFRrgdbdPwmH+FPZroj5LdP+/opozUi8CkBQvbfVJlIjggHu01c7q/hDVtURo5pIQjDBVXHP512gc1IjHPWgaPnL4y/Cq407w8/iKBIUFmAJwHB3ISAD9QT+teJCBfSvsn44tn4U68P+mC/+hrXyEi+tUpPuJpFYQL6U4W6+lWggp2Kvnl3FyrsVPsy4+7VzR0Ed0MDGaOMVJakLOvbmplJtAkj1fwJ4bi1+4RbaEC7VCwZSF4HXmvTtO8JeILMABI3A/vOv+Nch+z++dcxnrbv/MV7k7HFZlHOWNnrMOPMskIH92YVr27Xg62bZ9pF/wAasZNOUkc0wHCW5C4+yuP+Br/jUNx9rkTb9jJ54JkUVIXOetOV8jGaQjGvrDVrpSqwRoP+ugNcP4o+FB8QrL9vty8r/dlVlDIcdRz+leqoTUqucdapNrVDaT0Z8VfED4d6p4M1ZLPUQGjmUvbyqeHUHB47EVz6acD3b8699/an+fU9DP8A0xl/9CWvG409K2jVlbcycI9jMTTM/wB6po9HU/xsPxrUjXHUVZj21Xtp9yeRdjFm00WsYlDseQOa3NGjgnjEVxGsiH1qrrbKLDg9HFS+H5MutYzk5O7NIpJaHpvgzwvf3cZbRVklWPG5ODtzXe6boniS1AEmmOfowqD4Eyf6Lf8APdP616c75FQWjmrGPVUwJNLnGPQg/wBa2bea7CgNZXC/l/jVkOQKcrH1oExq3FwBj7LN+OP8aXzrojAtZD+I/wAaf3pwbFMCjeW15dwNEYgqsMHJzxWTc+GJtmYDhvQ9D/hXSMxPSlQnPJpNXBOx53dxz2dw1vcoY5F6g0RzdOaueOm26+f+uS/1rGSTpxU2NLmtFN71aim96x4pKtRye9Kw7mxHN71Okx9KyI5D61ZSU0rAaqTGpklrKSU+tTRyH1pWGaqS/Wp0lrLjl6c1Yjk96ANJJasJJWZHJ71Yjc0rDuaKSVOj1no1WEelYdy8jVKrVSR6mVqVh3LatTwarK1SBqB3Jgadmog1OBoAlBpQajBpwNAx2aXNNzRmkA/NGabmjNAD80U3NFFgCjNBpKYC5pKKQ0CDNGaSigANIT70U05oEBNNJoprZoQhCaYxpTTDTAaxqNmpWqFyaAGyGoHNOdqryPTsJjZDVaRvSnSufaq7tVWFca7e9V5H96dI4qvI600IR3qBzSu9QPJiqsK4rsBUEknoKa8vtUEkhppE3ElkNV5HY96SWU1WeQmmK46Rj61C7Hpmrltp1zP8xBjX1bqfwrRg0iNe24+ppiOdcSY+VCxr0DwpvTw/ahwA2DkfiayV0s4yAK0be5ltLZIBayPtHVSP8aBGuzUwkZrJbU5x0sLg/wDfP+NNbU5gP+PG4/Db/jRdAa5fFNZ/esU6tNnnT7nH0X/GlOqPjJsrgf8AfP8AjRoM1ixpu/1rK/tY97Ocfl/jUUmson3ref8AT/GkIZ48lx4T1IesBr5W8RXAVnGfWvorxnrAvNAvLS3t52mlj2oCAOfzrwq48F6tdzl7xVRSfuKc0mNHm00ks1wDEhYA5z2rXtpLhh80fNd3b+CmjAHlj8qvQ+FNv/LP9KEh3RwiJMw+4RTjbSnqDXoS+GG/55j8qd/wjEp+7Fn8KYi/+zZAYfFeoO2Rmzx/4+K98L815D8MLCfQ9XuLmeBgkkOwEDvkGvRhrEeP9TOfotAGyGzQ31rHXWY/+eFx/wB8U4axFnmGf/vigRqbaKy/7YhzjyZ/++KeurQ45jlH/AKBl5jTMmqEusWw/gmH/bM1BLrlqiksJR/wA0XA8I+N0oHiu/z6j/0EV43PvmuTsUkA9a9m+Jelahr3ii6nt4HFs7ZDkY3DArDtfBksagNGM/SpKPPI7dyOUNTLasf4DXpC+E2A5T9KePCxH8H6UxHm4s2/uGl+wyHolekHww4HEf6VG/ha7biOB2PsKAPoD4bjZ4E0ND1WxiH/AI6K6E5rlPBuoQWnh3T7SUSrJDbojDy24IGPSt5dUtW6GT/v23+FAFvJNDDiqY1G2z1f/vg0NqtmBjMn/fpv8KYidhTOagGp2h7v+Mbf4Uw6la56v/3waAJ3rmviO+PBOq/9cD/OtmXVLJRlpCP+AmuS+IurWlz4S1G2tpPNneIhEAOWPpQB8ueI0NzchF6qSTVCOwb0/Sutg8P3zSNJNburMcnIq9HoTj7yfpSQzilsj/dNTx2Oe1doNFI/g/Sl/sjH8P6VSEcgth7Gnppuexrrl0sj+H9KkGm47U9CTk0032NSLphNdV/Z3tSjT8dv0qrisct/ZftS/wBmgfw11X2IdxSfYl9KLhY5cWAA6Uv2DPauoFkM/dpTYr6UXCxyw0/2NO/s6umNktAsx6UXGcz/AGbSHTSO1dT9i/2aDYn+7SA5NrA/3aiewPpXXnTyT90U06YT2o0A4ySwqrLYn0rum0nP8NRnR89qWgHn8lkfQ1XeybsDXoj6Hnov6VXl0JscIx/Ck7FXOT8IRNBrkRbjccfrX23p7k2MH/XNf5V8g/2Vc217DNHbyNscE4U9M19X6NqNk2n2/wDpUH+rX/loPSkBqE0qjFVvt1jkf6XAP+2gqQ31kF/4+oef9sUgJ1NSg1SS+ss8XUB+kgqQXlr/AM/EX/fYpgWe9OBwar/bbTH/AB8Rf99infa7YjIni/77FJgcv8aVL/C/XFHUwD/0Ja+TUtX9DX1n8UJYrjwJq1vHIjvJDgKGBJ+YV8+waJK3WI/lQM5MWxHamtDiu3GgSd4/0pG8OsR9z9KYHCSLtHf8qrrNtnUHI5ru5vDT4/1f6Vm3vhmUgkQn8qljR6X+z7L/AMT5Rn/lg/8ASve92RXzp8CDJYeKfIufk/cPtLcZ6V79HdRN0kT86aEy53obioRcQgf6xP8AvoUn2mE/8tU/OnYRNnigGofPiz/rF/Ol86LGfMX86LAWo2qQN61RjuI88Ov509rhP74/OgDxn9ptS99opAziOUfqtePrG3oRXt/xyh+2XWmYG7asn8xXnS6KzD7hH4UXCxzAG3qTTZJlQcmuofw+5H3T+VVJ/Djn+E/lRcVkcXrOoxmAx/NncOcVe8OXA3oc1o3vhV3BBjP5VlxaJf6XPvjV3jz90jp9KTK0Pov4FSf6Nf8AP9w/zr1APmvGvgFeK9veqThgEyDwR1r1tJkx94UxFot6UqvVbzlz94fnT1lXP3hRYC0rU7NVRMgP3hT/ALRH/eFAiwGFPVgKqeeg53CnpMhH3hQBwXxEuGi8TBTGTGYEO4duTWZBIGAKsCK6zxVZR3WorIVBPlgfzrG/soA5UYpjuVoyfWrMZI9KZJYXEYygLj071GjMDggg+9KwzQjerCMD3rOjc1YR/elYdy+hqZDVKOQetTow9aVh3LiMPWp43qkhHrU8bD1qbDL0bmrMTmqEb+9WY3pWKuaEbVYjNUIjVqMmkBcRqmQ1VjPvViM+9IZOpqVTUCmpVNIZMDTgajU08UBckBpw6VEDTgaQySlzTKUUDuOpc02loGOoFNpc0ALmig0lAgpKKDQIQ0UUhoASkNBNIaBATTDStTWpgI1ROaVvrUbmgBrsKgdqe5qvIaYhkjVWkb3qSVqqSk800IbIR61WlbHellPvVWQ1Qhsj1BI9LI1VpJPamIJJR61Xd896JH9qru5/u07iFdwKrySe9K7HvVeRh60XCwkjD1rR8HiOTX4w6q4CM2GGRnFY0jehp2n6pJpFy18kSTFI2G1jgdKHKyBI9Q2Q5z5Mf/fIpMRDpDH/AN8145/wue7/AOgBB/4En/4mkPxmuf8AoAw/+BJ/+Jrz/wC1sL/N+DOv6hX/AJfxR7JmPH+rT/vmgiI/8sk/75rxwfGW4/6AEX/gSf8A4mj/AIXNN30CMf8Abyf/AImj+1cL/N+D/wAg+o1/5fyPXnWLP+qT8qaUiP8Ayxj/ACryL/hckvfQV/8AAk//ABNKPjNIOP7AX/wJ/wDsaP7Uwv8AP+D/AMhfUa/8v5HrJSHvbx/lTXhtz0gj/KvJz8ZCR/yAB/4E/wD2NJ/wuI/9AH/yZ/8Asaf9p4X+f8H/AJB9Rr/y/keqG2tf4reI/hTGsrButnCfwry0/GEHrobf+BH/ANjSf8LfTP8AyA3/APAgf/E0/wC08L/P+YfUa/8AL+R6a+m6W3XT7c/hTBpGkH72m2/5H/GvNf8Ahb8ffQ5P/Agf/E0v/C34v+gJJ/4ED/Cj+0sL/P8AmL6lW/lPSv7G0X/oGQfr/jTX0fRscabbj8/8a83/AOFvw4/5Akv/AH/H+FIfi9Aeuizf9/x/hT/tLDfz/mH1Kt/KejrpGk45sIf1/wAaDpmljpYw/r/jXm5+Ltv/ANAeb/v8P8KQ/F2176PP/wB/h/hR/aOG/n/MX1Ot/Kek/YbBfu2cY+hP+NHkWQ4+yx/mf8a82/4W3aEf8gicf9tR/hUbfFuy/wCgRcf9/V/wo/tHDfzh9Trfynppt7P/AJ90/M/400wWWObZP++j/jXmX/C2rPP/ACCrn/v4tI3xYsz/AMwq5/7+LT/tDD/zh9TrfynpTR2YP/HsmP8Aeb/GomSzJ/49l/77b/GvNm+Ktkf+YZc/99rSH4p2JP8AyDLn/vtaf9oYf+cX1St/KelG2sSPmtV/77b/ABqKTTtLbk2Y/wC/jf415tL8XdNiOw6bdMe+HXim/wDC4NMP/MLu/wDvpapY2g/tEvDVV9k9IXSNGY/NYg/9tG/xofQ9EPSwH/fxv8a87T4vaV3028/Nf8af/wALf0f/AKB95/47/jR9co/zC+r1ex6B/YWiYz9hH/fxv8aQaHon/Pl/5Fb/ABrgf+Fu6Of+XG9H/fP+NNPxa0g9LK8/Jf8AGj65R/mF9Xqdj0L+xNEH/Ln/AORG/wAasW+h6Melow/7aNXmcfxW06SVY47G9dmICqACSfzrvrDxCqQIz25V2UEqx5U+nFbU6sKnwu5Mqcobo1f7J09OEgcf9tDTxp1mP+Wcn/fw1nHxJGf+WA/76pD4ji7wj860INFrCz/uSf8Afw0xtPssfdl/7+Gs4+JIf+eH60w+Joh/yw/WgC81hZnqko/7aGo20uybnE//AH9NUT4khzzB/wCPUh8S24H+o/8AHqYieTRbF+ouPf8Aemq8nhnSZM71uf8Av7/9amN4ptV/5dz/AN9U3/hK7X/n2b/vqgBr+D9CY8x3P/f3/wCtTD4I0Bv+Wd1/39/+tUv/AAlVn1Nu/wD31QfFtmOkDfnQBWPgfw//AHLsfSYf4Uw+BdA/u3n/AH+H+FWj4usT1gb/AL6pp8XWA6wP/wB9UAVv+EF8Pf3bz/v6P8KUeA/D5/5/f+/o/wAKsf8ACXaaesD/AJ0v/CX6aB/qXP40AVh4C8P/AN69H/bRf8KD4B0DtJe/9/F/wqwPF+mDrFJ+dOHjHS+8Mn50BYq/8K+0EjmS9P8AwNf8Kb/wr3Qf+el7/wB9r/8AE1d/4THS/wDnnJS/8Jhpf/POSgLFD/hX2gn/AJa3w/4Gv+FNb4eaF2mvh/wNf8K0f+Ew0rP+qk/Oj/hMdJx/q5Pzo1Azh8O9D/573v8A30v+FPX4daEf+Xi9H/Al/wAKu/8ACYaV/dkpw8YaT6SUBYo/8K70P/n5vfzX/Cmn4eaKDxd3v5r/AIVpf8JfpJ/vigeLNJz1ei4WM0/D3R8f8fN7+a/4Ug+Hukf8/V5/47/hWr/wlmlH+/Tv+Eq0k93oAyh8PdI/5/Lsfgv+FB+H2kj/AJfLr8lrTHinSs8F6X/hJ9LJ6vQBl/8ACv8ASh0vbr/vlaVfAWmA/wDH5c/98rWqPE2ld2f8qePEmlnoz/lQBmp4H05ORez/APfC1Zh8MW8Iwt7OP+ACrX/CQaYT99/ypW8Q6Wf4n/KgBo0SNRn7XIw90FPTSEPS6f8A79imDX9OPG58fSpF13TgPvN+VAEg0eNeTcN/37FPGmRkf8fLfjGKi/t3Tz1Z/wAqP7bsM5DP+VAakv8AZcecG4P/AH6FKdJjPH2oj/tkKjGuaf8A3m/KnDWtPPV2/KkBFP4fhlHzXZ/78j/GqMvhWwJ+a5bP/XMf41rf21p+3Cuc+4rmtc8ZaJp179mvNRhgkK7grnBIPelKSirsaTexc/4RHTz/AMvj/wDfof40p8HWOOL1v+/X/wBesmHx74aI51q1H1erCeO/DB665Z/9/Kj2sO6K5Jdi03g2y/5/W/79D/Gk/wCENsv+f0/9+v8A69Qnxv4YP/Mdsv8Av6KcvjXwwf8AmO2P/f0Ue1h3QuSXYmj8JWaMCLoZ9TAP8a0YNDjiGBerj/riP8ayD408Mdtdsf8Av6KX/hNfDWP+Q5Y/9/hR7SPdD5Jdjc/suPH/AB8IfrCP8ab/AGPbk8vEf+2I/wAax08Z+G2OF1uwJPbzhUq+LvDx/wCYxZf9/hT9rDuh+zl2NYaRbqfvRZ/65f8A16eNNiAx5kf/AH6rLXxZ4eP/ADGrH/v8tPHinw8f+Y1Yf9/1/wAaXtY90Hs5djSGmQn+OP8A79U46RCw5lj/AO/VZ6eKPD//AEGtP/8AAhf8alXxNoB4/tqw/wDAhf8AGj2se6D2b7D5vDltOMNLF+MVVm8HWx+7cxj/ALZmrH/CSaD21mw/8CF/xp6+JdD/AOgxYf8AgQv+NP2ke4cj7FBvBUR6Xkf/AH7NN/4QeNv+X2Mf9szWqviPQ/8AoMWH/gQn+NPHiHRe2rWH/gQv+NHtI9w5H2MU+AUbpexf9+zTD8Po+91bn6xmuhXxBo3/AEFrH/wIX/GnjXtHIz/atj/4EL/jR7SPcXI+xhWfgZbdy0M9shPUiMjNacPht4xlp7dv+AGrf9v6R21Sy/7/AK/40o1zSW4OqWX/AH/X/Gnzx7j5H2GJoq55ktz/AMBNSf2JHnkwn8DTk1jSe2qWX/gQv+NSDVtL6/2lZn/tuv8AjRzruLkYz+w4e5i/I05NDt+xj/8AHqkGs6WR/wAhG0/7/L/jS/2rpp6ajaf9/l/xo513DkG/2NAOMx/rSRaXbu+3AGO/NOGpafn/AI/7X/v8v+NTJqWnj/l+tf8Av6v+NHOg5R8enRINoKY/GlbTEPRkH4GgahYHkX1t/wB/V/xpw1Cyz/x+W/8A39X/ABo5kHKRHSDjPmxj8DVa68Ox3I+aWNW7MAc1pDULLH/H5b/9/BSi+s88XUH/AH8FPmDlOAv7c2V9Lau4Zo2xuHekjI9ad4nlU+IbsowZSwwQc/wiqsUgouFjQjPvVhD71RjcCp0kFFwSLyNU0bVTjcccVYjYUmMuxnpVmI+9UYmqzGakZfib3q3GR61nwmrkR4oGXY6sRn3qpGasIaQy0h461KtV0NTIakZKtSD6VEpqQMaAJKcOlRg5p46UAOFLTaWkMcDS03NLmgBRS0lKKBi5o4oxRigBKKKDQAlJSmigQ000040hoCww0xqkamNTERtUTCpXqJhQBC9QSCrDiq8lAmVZRVSXvVyUVVlSqEUpaqy5q9IlVZUp3AoyAVA4FXJYveqzx0XEVZMDsarSH2q46VXkT2p3CxTfJ7VXkPHSrcgIHSqkucc0XCxWkYVn6kwFnOc/8s2/kauzYx0rL1ZgLC4P/TNv5GoqP3WVFao8wzSZNNozXwtj6kcfrSZ96bmkzRYB/HrSE00sKQtTsK47NGajL0nmUWC5JkUm7FRGSmGT3p2JuTlqaXqEyUhkFPlC5Lvo3mq5kpPM9TVcoFgufaml/eoDJ700vRyiuTl/c00sah30nmU+UXMTl6Qye9V2lpvmjrT5RcxYMlVLm9xlIzz3PpWHqfiS2VzBBKrY4Zx/IVnf23B/z0FdMMPJ6tGM6y2TOgMnOaUSD1rnv7bg/wCegrq/hzod14uviY90enwn9/Pjv/dX1b+Vbww05OyRhKrGKu2VpBetAXs7OW4bOAFHAqBY/EHU6Nc/p/jX0BZ6PZWVslvbW6JHGMAYqU2sY/gX8q9enllNR97c4JYyTeh8+hNdH/MFuf0/xpHOtqPm0a6H4CvoBrdP7i1BNbxYOUX8qr+zqRP1uZzfwr8K3EFrHrmr2pjuZBm3hYZMan+I+5/QV3xQ+h/KvQNOXGn24HaJf5VN1rspUo0o8sTmnUc3dnmzA+4/ComzXp2znoKbsXPIH5VpYm55e2fWoXY+terNED0UflUbRD+6Pyp2C55O7H1pmTXrgiTHKL+VIYV/55r+QoC55Cxz2/WmHNew+Qn/ADzT/vkU17eP/nkn/fIoC548SfWmEA9/1r2A2yf88Yz/AMBFKLWHvBH/AN8CnYR46UH+TTGQV7KbWD/n3i/74FIbODvbRf8AfApAeMeX70hjH96vZ/slv/z6w/8AfsUfYrY/8usP/fsUwPFjEPWjy/bP417ObG1/59IP+/YpDp9qf+XSD/v2KAPGTH7U0ofQ17R/Ztmf+XSA/wDbMUn9m2X/AD5W/wD36FFgPFwhpdntXtA0yx72Fv8A9+h/hS/2Zp//AD4W3/fof4UAeL+WTR5Rr2g6Vp2M/YLb/v0KYdK0/wD58Lb/AL9CgDxvy/agR+1exf2VYf8AQPtv+/QoOkacRzp9t/36FK4Hj4j9qdsP92vXP7H07P8Ax4W//fsU7+x9N/6B9v8A9+xQFzyLaR1WnAfWvWW0fTc/8g+3/wC/Ypo0bTO+nW//AH7FAXPKgKdk+9eq/wBi6Z2063/79ikGi6Xn/kH2/wD3wKAueWAv6mnru7k16mNE0r/oH2//AHxSnRNK7afB/wB8UWHc8vUt6mnBm9DXpn9i6Zn/AI8IP++aT+xdL/58Yf8AvmnYLnm4d/enB39TXo/9i6X/AM+EP/fNKdD0rH/HhD+VKwXPOVd/U08SN3NeiNomlADFjF+VKND0o4/0KOgLnnyt71ynxQ0U6noLXtvGWu7IF1wOXT+Jf6/hXtZ0XTO1nH+tMbRtOGMWcf61FSmqkXGRUJuEuZHxOmu2mOZf0qUa5Zd5f0r2d/DGkC8nH2SPHmtgbfc1Yj8L6QRzZRf98ivM/syL6nZ9cfY8R/tyy/57CnR65ZM4XzgMnFe5L4V0Y9bKL/vkU7/hENEYf8ecY/4DR/Zce4/rr7Hjglz3pQ/vXT/Ezwx/YirqlkhNk5Cyj/nm3Y/Q/wA/rXCi+j/vivKrYeVKTiztp1VON0agkKkMDgitC2u/NXnG4da5z7bH/fFPjv0RwyuMisZUmzaM7HTiTPpSh/cVnWd3Hcxb4yDjgj0NWA1czjbRmylctb/xpysDVUP6U4OaXKVzFoMKUMKrCQ+tO8yiw7lgMKUMKr+ZTvMFTYZYDil3D2qsHFO3D1pWAnDClzUAenb/AGpWHcm49KUH6VEHpwOaAuSZpQRUeaXIpDJM470bj61Hn3pQaVgJAx9TRuP940zNKDQMkDn+8fzqW2kYXEZyeHHf3quDUkJ/ep/vCktxPY9dhfircZrPgIKjBq7Dmvvbnyti3GasR9qhiGe1WY1p3CxNHVmI1BGtWY1ouFieM+lWYi3FQRgCrcQHFK4yaImrcX1qvGParMajjikBZiPvVmOoIgtWYwKBkqfSpkzUaLUqikBIuakWo1qRRSGPAFOUU0U5c0AOoopRSGApaKWgBaKKBQBIaSloxQUIaQ04ikpCGmkxT6KYDCKaRUhFNxQIjIprCpSKaVoCxCy1Gy1YZajZaYiq61BItXWWoZEoAoSLVeRPatB46ieKmKxlyJ1qtJHnsa1ni9qheE+1MRkPHj+GoHT2rXeCoXgFFwsY0sZPQVVmQ1uPb+1QSWme1Fx8pz8yHB4qhOprppbDdVWTSd1K4+U5OfOTxmrnhXSrLWNQns9St/OtzAxK7ivOR3BBrbOhbvT865nx5B440jToZ/AkVu9+Zds3mhCPK2nPDcfe20rrqFuxtXHwy8DljnSpl/3byYf+zVVl+FvgsjK2F2PpfTf/ABVeZyeIf2gkJ36dp7H/AK5Q/wDxVRN4r+Pqgg6XYY/64xf/ABVT7Oj/ACr7h81T+b8T0o/C7wZkj7Hej6X83/xVMf4XeDAcfZb/AP8ABhL/APFV5l/wlnx2UktpFgf+2Mf/AMXTT4x+OYPOi2J/7Yp/8XS9nR/lX3BzVP5vxPTW+FngwjIg1Af9xCX/ABqAfCzwdkgxan+GoS/415x/wmnxxUc6FYn/ALYL/wDF0z/hNfjaDk+H7I/9sF/+Lo9nR/lX3Bz1f5vxPST8K/B2eE1P/wAD5P8AGhvhR4QxkDVP/A9683Pjr40g8+G7M/8AbH/7Olbx/wDGcgD/AIRiz/78/wD2dHsqP8q+4Oer/N+J6C3wp8Jc4/tT/wADnpo+FHhM/wAWq/8Agc1ee/8ACffGQdfC1of+2B/+LoHxB+MK9fClqf8Atg3/AMXR7Kj/ACr7g56v8z+879vhN4UB/wBbquP+v1qafhN4Uxnz9WH/AG+H/CuDPxD+L+OfCFsf+2Lf/F03/hYvxbHH/CHW5/7Yt/8AFUeyo/yr7h89X+Z/ed4fhN4UP/Lxq/8A4GH/AAqNvhN4Yzxc6sP+3v8A+tXDH4jfFgcnwdD/AN+X/wDiqT/hZfxUA58Gwn/ti/8A8VR7Gh/KvuFz1f5n952z/Cfw12u9W/8AAof/ABNN/wCFT+G9uftmrD/t5H/xNcS3xL+KOOfBkX/fmT/4qmH4m/E0DnwZH/36k/xo9jQ/lX3Bz1f5vxOvk+Fvh5TgXurf+BA/+JqCT4YaAOt9qv8A4EL/APE1yL/Ev4kE/N4MX/v1J/jVeT4kfESVhGPBvzMcACKTk0vY0P5V9w/aVf5n951c/wAO/D8Y4vtV/wC/6/8AxNZdx4DsxKRbzXkkWMETOCD+QFdr4dh1eTTI59ejt4r1xuaKEkrGPTJ6n1rS8mtFhqS1UV9xDr1Nrs8wPw+08dbVP++aY3w+07/n2T/vkV6g0NLb2D3EhWKNnxydoziteRGfOzzPT/hnp93cBWgjjhH322D8h716VpOl2Wk2EVhp9vHb28YwqIMfifUn1rTj064jQKtrMAP9g0psrkf8u83/AHwapRSE5XKhQ9qaYie1Xfsdz/z7Tf8AfBprWd3/AM+03/fBpiKywRn71EmnwSKR5hQ+uM1YNpdd7ab/AL4NAtLkf8sJv++DQB0VnrHl20cTlDsULkcZwKlOtJ7VzP2e5H/LCUf8BNIYbkf8sZf++TQKx039uqDwBSDXEzkgVyzxXX/PGX/vg1GY7r/nlL/3waAsdf8A26noKT+3YiOQK4/y7nvHL/3yaTZP/wA85T/wE0Dsdj/bkPoPzpRrsXTC/nXGGO4/55yf98mkKXH9x/yNAWO0/t2H0H50v9uwHriuHIm7o/5GmkS+j/kaBWO6OuQdOKaNdh9B+dcPib0f8qQib0f8qAsd2Ndt++KDrtv6g1wZ87/a/KkPmjruoCx3n9vW/oD+NL/b9tn7oH41wW+T1NJvc9zQB339u2x7D86BrltXAeY47tSiV/U0BY7/APt22xjA/Ohdcth2H51wHmN/eNHmsP4j+dAWPQDrtt7fnR/blt3x+defec3940vnt/foCx6D/bdtjqKP7btfb8689Mr4+/TfPkz9+gLHov8AbVqew/Oj+2rX2/OvPBM5/jz+NL5snqfzoCx6H/bVp6D86X+2bT1H51555sp/iNBkl/v0BY9D/te09RSHVrU+n51555sv9808Syf3zQB6D/a9r04/Ogavae35158ZZf7xpRLL/eNAWPQv7WtT6fnR/att6j864ATSf3jR50n940DsegjVbX1H50n9pW2fvfrXAfaJP7xpRPL/AHjQFjvxqlp64pTqdrjANcCJ5f7xo8+X+8aBWO9/tO36E5o/tO39cfjXBiaY9zTxLN/eNAWO6Gp2/wDk0j6lbbfpXD+bL3Y0ebJ03mgDNk0qf7VLISoDSMRz2JqVbIr1NXMt3pQaBlVYMd6eIiKsbc0bcdqAKWoWNtf2M1leRLNbzIUkRuhBrwXXfhTc6fqUkMV7PJATmFz1K+/uK+iNufWobuziuYSrgZHKk9qidOM90XGbjsfOS/De8/5+Z6cPhvd/8/U9e7CzRWKlQCDipFs4z/CKy9hDsV7aXc8O0/wJqVhP5sVzK3GCrdGrXtvCniWdQ0djb4PTN2oP8q9dFlH/AHBQ9ngZjG1hyPesamAo1Hdo1hi6kFZM8vj8DeL2+7ptsf8At9Sn/wDCB+Mh/wAwm3/8DErqF+JHhWyuJLe61dYZomKujxOCpHUHir0HxS8EkfNr0I+qP/hWP9m4bt+Jp9crHF/8IF40/wCgRCf+3xKP+EB8a/8AQGj/AAvI/wDGu7T4peCN3/IwW2P91v8ACrUXxS8DY58RWv5N/hR/ZmG/ph9crHng8AeNu2iKfpdx/wCNO/4QDxwP+YEP/AuL/GvSYvij4Ez/AMjJZj/vr/Cph8UfAp4/4Say/M/4Uv7Mw/8ATH9drHmP/CA+OMZ/sEn6XUX/AMVQfAfjcdfDz/8AgTF/8VXp5+KHgYfd8S2P/fR/wp4+J/gdhz4msP8Avs/4Uf2Xh/6YfXqx5aPA3jX/AKF6T8LmL/4qnDwP41H/ADLs3/gRF/8AFV6knxL8DZ58Taf/AN91KPiX4FPTxNp//fyl/ZeH8/vH9frHk/8AwhPjUHH/AAjdwf8AtvF/8VS/8IX41H/MtXP/AH+i/wDi69YHxI8DdvE+m/8Af2hfiN4JLf8AI0aZ/wB/hR/ZWH8/vD6/WPJx4M8af9C3d/8Af2L/AOLp48GeNf8AoWL0/wDbSL/4uvVh8RPBIb/kaNM/7/ip1+Ifgzt4n0v/AMCFpf2Th/P7x/2hWPIv+EP8ZZx/wjN9/wB9x/8AxVL/AMIf4yH/ADLF/wDnH/8AFV66PiF4Lz/yM+lZ/wCvhaePiD4N/wChn0v/AMCFpf2Rh/P7w/tCt5HkC+EPGJ6eF9R/8h//ABVOHg7xl/0K2pf+Of8AxVewx+P/AAcenibSv/Alf8alXx94Pz/yM+lf+BSf40f2Rh+7+8f9o1uyPG18HeMv+hW1L8k/+KqeDwV4yZwf+EZ1BfrsH/s1ezQ+P/B3fxPpP/gUn+NWk8e+DOv/AAlOj/8AgWn+NL+x8P3f9fIP7RrdkcT5FzaOsF5A9vMFBaNiMrkZ7VetjnFWtauLLW9TfUNLu4L22cKolhcOpIGCMj0pkNrKOxr0jktcsQAnFXYUNRW8LjqKvwQH0ouLlFijNWo4vanQwmrkUXSncViKOL2qzFGPSpo4varEcPtQBHFGKsxx06OI9qsRxn0oHYSOP2qdE9qciH0qdF9qVwsNQe1SqKVV9qkApDEAp6ilApwWgBMU4CjbTwKVxjcUuKdj2oxQFhBS0YpcUDEFLRS4oAkxRiiipGGKTFLRQA2inUhp3AQimkU+kIoAYRxSYp9IetAEZWmlRUhFNIpiIXUVEy1OwpjCgCsy1G61ZYCo2HoKBFRkNRNHVtxUTLTCxWaMelRtGPSrTLTClAFVos9qiaAelXSmepppSgCg0A9Ka0SjtV8oKYyj0oAzZE9BVOeBiO9bTIPSomiWlYDm57It2qlLprHtXWtAtRPbrRYDkH0o981E2kn3rr3t1qJrce1OwHItpR96iOlP711zW49BTTbg/wANKwHI/wBlsKa2mN711ptl/u002y4+6KLAcidMb0NN/s1veusa2/2aY1sPSnYDlTpreppp09+zGuoa2X0pv2Zf7tKwXOWOnSeppp06T1NdS1uB2qJ7fNOwXOXawkH8RqJ7CQ/xGupMCd6ieBFGTgCiwro5U2ExOBk1oWNglsNzENKRyfT6VpMgLHAxSeWK1jC2rM5TuVytBUVYKZpREO9WZlJ1ra8EDN/cD/pmP51WSGI/erS0mS2sZGkjHzMMHNAHSlcCg84rMOrRmgatFjFGgWNQDigZrLGrRAYpRrEY7CjQLGqxG3NM61mf2vF3AoOsRY6D86BGptyM0xlx61n/ANtxYxtpP7YhPagZpJ15p7Vlf2vCO4pP7ag6UCNPI6UhWs1dXgzmnf2zB6frTGaGKaRk1QOsW9J/a9v2oEaG31o2gjpVH+2LfFKNXt6LjLm3noKdtAHQVR/ta2PfFDatbEfeqRFxlHoKTywf4RVIatbU7+1bU/xAVQyy0I/uj8qTyV/ur+VVzq1t3YGj+17Tuc0gLIiT+4v5UeUn/PNPyFVhq9n64o/ta0P8VMCz5Uf/ADzT/vkUvkxdTEn/AHyKqjVbX++KVtVtCPvUXAnNvEf+WMf/AHyKPs0P/PGP/vkVCuq2gH3qDq1r2akIm+zw94Iv++BSfZrfvbxf98Cov7UtT/FSjU7X+8PzouBKtrbH/l2h/wC/YpTaW3/PtD/3wKi/tS1H8VB1O0P8VO4x/wBktj/y7Q/9+xQbK0/59of+/Ypn9p2v96lGp2h/jpXEDWNp/wA+sH/fsUgsLM/8ukH/AH7FOOo2v98Un9oWv98UxjfsFmOtpB/37FP/ALNsjz9kg/79imtf2pP36d/aVt/fGKAG/wBn2P8Az6Qf9+xSHT7L/nzt/wDv2KeNQtf74o+3Wx6NRcBi6bYt/wAudv8A9+xT/wCzNPH/AC5W/wD37FKL+3H8YpxvrcjG8UgIzpun9PsVv/37FNOmafjiyg/74FSLeW4PLinfbLbtIKBEI0vTv+fOD/vgU8aXp3/PlB/3xTjeW+OHFH263wBvpgMOl6b0+xQ/980o0rTj/wAuUP8A3zTvtsGchxThfW/9+kwIjpFhn/jzi/KmHSbDP/HpF+VWTewH+KhbuE/xUAQJpGnHn7LH+VOGk6dn/jzi/KphdQj+MUiXcAzmSgCBtL04E/6JHTf7K09if9EQfnU5nhJyJBUizwDkuKAOE8U28MGrtFDGEUIpwPpWein0rofElkbrU2uYmGwqB+VZ/wBjKDkigq5TQHHSpNuR0qfyiO1AjNAjifGHgHw9rd62qXGmRy3ZAEhBK7wO5wetc9H8O/CZ/wCYMuf+uj/416wYz6VVksYzJvUYz1rKcOprCfRnnC/Dfwn/ANAQf9/X/wAacPhv4Rzzon/kV/8AGvTIrIY6VMtgMdBWdjS55ePhp4QI/wCQMR/22f8Axpw+GPg8/wDMHb/v+/8AjXqS2C91FSCxQ/w0WA8r/wCFX+Dj/wAwl/8Av+/+NA+F3g//AKBMn/f9/wDGvVhp8Z6CnDTx2AosB5KfhZ4Qz/yC5f8AwIf/ABpf+FWeDz10ub/wIf8Axr1r7AvdKBYLnhcUWGeSf8Ko8H/9A24H/bw/+NB+FHhA/wDMPuf/AAJavXhp/sKcNPXutKwHjv8Awqfwh/z4XX/gS1H/AAqXwgf+XK7/APAhq9kGmoe1SLpa+lOwHjI+EfhA/wDLpef+BDUo+EPg8/8ALpff+BJr2kaWn90U5dMT0FFgPFh8HvB7f8u1+P8At5NSL8GPCB/5Yah/4EH/AAr2pNMX+6KlXTgP4BSsB4rH8EvBzdY9R/C5P+FXLf4F+CH+8up/+BP/ANavZUsF/uirEVkB/CKLCOZ8DeD9F8LaOul6Yk32cO0mJZNxy3XmukFlbkcRircdrjHy1ZSDHagDNFjH2WpFs1HQVprEO4p4iHpTTAz47YDtVmO3HpVtYcdqkWP2pgQJAPQVKkPtUypUirRcCNIvapUj9qeq1KopAMVMVMq0oFPAoHYQKKcFpwFOAoCw0LTsUoFOxQA0LTsUoFLigBuKMUuKXFAxuKMU7FGKAEoFLS0ALRRiikAUUUUAFFFFFgA00inUhFCATFNOKdijFADDTTmpMU00ARMDTWFSsKYwpiIWAqJqnYVGwoQEDCoytWCBUbUxEBWmEVOwHemNt9KAIjj0pp+lSGmEUAMIpjCpdtJigCuUzSFBUrKKaRQBCy1GUqcimMtAFdkFMZFqwY6aY/agCsVXtUbIe1WylNIA7UAUzGe9NZMdquEVE65oAqEe1NK5q0Yz6Umw+goEVDFTWjNXChNMaKgTsU2jzUTQ1cePFQup5piKU6LGpZqzZmZm6YHYV1/hxA1zNuAPyDqM962jFEOsUf8A3yK0j3JkeYkNmlCk16SY4f8AnjH/AN8Cm+TC3/LGP/vgVVybHnGw0hBr0k20GeYIv++BSfZ7f/nhF/3wKLhY83BPTNL/AMCr0b7NbZ5tof8Av2KQ21oP+XaD/v2KLhY86zTSxr0Y2tof+XWD/v2KYbO0/wCfWD/v2KLhY88BPrSH6mvQzZWf/Ppb/wDfsUn2Gz/587f/AL9Ci4rHnZz6mky3vXogsbLPNnb/APfsU7+z7E/8uVv/AN+xTTCx5wS3rSbmHc16OdOsAf8Ajytv+/YpDp2nn/lxt/8Av2KVx2POdxPrSc+pr0U6Zp3/AD42/wD37FH9mab/AM+Ft/37FFwsedEn1NIWIr0b+ytM/wCgfb/98CkOkaZ/z4W//fAouFjzgsT3pAXHc16MdH0v/nwt/wDvmlXRtKPWwg/75ouFjzgtJ64o3N3avSf7E0r/AKB8H/fNMbRNJ/58IfyouFjzku3Ymml5PU16P/Ymlf8APjD+VH9h6V3sYv1ouFjzffJ60ZkHVq9I/sLSCP8Ajxi/Wg6DpGMfYY/zP+NFwseb+Y3vR5jmvRv+Ef0g/wDLkn5n/GkPh7SP+fNP++j/AI0XCx5zub+9ikLN/er0U+HNI/581/76P+NJ/wAI5pH/AD6D/vo/40XFY87DP/eNODSDua9CHh3Sf+fX/wAfP+NJ/wAI5pJ/5dv/AB8/40XCx58ZH9aN7+tegf8ACNaT/wA+x/77P+NH/CNaT/z7n/vs0XHY8/3yf3jSb3/vGvQh4Z0g/wDLu3/fw0f8Ixo5/wCXd/8Av4aLisefeY3qaUSP6mvQP+EX0f8A54P/AN/DSf8ACMaP2hk/7+Gi47HA+Y4/iNNMrf3jXfnwxpH/ADyk/wC/hpD4Y0j/AJ5Sf9/DQFjg1kb+8af5p/vGu5/4RjSf+ecv/fZo/wCEW0n/AJ5yf990XCxwpkkPRqA8ueSa7n/hFtK/uy/990f8IrpfpN/33TuFjiBI3cml81/U123/AAi2lf8ATf8A77/+tSjwrpg7zf8Aff8A9akFjiBLL6mnCaT1NdqfC+mjvN/33/8AWpP+EY031m/76H+FFxWZxnnP/eNHnP6muz/4RfT/AO9N/wB9D/ClHhbT/wC/N/30P8KLhY45ZpPejzZPeux/4RfT/wDnpP8A99D/AApD4XsP+e0//fQ/wp3CxyAeQ/xGlDSf3667/hFtP/57T/mP8KX/AIRax/57z/mP8KAsckJZB/ETS+fJ6musPhWw/wCfif8AMf4Uh8LWeeLif9KAscoJpP7xpfNb+8a6j/hFrX/n4m/IU4eFbT/n5m/IUXA5Xz3H8RpfPk/vmuoPha1/5+pvyFIPC1t/z9S/98ikFjmDKx6saYea6k+Frcf8vUv/AHyKT/hGYP8An6k/75FFwsctijFdX/wi9uRxdSf98Cl/4RWHH/H5J/3wP8adwscpigqPSur/AOEWix/x+v8A9+x/jR/wi8Y/5fG/79j/ABouOxzduob5e4q0kdba+GUDZ+2P/wB+x/jVAQhXK5zgkVlJWLTuQpH7VMsSmpVQVKsY9akog8lfSl8gGrSxj1p4j9KQFMW9PWH2q4Iz6CniP2oGVFh9sU4QrVnyjT1j9aBoqrCBUixYPSrQjA7U4KKAIFj9qeIx6VMAPSnACgCJYh6VIsXtUyJmpAh9aAIFhPpUixEdqlCH1p4U0ARBKeqn1qUCnBRSAYop6inBRTwBTARRUqqKRVqRVoAQIKkVKAKeopACpUirQoNPANAwApwAoANOA9qAFApRRSigYtAopRSAKKUUYoAPwo/ClopAJRilooAKTFLRQAvNGKKKACjFGKMUAJRRRTAKKKKAENJS4oxSAaaQ04iigBhFMYVLTSKYELLUbCp2WmMBQIrsB6Uwj2qdhTCppgQFfamMvtU5U00oadxFcj2pjCp2XmmlfagCAr70bRUpX2ppWgCIgUxh7VMRTSKAICoNJs9qm2+1GDQBXZfakI9hU5SkKj0FAFdkJ7VG0frVsj2pjLmgCoUWmmMGrWwUuwelAFTyjSGMCrZjpPL9aAsUinPSk8smr3krQIRQBnNCaq3MZVScGt5YlHUU/ZER8yg0BY818Q/ETRfAkf23WYLyWKZxCoto1ZgeTkhmHHFYh/aQ8An/AJdNf/8AARP/AI5XrV9o2jXybL3T7a4XriSMMP1rLfwN4MflvDmmn/t3X/CnzNC5UecH9ozwCf8Al314f9uif/HKcv7RfgAf8sdc/wDANf8A4uvQG+H/AIIPXw3pv/gOv+FQv8PPAp/5lvTf/Adf8KXOxciOIP7RPw/bnbrQ/wC3If8AxdKP2hvh6T11kfWy/wDsq7I/DrwH/wBC3pv/AH4X/Coz8N/AR/5lrTf+/C/4Uc7DkRyY/aE+HneXVx/24n/4qlP7QXw6PSfVf/AE/wCNdV/wrTwC3Xwzp3/fkU0/DDwA3Xwzp/8A35FPnYciOZX9oD4dY5udUH/bi3+NO/4X98OCf+PzUR9bF66I/C34fHr4ZsP+/Ypp+Ffw9P8AzLVj/wB+6OdhyIwV+Pfw3I/5CN//AOAL0qfHj4b99UvB9bGT/Ctw/Cf4en/mWrL/AL4ph+Enw7/6Fy0H/AaOZhyoyP8Ahe/w3/6Ct3/4BSf4U8fHb4bkf8hi4H1spf8ACtI/CT4df9C7a/kaT/hUXw6P/Mu236/40c0h8iKA+OPw3P8AzG5vxs5f/iaUfHD4bf8AQdf8bSX/AOJq9/wp/wCHR/5l63/M/wCNNb4OfDn/AKAEP/fTf40czFyIq/8AC7fhsf8AmPEf9usv/wATSr8avhtkf8VCB/27S/8AxNTH4NfDn/oBR/8Afbf40f8ACmPhyeP7DT/v43+NHMw5EJ/wun4bHp4jT/wHl/8AiaUfGf4bn/mZYh9YJf8A4mmn4K/Dn/oCL/39b/GmH4K/Dn/oC/8AkZ/8aOdhyIm/4XJ8OD/zM0H/AH5k/wDiacvxi+HBP/I0W/4xSf8AxNVj8E/hwf8AmEMPpM/+NJ/wo/4cHppT/wDf9/8AGjmYciL4+MPw4PH/AAlFp/3xJ/8AE0v/AAtz4ct08VWX/fL/APxNZx+Bvw576ZIPpO/+NNPwN+HJH/IOmH/bw/8AjRzsORGqvxZ+HOOfFdjn/gX+FKPiv8O/+hs0/wDNv8Kxz8Cfh0f+XC4/8CH/AMab/wAKH+HX/Pnc/wDgS/8AjRzsORG4Pir8PCf+Rr0//vo/4U9fil8PT/zNmm/jIf8ACufPwG+Hna1uh/28t/jTT8BPh9/z73f/AIEtRzsORHR/8LP+H5/5m3S/+/tKvxN8AE/8jbpX/f4VzJ+Afw//AOeV6P8At5akPwA8AH+G+H/byaOdhyI6sfErwCeni3Sf+/4pP+FjeAyf+Rt0j/wJWuU/4Z+8A/8AUQ/8CTSH9n3wGejaj/4En/CjnYciOwHxD8CEceLdH/8AApaVfiF4GPTxZo3/AIFL/jXGH9nvwL2l1If9vP8A9amn9nvwN2uNTH/bx/8AWo52HIjuB4+8Ef8AQ16N/wCBaf40o8eeCW6eK9G/8DE/xrhT+zx4II4u9U/8CB/8TTD+zx4Kz/x+6r/3/H/xNHOw5Ed+PHHg09PFWjf+Bif404eNvB2cDxRo2f8Ar8j/AMa88P7PHgztfar/AN/1/wDiaY37O/g/PGo6qP8Atsv/AMTRzsORHpH/AAmXhI/8zPo//gbH/jQPF/hRjx4l0c/9vkf+Nea/8M7+Ej/zE9V/7+p/8TR/wzr4Txxquq/9/E/+Jo52HIj04eKvC/8A0Mekf+Bkf+NL/wAJR4ZPTxBpR/7fI/8AGvLW/Z08K9tW1X/vtP8A4mmn9nLwxnjWNU/76T/4mjnYciPVV8SeHT017S//AALj/wAaf/wkfh89Nd0w/wDb3H/jXk3/AAzj4a/6DOp5+sf/AMTTT+zh4d7a3qX/AJD/APiaOdhyI9dGvaGemtaaf+3pP8acNb0Y9NX08/8Abyn+NeP/APDN2gEca7qP5R//ABNNb9m3Qc/8h3UP++I//iafOw5D2IaxpJPGqWP/AIEJ/jUiatpZ/wCYlZf+BCf414sf2btD7a/ff9+4/wDCmn9m7Ru3iC9/79R/4UvaByHth1LTj01C0P8A23X/ABpVvrE9L21P/bVf8a8RP7N2ldvEN2P+2Kf4U0/s26d28RXP/flKPaByHuf2y0PS6t/+/i/40v2u2I4uYT/20FeFH9myx7eI7j/vwlN/4ZttB08ST/8AgOtHOHIe8G4gx/rov++xTftER6Sp/wB9CvCT+zdb9vEs3/gOv+NJ/wAM3xjp4mlH/bAf40/aByeZ7yJEI++v50/cP7w/OvA/+GcD28Uy/wDfgf40f8M4TZ+XxVIP+2H/ANlRzsXJ5nvu4DvTgwI4r5//AOGc7sdPFj/9+T/8VSD9na/HTxbJ/wB+j/8AFUvaByH0CuT0B/KlAbH3T+VfP3/DPOqD7vi6Qf8AbNv/AIqkP7PutD7vi+Uf8Bb/AOLp84ch9A4bP3W/KlIb+6fyr57/AOGf/EA+74wl/J//AIulX4BeJByPGUw/7+f/ABdHtA5PM+gyG/ut+VN2sP4W/Kvn8/AXxV/D41mH/ApP/i6P+FE+LgPl8b3A/wC2kv8A8XR7TyDkPoPkAfK35Ucnsfyr59/4Ub4zA48cXP8A39l/+Lo/4Uj44A+Xxzc/9/pf/iqOcOQ+ghn0P5UHPTFfPo+Cnj8dPHV1+E83/wAVTh8F/iGOnju7H/bxN/8AFUc4ch9BKMtjBrklIaeQA5+c/wA68wi+DHxEY4k+IN6FPX/SJj/7NXrej+GrmzhRbi581lADN6n1pOVxqNhI09qnWIHtWiLMKMUCADtSHYpCEdqcI8Vd8n2pPKINA7FTaR2pwU+lWxH60eWKBWK4jJp4jNTBMU4LQMg8tqAhzVnYaAhoAhVKeI/apQhp22gCIKR0FPGf7tPC09VoAiA/CpFX3p+0HtShPagBu0U4IKeq08KKQDAlOC+1PCU8LQA1V9qkVaVRUigUANC08DFKBTgKBgBTgKULTwtK4DQKcKXFLikMKKXFGKAEAp2KBS0AJijFLRQAUUUUwCiiikAUUUUwHUUUUgENGKWigBuKXFLRQAmKMUtFACYpKdSGgBpzSU6jFADSKQin4pKAIyKYRUuKQj2oAhIpjLU5FIVpiK5WmlanK00pTArstMIPpVrZ7U0p7UAVttMKCrJSk8ugLFUx0nlmrWykKe1AFUpTSlWzGfSk8s0AVCn1pPLHermwd6aUHpRcCqYxTDHV3YPSkMftRcRS8sUbParfle1Hl47U7jKvln0pvl47Vc2H0pDGfSi4FMqfSjaatmOmmOi4iqVppU1b8qk8qi4FPafWjBq0YvakMftQBVOaYwY1cMftTTH/ALNAFPb7Ubat7PakMftQBUIpp3dqueUKaYvagCptY96UK1WPJNOEVAFUhvWja3rVvyaPJoAp7TShDVvyuelBi9qAKwBpQp9KseXThHQMqFKTBq55Qo8qi4iqFNBQ1a8ujyqVwKmw0YYVa8o0eUaLgVeaTBq35X+cUeX7UXAqhWowateUfSl8r2ouBTwRQc1bMXtTTDTuBUwaUBverYi9qURe1FwKg3UuGq0YvajyqVwKhD0Dd3q15XtQIqdwK2TSfN2zVvyh6UeT7UXAq4f0pCHq35TUhiNAFX5jSYYdzVryTS+V7UXAqZYetG4+pq2Yfajyfai4FTLk0At3Jq0Yfak8r2ouBXy3qaMt6mrPle1J5JpXAr/N6mjn1NWPKPpR5XqKdwK+W9aXLVP5XtQIj6UrgQbm9aUFvWpxF7Uvle1FxkAJ9aXmpTEf8ijyz6UXERZajc3vUwj9qXyh6UxkIJ96XJ96l8o+lL5JPagCDJ7E0oZvU1P5NKIRQIhDtS7mqbysUGM+lAEBZqAx75qfyvajyvagCNWNLuNPEZ9Kd5ftQBGGanCRqf5dHl+1ACeYaQsxp4jNOEdAEBBNASp/Lpwj9qLgV9lGyrPl+1Ls9qVwKvl0COreygRUXArCP2pREKtBKPLouMreXShBVny6Xy6LgQeWKPL9qn2GlCGgCDYPSjZ7VY2e1KEoAgCU4JU4SnBKAsQBKeFqUL7Uu2kBGF9qcFp4U08LTAYFNOC08LTgtILDAKeBSgU4CgY0CnClApQKQBSgUAUtABzRRS0AJijFOooAbilxS0UAJijFLRQAmKMUtFACYoxS0UAFGKWigBMUuKKKAExS4ooxQAlFLijFACUUuKMUAJRS4pMUAIRRilxRQA0ikxT6SgBuKbipMUmKAIytIVqXFJigCHZSbKmxRii4EBSk2e1TlaTbTuBBspNlWNtG2i4FfZSFKsbfajbRcCsY6TZVnbRsouBW2UmyrWyk2UAVtlIUq1so2UXAqeX7UeXVrbSbKAKpipPKq3spNlFwKvlik8v2q35dGygCmYqaYhV0pSeXQFin5QpDEKu+XQY6AsUDEKQxCr3l+1J5XtTFYo+SPSk8n2rQ8v2pPL9aAsZ/kj0pfKHpV/yqTyqAsUfK9qPJNXvKpfLoCxR8rHajyh6Ve8sUeWKQWKBjHpR5ftV7yx6UeX7UwsUfK9qPKq95dHl80hlLyh6Uvlj0q6I/agx0xFLyqPK9queX7UeXQMp+V7UeV7Vd8ujy6AKXle1J5XtV7y6PLoAomIelHlj0q75ftR5ftQBR8r0pfKq75ftR5ftSApeV7UvlD0q75ftSeXQBSMXtR5XtV3y/ajy/amBT8r2o8r2q55ftSiOgCl5VBiq75dHl0AUfKpfK9qu+WKPLpAUfJFHlVd8ujy6YFLyvajyfar3lijyqAKPk0nlVf8r2o8v2oAo+VR5NXfL9qPLoAomH2o8r2q95ftR5dAFHyqXyqu+XS+VQBR8r2o8r2FXhHR5VAFLyRR5PtV0R0vl0AUvKHpR5Q9Ku+XR5dAin5XtSeVV3y6PL9qQWKQipfJq75Yo8ugLFLyqPJPpV3y6NlAykIjThFVzy6PLpgU/KFL5VW/Lo8ukKxV8oelKIqtbKXZ7UDKoiHpS+WKs7KNlFwK3l0vl1Z2UbPai4FYRil8selWNvtS7PagCv5dHl1Y2UbaLgQbKPLqxto20XAg8ul2VNtpdlFwINntShBU22l20XAhCil21LtpdtFwIgopwWpNtG2kBGFpwWn4oxQA3bS4p2KUCgBmKXFOxS4oAQUoFGKKADFGKWigBKWjFGKACijFGKACijFGKADFGKXFFACUUtGKAEopcUUAFFFFABRRRQAUUUUAFFFFABRRRQAUUUUAFFFFABRiiigBMUYpaKAExRS0UANoxTqMUANxRinYoxQA3FJin4oxQAzFGKfikxQA3bSbafijFADNtGKfijFADNtGKfijFADNtJtqTFGKAI9tG2n4ooAZtpNvtUmKMUAR7aNtSYoxQBFto2ipcUYoAh20bamxSYoAi20bKlxRigCHZRt9qmxRigCHb7Ubam20YoAh2UbKmxRigCHZ7UbPYVNijFAEOyjZU2KMUAQ7PajZ7CpsUYoAh2fSjYKmxRtoAh2UbKm20YoAg20u2psUYoAh2+1GypsUYoAh2D0o2VNto20AQ7aNvtU2KMUAQ7KNlTYoxQBDt9qNntU2KMUAQ7aNlTYoxQBDso2VNijFAEOyjZU2KMUAQ7KXbUuKMUARbKTZU2KMUAQ7KXYKlxRigCLZRsqXFGKAIdlLsqXFGKAItntRtqXFGKAItlG2pcUuKAIdtG2psUmKAIttG32qXFLigCLb7UbfapcUYoAi20balxRigCLZRtqXFGKAIttLtqTFGKAI9tG2pMUYoAjxS7afijFADNtG2n4oxQAzbRtp+KMUAM20bafijFADMUu2n0UAM20Yp9FADNtLtp2KMUANx7UYp2KMUANxS4pcUuKAG4oxTsUYoAbS0uKKAEoxS0UAJijFLRQAUUUUAFFFFABRRRQAUUUUAFFFFABRRRQAUUUUAFFFFABRRRQAUUUUAFFFFABRRRQAUUUUAFFFFABRRRQAUUUUAFFFFABRRRQAUUUUAFFFFABRRRQAUUUUAFFFFABRRRQAUUUUAFFFFABRRRQAUUUUAFFFFABijFFFABijFFFACYoxS0UAJijFLRQAmKMUtFACYoxS0UAJijFLRQAmKMUtFACYoxS0UAJijFLRQAmKMUtFACYoxS0UAJijFLRQAmKMUtFACYoxS0UAJijFLRQAmKMUtFACYoxS0UAJilxRRQAYpMUtFABijFFFABijFFFABijFFFABijFFFABijFFFABijFFFABijFFFABijFFFABijFFFABiiiigAooooAKKKKACiiigAooooAKKKKACiiigAooooAKKKKACiiigAooooAKKKKACiiigAooooAKKKKACiiigAooooAKKKKACiiigAooooAKKKKACiiigAooooAKKKKACiiigAooooAKKKKACiiigAooooAKKKKACiiigAooooAKKKKACiiigAooooAKKKKACiiigAooooAKKKKACiiigAooooAKKKKACiiigAooooAKKKKACiiigAooooAKKKKACiiigAooooAKKKKACiiigAooooAKKKKACiiigAooooAKKKKACiiigAooooAKKKKACiiigAooooAKKKKACiiigAooooAKKKKACiiigAooooAKKKKACiiigAooooAKKKKACiiigAooooAKKKKACiiigAooooAKKKKACiiigAooooAKKKKACiiigAooooAKKKKACiiigAooooAKKKKACiiigAooooAKKKKACiiigAooooAKKKKACiiigAooooAKKKKACiiigAooooAKKKKACiiigAooooAKKKKACiiigAooooAKKKKACiiigAooooAKKKKACiiigAooooAKKKKACiiigAooooAKKKKACiiigAooooAKKKKACiiigAooooAKKKKACiiigAooooAKKKKACiiigAooooAKKKKACiiigAooooAKKKKACiiigAooooAKKKKACiiigAooooAKKKKACiiigAooooAKKKKACiiigAooooAKKKKACiiigAooooAKKKKACiiigAooooAKKKKACiiigAooooAKKKKACiiigAooooAKKKKACiiigAooooAKKKKACiiigAooooAKKKKACiiigAooooAKKKKACiiigAooooAKKKKACiiigAooooAKKKKACiiigAooooAKKKKACiiigAooooAKKKKAP//Z;" vertex="1" parent="1">
          <mxGeometry x="780" y="1160" width="130" height="97.5" as="geometry" />
        </mxCell>
        <mxCell id="ntyYOldUJLg7yIdI68dH-55" value="" style="endArrow=classic;html=1;rounded=0;exitX=1;exitY=0.5;exitDx=0;exitDy=0;entryX=0;entryY=1;entryDx=0;entryDy=0;strokeWidth=2;fillColor=#647687;strokeColor=#314354;" edge="1" parent="1" source="ntyYOldUJLg7yIdI68dH-41" target="ntyYOldUJLg7yIdI68dH-52">
          <mxGeometry width="50" height="50" relative="1" as="geometry">
            <mxPoint x="810" y="1460" as="sourcePoint" />
            <mxPoint x="860" y="1410" as="targetPoint" />
          </mxGeometry>
        </mxCell>
        <mxCell id="ntyYOldUJLg7yIdI68dH-56" value="Перевод денег со счета инвестора" style="edgeLabel;html=1;align=center;verticalAlign=middle;resizable=0;points=[];" vertex="1" connectable="0" parent="ntyYOldUJLg7yIdI68dH-55">
          <mxGeometry x="-0.2564" y="-4" relative="1" as="geometry">
            <mxPoint x="15" as="offset" />
          </mxGeometry>
        </mxCell>
        <mxCell id="ntyYOldUJLg7yIdI68dH-59" style="edgeStyle=orthogonalEdgeStyle;rounded=0;orthogonalLoop=1;jettySize=auto;html=1;entryX=0;entryY=0.3333333333333333;entryDx=0;entryDy=0;entryPerimeter=0;strokeWidth=2;fillColor=#647687;strokeColor=#314354;" edge="1" parent="1" source="ntyYOldUJLg7yIdI68dH-52" target="ntyYOldUJLg7yIdI68dH-39">
          <mxGeometry relative="1" as="geometry">
            <Array as="points">
              <mxPoint x="845" y="1520" />
              <mxPoint x="60" y="1520" />
              <mxPoint x="60" y="1390" />
            </Array>
          </mxGeometry>
        </mxCell>
        <mxCell id="ntyYOldUJLg7yIdI68dH-60" value="Перевод денег на счет инвестора" style="edgeLabel;html=1;align=center;verticalAlign=middle;resizable=0;points=[];" vertex="1" connectable="0" parent="ntyYOldUJLg7yIdI68dH-59">
          <mxGeometry x="0.038" y="1" relative="1" as="geometry">
            <mxPoint x="1" as="offset" />
          </mxGeometry>
        </mxCell>
        <mxCell id="ntyYOldUJLg7yIdI68dH-61" value="" style="endArrow=classic;html=1;rounded=0;exitX=1;exitY=1;exitDx=0;exitDy=0;exitPerimeter=0;entryX=0;entryY=0.5;entryDx=0;entryDy=0;fillColor=#e51400;strokeColor=#B20000;strokeWidth=2;" edge="1" parent="1" source="ntyYOldUJLg7yIdI68dH-38" target="ntyYOldUJLg7yIdI68dH-42">
          <mxGeometry width="50" height="50" relative="1" as="geometry">
            <mxPoint x="210" y="1200" as="sourcePoint" />
            <mxPoint x="260" y="1150" as="targetPoint" />
          </mxGeometry>
        </mxCell>
        <mxCell id="ntyYOldUJLg7yIdI68dH-62" value="Запрос на выплату" style="edgeLabel;html=1;align=center;verticalAlign=middle;resizable=0;points=[];" vertex="1" connectable="0" parent="ntyYOldUJLg7yIdI68dH-61">
          <mxGeometry x="-0.4958" y="-2" relative="1" as="geometry">
            <mxPoint as="offset" />
          </mxGeometry>
        </mxCell>
        <mxCell id="ntyYOldUJLg7yIdI68dH-63" value="" style="endArrow=classic;html=1;rounded=0;exitX=1;exitY=0.3333333333333333;exitDx=0;exitDy=0;exitPerimeter=0;entryX=0.5;entryY=1;entryDx=0;entryDy=0;fillColor=#e51400;strokeColor=#B20000;strokeWidth=2;" edge="1" parent="1" source="ntyYOldUJLg7yIdI68dH-39" target="ntyYOldUJLg7yIdI68dH-42">
          <mxGeometry width="50" height="50" relative="1" as="geometry">
            <mxPoint x="390" y="1230" as="sourcePoint" />
            <mxPoint x="440" y="1180" as="targetPoint" />
          </mxGeometry>
        </mxCell>
        <mxCell id="ntyYOldUJLg7yIdI68dH-64" value="Голосование" style="edgeLabel;html=1;align=center;verticalAlign=middle;resizable=0;points=[];" vertex="1" connectable="0" parent="ntyYOldUJLg7yIdI68dH-63">
          <mxGeometry x="0.1698" relative="1" as="geometry">
            <mxPoint as="offset" />
          </mxGeometry>
        </mxCell>
        <mxCell id="ntyYOldUJLg7yIdI68dH-65" value="" style="endArrow=classic;html=1;rounded=0;exitX=1;exitY=0.5;exitDx=0;exitDy=0;entryX=0;entryY=0.5;entryDx=0;entryDy=0;strokeWidth=2;fillColor=#e51400;strokeColor=#B20000;" edge="1" parent="1" source="ntyYOldUJLg7yIdI68dH-42" target="ntyYOldUJLg7yIdI68dH-52">
          <mxGeometry width="50" height="50" relative="1" as="geometry">
            <mxPoint x="690" y="1210" as="sourcePoint" />
            <mxPoint x="740" y="1160" as="targetPoint" />
          </mxGeometry>
        </mxCell>
        <mxCell id="ntyYOldUJLg7yIdI68dH-66" value="Оформление выплаты предпринимателю" style="edgeLabel;html=1;align=center;verticalAlign=middle;resizable=0;points=[];" vertex="1" connectable="0" parent="ntyYOldUJLg7yIdI68dH-65">
          <mxGeometry x="-0.2478" y="-2" relative="1" as="geometry">
            <mxPoint x="26" y="-12" as="offset" />
          </mxGeometry>
        </mxCell>
        <mxCell id="ntyYOldUJLg7yIdI68dH-67" style="edgeStyle=orthogonalEdgeStyle;rounded=0;orthogonalLoop=1;jettySize=auto;html=1;entryX=0.5;entryY=0;entryDx=0;entryDy=0;entryPerimeter=0;fillColor=#e51400;strokeColor=#B20000;strokeWidth=2;" edge="1" parent="1" source="ntyYOldUJLg7yIdI68dH-52" target="ntyYOldUJLg7yIdI68dH-38">
          <mxGeometry relative="1" as="geometry">
            <Array as="points">
              <mxPoint x="845" y="970" />
              <mxPoint x="95" y="970" />
            </Array>
          </mxGeometry>
        </mxCell>
        <mxCell id="ntyYOldUJLg7yIdI68dH-68" value="Перевод денег на счет предпринимателя" style="edgeLabel;html=1;align=center;verticalAlign=middle;resizable=0;points=[];" vertex="1" connectable="0" parent="ntyYOldUJLg7yIdI68dH-67">
          <mxGeometry x="0.0505" y="2" relative="1" as="geometry">
            <mxPoint as="offset" />
          </mxGeometry>
        </mxCell>
        <mxCell id="ntyYOldUJLg7yIdI68dH-73" value="" style="endArrow=classic;html=1;rounded=0;exitX=0;exitY=0;exitDx=0;exitDy=0;fillColor=#fa6800;strokeColor=#C73500;strokeWidth=2;" edge="1" parent="1" source="ntyYOldUJLg7yIdI68dH-42" target="ntyYOldUJLg7yIdI68dH-38">
          <mxGeometry width="50" height="50" relative="1" as="geometry">
            <mxPoint x="150" y="1220" as="sourcePoint" />
            <mxPoint x="200" y="1170" as="targetPoint" />
          </mxGeometry>
        </mxCell>
        <mxCell id="ntyYOldUJLg7yIdI68dH-74" value="Отказ в выплате" style="edgeLabel;html=1;align=center;verticalAlign=middle;resizable=0;points=[];" vertex="1" connectable="0" parent="ntyYOldUJLg7yIdI68dH-73">
          <mxGeometry x="0.1608" y="2" relative="1" as="geometry">
            <mxPoint x="46" as="offset" />
          </mxGeometry>
        </mxCell>
      </root>
    </mxGraphModel>
  </diagram>
</mxfile>
